<?xml version="1.0" encoding="utf-8"?>
<svg xmlns="http://www.w3.org/2000/svg" xmlns:xlink="http://www.w3.org/1999/xlink" width="600" height="400" viewBox="0 0 2400 1600">
<defs>
  <clipPath id="clip770">
    <rect x="0" y="0" width="2400" height="1600"/>
  </clipPath>
</defs>
<path clip-path="url(#clip770)" d="M0 1600 L2400 1600 L2400 8.88178e-14 L0 8.88178e-14  Z" fill="#ffffff" fill-rule="evenodd" fill-opacity="1"/>
<defs>
  <clipPath id="clip771">
    <rect x="480" y="0" width="1681" height="1600"/>
  </clipPath>
</defs>
<path clip-path="url(#clip770)" d="M178.867 1486.45 L2352.76 1486.45 L2352.76 47.2441 L178.867 47.2441  Z" fill="#ffffff" fill-rule="evenodd" fill-opacity="1"/>
<defs>
  <clipPath id="clip772">
    <rect x="178" y="47" width="2175" height="1440"/>
  </clipPath>
</defs>
<polyline clip-path="url(#clip772)" style="stroke:#000000; stroke-linecap:round; stroke-linejoin:round; stroke-width:2; stroke-opacity:0.1; fill:none" points="207.557,1486.45 207.557,47.2441 "/>
<polyline clip-path="url(#clip772)" style="stroke:#000000; stroke-linecap:round; stroke-linejoin:round; stroke-width:2; stroke-opacity:0.1; fill:none" points="612.998,1486.45 612.998,47.2441 "/>
<polyline clip-path="url(#clip772)" style="stroke:#000000; stroke-linecap:round; stroke-linejoin:round; stroke-width:2; stroke-opacity:0.1; fill:none" points="1018.44,1486.45 1018.44,47.2441 "/>
<polyline clip-path="url(#clip772)" style="stroke:#000000; stroke-linecap:round; stroke-linejoin:round; stroke-width:2; stroke-opacity:0.1; fill:none" points="1423.88,1486.45 1423.88,47.2441 "/>
<polyline clip-path="url(#clip772)" style="stroke:#000000; stroke-linecap:round; stroke-linejoin:round; stroke-width:2; stroke-opacity:0.1; fill:none" points="1829.32,1486.45 1829.32,47.2441 "/>
<polyline clip-path="url(#clip772)" style="stroke:#000000; stroke-linecap:round; stroke-linejoin:round; stroke-width:2; stroke-opacity:0.1; fill:none" points="2234.76,1486.45 2234.76,47.2441 "/>
<polyline clip-path="url(#clip772)" style="stroke:#000000; stroke-linecap:round; stroke-linejoin:round; stroke-width:2; stroke-opacity:0.1; fill:none" points="178.867,1292.92 2352.76,1292.92 "/>
<polyline clip-path="url(#clip772)" style="stroke:#000000; stroke-linecap:round; stroke-linejoin:round; stroke-width:2; stroke-opacity:0.1; fill:none" points="178.867,1042.53 2352.76,1042.53 "/>
<polyline clip-path="url(#clip772)" style="stroke:#000000; stroke-linecap:round; stroke-linejoin:round; stroke-width:2; stroke-opacity:0.1; fill:none" points="178.867,792.132 2352.76,792.132 "/>
<polyline clip-path="url(#clip772)" style="stroke:#000000; stroke-linecap:round; stroke-linejoin:round; stroke-width:2; stroke-opacity:0.1; fill:none" points="178.867,541.738 2352.76,541.738 "/>
<polyline clip-path="url(#clip772)" style="stroke:#000000; stroke-linecap:round; stroke-linejoin:round; stroke-width:2; stroke-opacity:0.1; fill:none" points="178.867,291.344 2352.76,291.344 "/>
<polyline clip-path="url(#clip770)" style="stroke:#000000; stroke-linecap:round; stroke-linejoin:round; stroke-width:4; stroke-opacity:1; fill:none" points="178.867,1486.45 2352.76,1486.45 "/>
<polyline clip-path="url(#clip770)" style="stroke:#000000; stroke-linecap:round; stroke-linejoin:round; stroke-width:4; stroke-opacity:1; fill:none" points="207.557,1486.45 207.557,1467.55 "/>
<polyline clip-path="url(#clip770)" style="stroke:#000000; stroke-linecap:round; stroke-linejoin:round; stroke-width:4; stroke-opacity:1; fill:none" points="612.998,1486.45 612.998,1467.55 "/>
<polyline clip-path="url(#clip770)" style="stroke:#000000; stroke-linecap:round; stroke-linejoin:round; stroke-width:4; stroke-opacity:1; fill:none" points="1018.44,1486.45 1018.44,1467.55 "/>
<polyline clip-path="url(#clip770)" style="stroke:#000000; stroke-linecap:round; stroke-linejoin:round; stroke-width:4; stroke-opacity:1; fill:none" points="1423.88,1486.45 1423.88,1467.55 "/>
<polyline clip-path="url(#clip770)" style="stroke:#000000; stroke-linecap:round; stroke-linejoin:round; stroke-width:4; stroke-opacity:1; fill:none" points="1829.32,1486.45 1829.32,1467.55 "/>
<polyline clip-path="url(#clip770)" style="stroke:#000000; stroke-linecap:round; stroke-linejoin:round; stroke-width:4; stroke-opacity:1; fill:none" points="2234.76,1486.45 2234.76,1467.55 "/>
<path clip-path="url(#clip770)" d="M161.62 1532.02 L191.296 1532.02 L191.296 1535.95 L161.62 1535.95 L161.62 1532.02 Z" fill="#000000" fill-rule="nonzero" fill-opacity="1" /><path clip-path="url(#clip770)" d="M201.435 1514.29 L219.791 1514.29 L219.791 1518.22 L205.717 1518.22 L205.717 1526.7 Q206.735 1526.35 207.754 1526.19 Q208.773 1526 209.791 1526 Q215.578 1526 218.958 1529.17 Q222.337 1532.34 222.337 1537.76 Q222.337 1543.34 218.865 1546.44 Q215.393 1549.52 209.073 1549.52 Q206.898 1549.52 204.629 1549.15 Q202.384 1548.78 199.976 1548.04 L199.976 1543.34 Q202.06 1544.47 204.282 1545.03 Q206.504 1545.58 208.981 1545.58 Q212.985 1545.58 215.323 1543.48 Q217.661 1541.37 217.661 1537.76 Q217.661 1534.15 215.323 1532.04 Q212.985 1529.94 208.981 1529.94 Q207.106 1529.94 205.231 1530.35 Q203.379 1530.77 201.435 1531.65 L201.435 1514.29 Z" fill="#000000" fill-rule="nonzero" fill-opacity="1" /><path clip-path="url(#clip770)" d="M241.55 1517.37 Q237.939 1517.37 236.11 1520.93 Q234.305 1524.47 234.305 1531.6 Q234.305 1538.71 236.11 1542.27 Q237.939 1545.82 241.55 1545.82 Q245.184 1545.82 246.99 1542.27 Q248.819 1538.71 248.819 1531.6 Q248.819 1524.47 246.99 1520.93 Q245.184 1517.37 241.55 1517.37 M241.55 1513.66 Q247.36 1513.66 250.416 1518.27 Q253.495 1522.85 253.495 1531.6 Q253.495 1540.33 250.416 1544.94 Q247.36 1549.52 241.55 1549.52 Q235.74 1549.52 232.661 1544.94 Q229.606 1540.33 229.606 1531.6 Q229.606 1522.85 232.661 1518.27 Q235.74 1513.66 241.55 1513.66 Z" fill="#000000" fill-rule="nonzero" fill-opacity="1" /><path clip-path="url(#clip770)" d="M612.998 1517.37 Q609.387 1517.37 607.559 1520.93 Q605.753 1524.47 605.753 1531.6 Q605.753 1538.71 607.559 1542.27 Q609.387 1545.82 612.998 1545.82 Q616.633 1545.82 618.438 1542.27 Q620.267 1538.71 620.267 1531.6 Q620.267 1524.47 618.438 1520.93 Q616.633 1517.37 612.998 1517.37 M612.998 1513.66 Q618.809 1513.66 621.864 1518.27 Q624.943 1522.85 624.943 1531.6 Q624.943 1540.33 621.864 1544.94 Q618.809 1549.52 612.998 1549.52 Q607.188 1549.52 604.11 1544.94 Q601.054 1540.33 601.054 1531.6 Q601.054 1522.85 604.11 1518.27 Q607.188 1513.66 612.998 1513.66 Z" fill="#000000" fill-rule="nonzero" fill-opacity="1" /><path clip-path="url(#clip770)" d="M993.139 1514.29 L1011.5 1514.29 L1011.5 1518.22 L997.421 1518.22 L997.421 1526.7 Q998.44 1526.35 999.458 1526.19 Q1000.48 1526 1001.5 1526 Q1007.28 1526 1010.66 1529.17 Q1014.04 1532.34 1014.04 1537.76 Q1014.04 1543.34 1010.57 1546.44 Q1007.1 1549.52 1000.78 1549.52 Q998.602 1549.52 996.333 1549.15 Q994.088 1548.78 991.681 1548.04 L991.681 1543.34 Q993.764 1544.47 995.986 1545.03 Q998.208 1545.58 1000.69 1545.58 Q1004.69 1545.58 1007.03 1543.48 Q1009.37 1541.37 1009.37 1537.76 Q1009.37 1534.15 1007.03 1532.04 Q1004.69 1529.94 1000.69 1529.94 Q998.81 1529.94 996.935 1530.35 Q995.083 1530.77 993.139 1531.65 L993.139 1514.29 Z" fill="#000000" fill-rule="nonzero" fill-opacity="1" /><path clip-path="url(#clip770)" d="M1033.25 1517.37 Q1029.64 1517.37 1027.81 1520.93 Q1026.01 1524.47 1026.01 1531.6 Q1026.01 1538.71 1027.81 1542.27 Q1029.64 1545.82 1033.25 1545.82 Q1036.89 1545.82 1038.69 1542.27 Q1040.52 1538.71 1040.52 1531.6 Q1040.52 1524.47 1038.69 1520.93 Q1036.89 1517.37 1033.25 1517.37 M1033.25 1513.66 Q1039.06 1513.66 1042.12 1518.27 Q1045.2 1522.85 1045.2 1531.6 Q1045.2 1540.33 1042.12 1544.94 Q1039.06 1549.52 1033.25 1549.52 Q1027.44 1549.52 1024.37 1544.94 Q1021.31 1540.33 1021.31 1531.6 Q1021.31 1522.85 1024.37 1518.27 Q1027.44 1513.66 1033.25 1513.66 Z" fill="#000000" fill-rule="nonzero" fill-opacity="1" /><path clip-path="url(#clip770)" d="M1383.49 1544.91 L1391.13 1544.91 L1391.13 1518.55 L1382.82 1520.21 L1382.82 1515.95 L1391.08 1514.29 L1395.76 1514.29 L1395.76 1544.91 L1403.39 1544.91 L1403.39 1548.85 L1383.49 1548.85 L1383.49 1544.91 Z" fill="#000000" fill-rule="nonzero" fill-opacity="1" /><path clip-path="url(#clip770)" d="M1422.84 1517.37 Q1419.23 1517.37 1417.4 1520.93 Q1415.59 1524.47 1415.59 1531.6 Q1415.59 1538.71 1417.4 1542.27 Q1419.23 1545.82 1422.84 1545.82 Q1426.47 1545.82 1428.28 1542.27 Q1430.11 1538.71 1430.11 1531.6 Q1430.11 1524.47 1428.28 1520.93 Q1426.47 1517.37 1422.84 1517.37 M1422.84 1513.66 Q1428.65 1513.66 1431.7 1518.27 Q1434.78 1522.85 1434.78 1531.6 Q1434.78 1540.33 1431.7 1544.94 Q1428.65 1549.52 1422.84 1549.52 Q1417.03 1549.52 1413.95 1544.94 Q1410.89 1540.33 1410.89 1531.6 Q1410.89 1522.85 1413.95 1518.27 Q1417.03 1513.66 1422.84 1513.66 Z" fill="#000000" fill-rule="nonzero" fill-opacity="1" /><path clip-path="url(#clip770)" d="M1453 1517.37 Q1449.39 1517.37 1447.56 1520.93 Q1445.76 1524.47 1445.76 1531.6 Q1445.76 1538.71 1447.56 1542.27 Q1449.39 1545.82 1453 1545.82 Q1456.64 1545.82 1458.44 1542.27 Q1460.27 1538.71 1460.27 1531.6 Q1460.27 1524.47 1458.44 1520.93 Q1456.64 1517.37 1453 1517.37 M1453 1513.66 Q1458.81 1513.66 1461.87 1518.27 Q1464.95 1522.85 1464.95 1531.6 Q1464.95 1540.33 1461.87 1544.94 Q1458.81 1549.52 1453 1549.52 Q1447.19 1549.52 1444.11 1544.94 Q1441.06 1540.33 1441.06 1531.6 Q1441.06 1522.85 1444.11 1518.27 Q1447.19 1513.66 1453 1513.66 Z" fill="#000000" fill-rule="nonzero" fill-opacity="1" /><path clip-path="url(#clip770)" d="M1788.93 1544.91 L1796.57 1544.91 L1796.57 1518.55 L1788.26 1520.21 L1788.26 1515.95 L1796.52 1514.29 L1801.2 1514.29 L1801.2 1544.91 L1808.84 1544.91 L1808.84 1548.85 L1788.93 1548.85 L1788.93 1544.91 Z" fill="#000000" fill-rule="nonzero" fill-opacity="1" /><path clip-path="url(#clip770)" d="M1818.33 1514.29 L1836.68 1514.29 L1836.68 1518.22 L1822.61 1518.22 L1822.61 1526.7 Q1823.63 1526.35 1824.65 1526.19 Q1825.66 1526 1826.68 1526 Q1832.47 1526 1835.85 1529.17 Q1839.23 1532.34 1839.23 1537.76 Q1839.23 1543.34 1835.76 1546.44 Q1832.28 1549.52 1825.97 1549.52 Q1823.79 1549.52 1821.52 1549.15 Q1819.28 1548.78 1816.87 1548.04 L1816.87 1543.34 Q1818.95 1544.47 1821.17 1545.03 Q1823.4 1545.58 1825.87 1545.58 Q1829.88 1545.58 1832.22 1543.48 Q1834.55 1541.37 1834.55 1537.76 Q1834.55 1534.15 1832.22 1532.04 Q1829.88 1529.94 1825.87 1529.94 Q1824 1529.94 1822.12 1530.35 Q1820.27 1530.77 1818.33 1531.65 L1818.33 1514.29 Z" fill="#000000" fill-rule="nonzero" fill-opacity="1" /><path clip-path="url(#clip770)" d="M1858.44 1517.37 Q1854.83 1517.37 1853 1520.93 Q1851.2 1524.47 1851.2 1531.6 Q1851.2 1538.71 1853 1542.27 Q1854.83 1545.82 1858.44 1545.82 Q1862.08 1545.82 1863.88 1542.27 Q1865.71 1538.71 1865.71 1531.6 Q1865.71 1524.47 1863.88 1520.93 Q1862.08 1517.37 1858.44 1517.37 M1858.44 1513.66 Q1864.25 1513.66 1867.31 1518.27 Q1870.39 1522.85 1870.39 1531.6 Q1870.39 1540.33 1867.31 1544.94 Q1864.25 1549.52 1858.44 1549.52 Q1852.63 1549.52 1849.55 1544.94 Q1846.5 1540.33 1846.5 1531.6 Q1846.5 1522.85 1849.55 1518.27 Q1852.63 1513.66 1858.44 1513.66 Z" fill="#000000" fill-rule="nonzero" fill-opacity="1" /><path clip-path="url(#clip770)" d="M2198.46 1544.91 L2214.77 1544.91 L2214.77 1548.85 L2192.83 1548.85 L2192.83 1544.91 Q2195.49 1542.16 2200.08 1537.53 Q2204.68 1532.88 2205.86 1531.53 Q2208.11 1529.01 2208.99 1527.27 Q2209.89 1525.51 2209.89 1523.82 Q2209.89 1521.07 2207.95 1519.33 Q2206.02 1517.6 2202.92 1517.6 Q2200.72 1517.6 2198.27 1518.36 Q2195.84 1519.13 2193.06 1520.68 L2193.06 1515.95 Q2195.89 1514.82 2198.34 1514.24 Q2200.79 1513.66 2202.83 1513.66 Q2208.2 1513.66 2211.4 1516.35 Q2214.59 1519.03 2214.59 1523.52 Q2214.59 1525.65 2213.78 1527.57 Q2212.99 1529.47 2210.89 1532.07 Q2210.31 1532.74 2207.21 1535.95 Q2204.1 1539.15 2198.46 1544.91 Z" fill="#000000" fill-rule="nonzero" fill-opacity="1" /><path clip-path="url(#clip770)" d="M2234.59 1517.37 Q2230.98 1517.37 2229.15 1520.93 Q2227.34 1524.47 2227.34 1531.6 Q2227.34 1538.71 2229.15 1542.27 Q2230.98 1545.82 2234.59 1545.82 Q2238.22 1545.82 2240.03 1542.27 Q2241.86 1538.71 2241.86 1531.6 Q2241.86 1524.47 2240.03 1520.93 Q2238.22 1517.37 2234.59 1517.37 M2234.59 1513.66 Q2240.4 1513.66 2243.46 1518.27 Q2246.53 1522.85 2246.53 1531.6 Q2246.53 1540.33 2243.46 1544.94 Q2240.4 1549.52 2234.59 1549.52 Q2228.78 1549.52 2225.7 1544.94 Q2222.65 1540.33 2222.65 1531.6 Q2222.65 1522.85 2225.7 1518.27 Q2228.78 1513.66 2234.59 1513.66 Z" fill="#000000" fill-rule="nonzero" fill-opacity="1" /><path clip-path="url(#clip770)" d="M2264.75 1517.37 Q2261.14 1517.37 2259.31 1520.93 Q2257.51 1524.47 2257.51 1531.6 Q2257.51 1538.71 2259.31 1542.27 Q2261.14 1545.82 2264.75 1545.82 Q2268.39 1545.82 2270.19 1542.27 Q2272.02 1538.71 2272.02 1531.6 Q2272.02 1524.47 2270.19 1520.93 Q2268.39 1517.37 2264.75 1517.37 M2264.75 1513.66 Q2270.56 1513.66 2273.62 1518.27 Q2276.7 1522.85 2276.7 1531.6 Q2276.7 1540.33 2273.62 1544.94 Q2270.56 1549.52 2264.75 1549.52 Q2258.94 1549.52 2255.86 1544.94 Q2252.81 1540.33 2252.81 1531.6 Q2252.81 1522.85 2255.86 1518.27 Q2258.94 1513.66 2264.75 1513.66 Z" fill="#000000" fill-rule="nonzero" fill-opacity="1" /><polyline clip-path="url(#clip770)" style="stroke:#000000; stroke-linecap:round; stroke-linejoin:round; stroke-width:4; stroke-opacity:1; fill:none" points="178.867,1486.45 178.867,47.2441 "/>
<polyline clip-path="url(#clip770)" style="stroke:#000000; stroke-linecap:round; stroke-linejoin:round; stroke-width:4; stroke-opacity:1; fill:none" points="178.867,1292.92 197.764,1292.92 "/>
<polyline clip-path="url(#clip770)" style="stroke:#000000; stroke-linecap:round; stroke-linejoin:round; stroke-width:4; stroke-opacity:1; fill:none" points="178.867,1042.53 197.764,1042.53 "/>
<polyline clip-path="url(#clip770)" style="stroke:#000000; stroke-linecap:round; stroke-linejoin:round; stroke-width:4; stroke-opacity:1; fill:none" points="178.867,792.132 197.764,792.132 "/>
<polyline clip-path="url(#clip770)" style="stroke:#000000; stroke-linecap:round; stroke-linejoin:round; stroke-width:4; stroke-opacity:1; fill:none" points="178.867,541.738 197.764,541.738 "/>
<polyline clip-path="url(#clip770)" style="stroke:#000000; stroke-linecap:round; stroke-linejoin:round; stroke-width:4; stroke-opacity:1; fill:none" points="178.867,291.344 197.764,291.344 "/>
<path clip-path="url(#clip770)" d="M50.9921 1293.37 L80.6679 1293.37 L80.6679 1297.31 L50.9921 1297.31 L50.9921 1293.37 Z" fill="#000000" fill-rule="nonzero" fill-opacity="1" /><path clip-path="url(#clip770)" d="M90.8067 1275.64 L109.163 1275.64 L109.163 1279.58 L95.0891 1279.58 L95.0891 1288.05 Q96.1076 1287.7 97.1261 1287.54 Q98.1447 1287.35 99.1632 1287.35 Q104.95 1287.35 108.33 1290.52 Q111.709 1293.7 111.709 1299.11 Q111.709 1304.69 108.237 1307.79 Q104.765 1310.87 98.4456 1310.87 Q96.2697 1310.87 94.0012 1310.5 Q91.7558 1310.13 89.3484 1309.39 L89.3484 1304.69 Q91.4317 1305.83 93.6539 1306.38 Q95.8761 1306.94 98.353 1306.94 Q102.358 1306.94 104.696 1304.83 Q107.033 1302.72 107.033 1299.11 Q107.033 1295.5 104.696 1293.39 Q102.358 1291.29 98.353 1291.29 Q96.478 1291.29 94.603 1291.7 Q92.7512 1292.12 90.8067 1293 L90.8067 1275.64 Z" fill="#000000" fill-rule="nonzero" fill-opacity="1" /><path clip-path="url(#clip770)" d="M130.922 1278.72 Q127.311 1278.72 125.482 1282.28 Q123.677 1285.83 123.677 1292.95 Q123.677 1300.06 125.482 1303.63 Q127.311 1307.17 130.922 1307.17 Q134.556 1307.17 136.362 1303.63 Q138.191 1300.06 138.191 1292.95 Q138.191 1285.83 136.362 1282.28 Q134.556 1278.72 130.922 1278.72 M130.922 1275.02 Q136.732 1275.02 139.788 1279.62 Q142.867 1284.2 142.867 1292.95 Q142.867 1301.68 139.788 1306.29 Q136.732 1310.87 130.922 1310.87 Q125.112 1310.87 122.033 1306.29 Q118.978 1301.68 118.978 1292.95 Q118.978 1284.2 122.033 1279.62 Q125.112 1275.02 130.922 1275.02 Z" fill="#000000" fill-rule="nonzero" fill-opacity="1" /><path clip-path="url(#clip770)" d="M130.922 1028.32 Q127.311 1028.32 125.482 1031.89 Q123.677 1035.43 123.677 1042.56 Q123.677 1049.67 125.482 1053.23 Q127.311 1056.77 130.922 1056.77 Q134.556 1056.77 136.362 1053.23 Q138.191 1049.67 138.191 1042.56 Q138.191 1035.43 136.362 1031.89 Q134.556 1028.32 130.922 1028.32 M130.922 1024.62 Q136.732 1024.62 139.788 1029.23 Q142.867 1033.81 142.867 1042.56 Q142.867 1051.29 139.788 1055.89 Q136.732 1060.48 130.922 1060.48 Q125.112 1060.48 122.033 1055.89 Q118.978 1051.29 118.978 1042.56 Q118.978 1033.81 122.033 1029.23 Q125.112 1024.62 130.922 1024.62 Z" fill="#000000" fill-rule="nonzero" fill-opacity="1" /><path clip-path="url(#clip770)" d="M90.8067 774.852 L109.163 774.852 L109.163 778.787 L95.0891 778.787 L95.0891 787.26 Q96.1076 786.912 97.1261 786.75 Q98.1447 786.565 99.1632 786.565 Q104.95 786.565 108.33 789.736 Q111.709 792.908 111.709 798.324 Q111.709 803.903 108.237 807.005 Q104.765 810.083 98.4456 810.083 Q96.2697 810.083 94.0012 809.713 Q91.7558 809.343 89.3484 808.602 L89.3484 803.903 Q91.4317 805.037 93.6539 805.593 Q95.8761 806.148 98.353 806.148 Q102.358 806.148 104.696 804.042 Q107.033 801.935 107.033 798.324 Q107.033 794.713 104.696 792.607 Q102.358 790.5 98.353 790.5 Q96.478 790.5 94.603 790.917 Q92.7512 791.334 90.8067 792.213 L90.8067 774.852 Z" fill="#000000" fill-rule="nonzero" fill-opacity="1" /><path clip-path="url(#clip770)" d="M130.922 777.931 Q127.311 777.931 125.482 781.496 Q123.677 785.037 123.677 792.167 Q123.677 799.273 125.482 802.838 Q127.311 806.38 130.922 806.38 Q134.556 806.38 136.362 802.838 Q138.191 799.273 138.191 792.167 Q138.191 785.037 136.362 781.496 Q134.556 777.931 130.922 777.931 M130.922 774.227 Q136.732 774.227 139.788 778.834 Q142.867 783.417 142.867 792.167 Q142.867 800.894 139.788 805.5 Q136.732 810.083 130.922 810.083 Q125.112 810.083 122.033 805.5 Q118.978 800.894 118.978 792.167 Q118.978 783.417 122.033 778.834 Q125.112 774.227 130.922 774.227 Z" fill="#000000" fill-rule="nonzero" fill-opacity="1" /><path clip-path="url(#clip770)" d="M61.4087 555.083 L69.0476 555.083 L69.0476 528.717 L60.7374 530.384 L60.7374 526.125 L69.0013 524.458 L73.6772 524.458 L73.6772 555.083 L81.316 555.083 L81.316 559.018 L61.4087 559.018 L61.4087 555.083 Z" fill="#000000" fill-rule="nonzero" fill-opacity="1" /><path clip-path="url(#clip770)" d="M100.76 527.537 Q97.1493 527.537 95.3206 531.102 Q93.515 534.643 93.515 541.773 Q93.515 548.879 95.3206 552.444 Q97.1493 555.986 100.76 555.986 Q104.395 555.986 106.2 552.444 Q108.029 548.879 108.029 541.773 Q108.029 534.643 106.2 531.102 Q104.395 527.537 100.76 527.537 M100.76 523.833 Q106.571 523.833 109.626 528.44 Q112.705 533.023 112.705 541.773 Q112.705 550.5 109.626 555.106 Q106.571 559.689 100.76 559.689 Q94.9502 559.689 91.8715 555.106 Q88.816 550.5 88.816 541.773 Q88.816 533.023 91.8715 528.44 Q94.9502 523.833 100.76 523.833 Z" fill="#000000" fill-rule="nonzero" fill-opacity="1" /><path clip-path="url(#clip770)" d="M130.922 527.537 Q127.311 527.537 125.482 531.102 Q123.677 534.643 123.677 541.773 Q123.677 548.879 125.482 552.444 Q127.311 555.986 130.922 555.986 Q134.556 555.986 136.362 552.444 Q138.191 548.879 138.191 541.773 Q138.191 534.643 136.362 531.102 Q134.556 527.537 130.922 527.537 M130.922 523.833 Q136.732 523.833 139.788 528.44 Q142.867 533.023 142.867 541.773 Q142.867 550.5 139.788 555.106 Q136.732 559.689 130.922 559.689 Q125.112 559.689 122.033 555.106 Q118.978 550.5 118.978 541.773 Q118.978 533.023 122.033 528.44 Q125.112 523.833 130.922 523.833 Z" fill="#000000" fill-rule="nonzero" fill-opacity="1" /><path clip-path="url(#clip770)" d="M61.4087 304.689 L69.0476 304.689 L69.0476 278.323 L60.7374 279.99 L60.7374 275.731 L69.0013 274.064 L73.6772 274.064 L73.6772 304.689 L81.316 304.689 L81.316 308.624 L61.4087 308.624 L61.4087 304.689 Z" fill="#000000" fill-rule="nonzero" fill-opacity="1" /><path clip-path="url(#clip770)" d="M90.8067 274.064 L109.163 274.064 L109.163 277.999 L95.0891 277.999 L95.0891 286.472 Q96.1076 286.124 97.1261 285.962 Q98.1447 285.777 99.1632 285.777 Q104.95 285.777 108.33 288.948 Q111.709 292.12 111.709 297.536 Q111.709 303.115 108.237 306.217 Q104.765 309.295 98.4456 309.295 Q96.2697 309.295 94.0012 308.925 Q91.7558 308.555 89.3484 307.814 L89.3484 303.115 Q91.4317 304.249 93.6539 304.805 Q95.8761 305.36 98.353 305.36 Q102.358 305.36 104.696 303.254 Q107.033 301.147 107.033 297.536 Q107.033 293.925 104.696 291.819 Q102.358 289.712 98.353 289.712 Q96.478 289.712 94.603 290.129 Q92.7512 290.546 90.8067 291.425 L90.8067 274.064 Z" fill="#000000" fill-rule="nonzero" fill-opacity="1" /><path clip-path="url(#clip770)" d="M130.922 277.143 Q127.311 277.143 125.482 280.708 Q123.677 284.249 123.677 291.379 Q123.677 298.485 125.482 302.05 Q127.311 305.592 130.922 305.592 Q134.556 305.592 136.362 302.05 Q138.191 298.485 138.191 291.379 Q138.191 284.249 136.362 280.708 Q134.556 277.143 130.922 277.143 M130.922 273.439 Q136.732 273.439 139.788 278.046 Q142.867 282.629 142.867 291.379 Q142.867 300.106 139.788 304.712 Q136.732 309.295 130.922 309.295 Q125.112 309.295 122.033 304.712 Q118.978 300.106 118.978 291.379 Q118.978 282.629 122.033 278.046 Q125.112 273.439 130.922 273.439 Z" fill="#000000" fill-rule="nonzero" fill-opacity="1" /><polyline clip-path="url(#clip772)" style="stroke:#009af9; stroke-linecap:round; stroke-linejoin:round; stroke-width:4; stroke-opacity:1; fill:none" points="634.979,1027.65 648.517,1031.31 667.706,1022.91 674.652,1011.29 695.068,1001.7 721.697,999.742 740.163,994.219 752.43,989.005 760.81,988.562 774.835,976.806 784.489,961.952 806.381,957.828 830.146,948.902 851.42,939.329 877.728,922.951 885.201,909.686 914.011,911.393 931.359,902.471 945.745,893.684 957.066,885.66 975.143,876.258 995.261,865.977 1002.48,853.961 1017.27,849.166 1042.56,832.113 1051.99,828.931 1065.57,817.396 1090.18,811.347 1101.69,805.509 1110.38,793.233 1127.21,775.845 1145.97,768.238 1162.97,748.361 1161.46,739.391 1185.09,732.543 1213.82,725.807 1234.17,710.653 1244.02,695.706 1255.76,689.585 1272.58,680.339 1290.2,671.218 1299.61,668.905 1308.14,657.224 1318.97,648.07 1333.1,635.672 1343.68,623.633 1347.49,615.045 1364.34,600.299 1378.19,588.138 1400.79,574.737 1411.1,566.723 1423.53,566.056 1422.46,549.468 1436.24,545.142 1460.88,548.147 1496.31,527.78 1522.54,521.334 1538.7,515.473 1546.34,511.922 1555.98,499.797 1571.55,485.97 1581.11,474.669 1600.11,470.731 1618.13,459.799 1637.6,456.351 1656.23,447.866 1674.71,437.328 1694.05,423.085 1703.31,403.634 1708.38,391.092 1730.18,379.628 1749.08,370.676 1770.42,364.94 1796.93,354.672 1805.87,346.937 1825.5,332.171 1834.8,313.892 1870.61,302.657 1894.25,298.012 1915.13,289.979 1939.72,283.635 1957.22,266.96 1972.91,260.913 1986.42,253.655 2002.7,238.666 2020.98,229.393 2034.79,216.258 2046.08,198.621 2067.99,181.059 2094.54,172.474 2114.88,160.278 2138.92,152.345 2165.96,150.502 2177.9,142.896 2198.47,139.344 2198.2,124.887 2221.21,111.122 2243.96,106.235 2269.61,94.1086 2291.23,87.9763 "/>
<circle clip-path="url(#clip772)" cx="658.484" cy="885.365" r="14.4" fill="#e26f46" fill-rule="evenodd" fill-opacity="1" stroke="#000000" stroke-opacity="1" stroke-width="3.2"/>
<circle clip-path="url(#clip772)" cx="240.392" cy="983.786" r="14.4" fill="#e26f46" fill-rule="evenodd" fill-opacity="1" stroke="#000000" stroke-opacity="1" stroke-width="3.2"/>
<circle clip-path="url(#clip772)" cx="755.396" cy="719.46" r="14.4" fill="#e26f46" fill-rule="evenodd" fill-opacity="1" stroke="#000000" stroke-opacity="1" stroke-width="3.2"/>
<circle clip-path="url(#clip772)" cx="1121.51" cy="889.964" r="14.4" fill="#e26f46" fill-rule="evenodd" fill-opacity="1" stroke="#000000" stroke-opacity="1" stroke-width="3.2"/>
<circle clip-path="url(#clip772)" cx="866.389" cy="880.851" r="14.4" fill="#e26f46" fill-rule="evenodd" fill-opacity="1" stroke="#000000" stroke-opacity="1" stroke-width="3.2"/>
<circle clip-path="url(#clip772)" cx="750.243" cy="1445.72" r="14.4" fill="#e26f46" fill-rule="evenodd" fill-opacity="1" stroke="#000000" stroke-opacity="1" stroke-width="3.2"/>
<path clip-path="url(#clip770)" d="M251.33 250.738 L708.37 250.738 L708.37 95.2176 L251.33 95.2176  Z" fill="#ffffff" fill-rule="evenodd" fill-opacity="1"/>
<polyline clip-path="url(#clip770)" style="stroke:#000000; stroke-linecap:round; stroke-linejoin:round; stroke-width:4; stroke-opacity:1; fill:none" points="251.33,250.738 708.37,250.738 708.37,95.2176 251.33,95.2176 251.33,250.738 "/>
<polyline clip-path="url(#clip770)" style="stroke:#009af9; stroke-linecap:round; stroke-linejoin:round; stroke-width:4; stroke-opacity:1; fill:none" points="275.484,147.058 420.41,147.058 "/>
<path clip-path="url(#clip770)" d="M459.749 142.393 Q459.032 141.977 458.175 141.791 Q457.342 141.583 456.323 141.583 Q452.712 141.583 450.768 143.944 Q448.847 146.282 448.847 150.68 L448.847 164.338 L444.564 164.338 L444.564 138.412 L448.847 138.412 L448.847 142.44 Q450.189 140.078 452.342 138.944 Q454.495 137.787 457.573 137.787 Q458.013 137.787 458.546 137.856 Q459.078 137.903 459.726 138.018 L459.749 142.393 Z" fill="#000000" fill-rule="nonzero" fill-opacity="1" /><path clip-path="url(#clip770)" d="M473.221 141.398 Q469.796 141.398 467.805 144.083 Q465.814 146.745 465.814 151.398 Q465.814 156.051 467.782 158.736 Q469.772 161.398 473.221 161.398 Q476.624 161.398 478.615 158.713 Q480.606 156.027 480.606 151.398 Q480.606 146.791 478.615 144.106 Q476.624 141.398 473.221 141.398 M473.221 137.787 Q478.777 137.787 481.948 141.398 Q485.12 145.009 485.12 151.398 Q485.12 157.764 481.948 161.398 Q478.777 165.009 473.221 165.009 Q467.643 165.009 464.472 161.398 Q461.323 157.764 461.323 151.398 Q461.323 145.009 464.472 141.398 Q467.643 137.787 473.221 137.787 Z" fill="#000000" fill-rule="nonzero" fill-opacity="1" /><path clip-path="url(#clip770)" d="M510.791 151.398 Q510.791 146.699 508.846 144.037 Q506.925 141.352 503.545 141.352 Q500.166 141.352 498.221 144.037 Q496.3 146.699 496.3 151.398 Q496.3 156.097 498.221 158.782 Q500.166 161.444 503.545 161.444 Q506.925 161.444 508.846 158.782 Q510.791 156.097 510.791 151.398 M496.3 142.347 Q497.643 140.032 499.68 138.921 Q501.74 137.787 504.587 137.787 Q509.309 137.787 512.249 141.537 Q515.212 145.287 515.212 151.398 Q515.212 157.509 512.249 161.259 Q509.309 165.009 504.587 165.009 Q501.74 165.009 499.68 163.898 Q497.643 162.763 496.3 160.449 L496.3 164.338 L492.018 164.338 L492.018 128.319 L496.3 128.319 L496.3 142.347 Z" fill="#000000" fill-rule="nonzero" fill-opacity="1" /><path clip-path="url(#clip770)" d="M532.318 141.398 Q528.892 141.398 526.902 144.083 Q524.911 146.745 524.911 151.398 Q524.911 156.051 526.879 158.736 Q528.869 161.398 532.318 161.398 Q535.721 161.398 537.712 158.713 Q539.703 156.027 539.703 151.398 Q539.703 146.791 537.712 144.106 Q535.721 141.398 532.318 141.398 M532.318 137.787 Q537.874 137.787 541.045 141.398 Q544.216 145.009 544.216 151.398 Q544.216 157.764 541.045 161.398 Q537.874 165.009 532.318 165.009 Q526.74 165.009 523.568 161.398 Q520.42 157.764 520.42 151.398 Q520.42 145.009 523.568 141.398 Q526.74 137.787 532.318 137.787 Z" fill="#000000" fill-rule="nonzero" fill-opacity="1" /><path clip-path="url(#clip770)" d="M555.49 131.051 L555.49 138.412 L564.263 138.412 L564.263 141.722 L555.49 141.722 L555.49 155.796 Q555.49 158.967 556.346 159.87 Q557.226 160.773 559.888 160.773 L564.263 160.773 L564.263 164.338 L559.888 164.338 Q554.957 164.338 553.082 162.509 Q551.207 160.657 551.207 155.796 L551.207 141.722 L548.082 141.722 L548.082 138.412 L551.207 138.412 L551.207 131.051 L555.49 131.051 Z" fill="#000000" fill-rule="nonzero" fill-opacity="1" /><path clip-path="url(#clip770)" d="M589.054 160.449 L589.054 174.199 L584.772 174.199 L584.772 138.412 L589.054 138.412 L589.054 142.347 Q590.397 140.032 592.434 138.921 Q594.494 137.787 597.341 137.787 Q602.063 137.787 605.003 141.537 Q607.966 145.287 607.966 151.398 Q607.966 157.509 605.003 161.259 Q602.063 165.009 597.341 165.009 Q594.494 165.009 592.434 163.898 Q590.397 162.763 589.054 160.449 M603.545 151.398 Q603.545 146.699 601.6 144.037 Q599.679 141.352 596.3 141.352 Q592.92 141.352 590.975 144.037 Q589.054 146.699 589.054 151.398 Q589.054 156.097 590.975 158.782 Q592.92 161.444 596.3 161.444 Q599.679 161.444 601.6 158.782 Q603.545 156.097 603.545 151.398 Z" fill="#000000" fill-rule="nonzero" fill-opacity="1" /><path clip-path="url(#clip770)" d="M626.809 151.305 Q621.647 151.305 619.656 152.486 Q617.665 153.666 617.665 156.514 Q617.665 158.782 619.147 160.125 Q620.651 161.444 623.221 161.444 Q626.762 161.444 628.892 158.944 Q631.045 156.421 631.045 152.254 L631.045 151.305 L626.809 151.305 M635.304 149.546 L635.304 164.338 L631.045 164.338 L631.045 160.402 Q629.586 162.763 627.41 163.898 Q625.235 165.009 622.086 165.009 Q618.105 165.009 615.744 162.787 Q613.406 160.541 613.406 156.791 Q613.406 152.416 616.323 150.194 Q619.262 147.972 625.073 147.972 L631.045 147.972 L631.045 147.555 Q631.045 144.615 629.1 143.018 Q627.179 141.398 623.684 141.398 Q621.461 141.398 619.355 141.93 Q617.248 142.463 615.304 143.527 L615.304 139.592 Q617.642 138.69 619.841 138.25 Q622.04 137.787 624.123 137.787 Q629.748 137.787 632.526 140.703 Q635.304 143.62 635.304 149.546 Z" fill="#000000" fill-rule="nonzero" fill-opacity="1" /><path clip-path="url(#clip770)" d="M648.29 131.051 L648.29 138.412 L657.063 138.412 L657.063 141.722 L648.29 141.722 L648.29 155.796 Q648.29 158.967 649.146 159.87 Q650.026 160.773 652.688 160.773 L657.063 160.773 L657.063 164.338 L652.688 164.338 Q647.758 164.338 645.883 162.509 Q644.008 160.657 644.008 155.796 L644.008 141.722 L640.883 141.722 L640.883 138.412 L644.008 138.412 L644.008 131.051 L648.29 131.051 Z" fill="#000000" fill-rule="nonzero" fill-opacity="1" /><path clip-path="url(#clip770)" d="M684.216 148.689 L684.216 164.338 L679.956 164.338 L679.956 148.828 Q679.956 145.148 678.521 143.319 Q677.086 141.49 674.216 141.49 Q670.767 141.49 668.776 143.69 Q666.785 145.889 666.785 149.685 L666.785 164.338 L662.503 164.338 L662.503 128.319 L666.785 128.319 L666.785 142.44 Q668.313 140.102 670.373 138.944 Q672.457 137.787 675.165 137.787 Q679.632 137.787 681.924 140.565 Q684.216 143.319 684.216 148.689 Z" fill="#000000" fill-rule="nonzero" fill-opacity="1" /><circle clip-path="url(#clip770)" cx="347.947" cy="198.898" r="20.48" fill="#e26f46" fill-rule="evenodd" fill-opacity="1" stroke="#000000" stroke-opacity="1" stroke-width="4.55111"/>
<path clip-path="url(#clip770)" d="M456.462 193.238 Q453.036 193.238 451.046 195.923 Q449.055 198.585 449.055 203.238 Q449.055 207.891 451.023 210.576 Q453.013 213.238 456.462 213.238 Q459.865 213.238 461.856 210.553 Q463.847 207.867 463.847 203.238 Q463.847 198.631 461.856 195.946 Q459.865 193.238 456.462 193.238 M456.462 189.627 Q462.018 189.627 465.189 193.238 Q468.36 196.849 468.36 203.238 Q468.36 209.604 465.189 213.238 Q462.018 216.849 456.462 216.849 Q450.884 216.849 447.712 213.238 Q444.564 209.604 444.564 203.238 Q444.564 196.849 447.712 193.238 Q450.884 189.627 456.462 189.627 Z" fill="#000000" fill-rule="nonzero" fill-opacity="1" /><path clip-path="url(#clip770)" d="M494.032 203.238 Q494.032 198.539 492.087 195.877 Q490.166 193.192 486.786 193.192 Q483.407 193.192 481.462 195.877 Q479.541 198.539 479.541 203.238 Q479.541 207.937 481.462 210.622 Q483.407 213.284 486.786 213.284 Q490.166 213.284 492.087 210.622 Q494.032 207.937 494.032 203.238 M479.541 194.187 Q480.883 191.872 482.92 190.761 Q484.981 189.627 487.828 189.627 Q492.55 189.627 495.49 193.377 Q498.453 197.127 498.453 203.238 Q498.453 209.349 495.49 213.099 Q492.55 216.849 487.828 216.849 Q484.981 216.849 482.92 215.738 Q480.883 214.603 479.541 212.289 L479.541 216.178 L475.258 216.178 L475.258 180.159 L479.541 180.159 L479.541 194.187 Z" fill="#000000" fill-rule="nonzero" fill-opacity="1" /><path clip-path="url(#clip770)" d="M522.041 191.016 L522.041 195.043 Q520.235 194.117 518.291 193.655 Q516.346 193.192 514.263 193.192 Q511.092 193.192 509.494 194.164 Q507.92 195.136 507.92 197.08 Q507.92 198.562 509.055 199.418 Q510.189 200.252 513.615 201.016 L515.073 201.34 Q519.61 202.312 521.508 204.094 Q523.43 205.854 523.43 209.025 Q523.43 212.636 520.559 214.742 Q517.712 216.849 512.712 216.849 Q510.629 216.849 508.36 216.432 Q506.115 216.039 503.615 215.228 L503.615 210.83 Q505.976 212.057 508.268 212.682 Q510.559 213.284 512.805 213.284 Q515.814 213.284 517.434 212.266 Q519.055 211.224 519.055 209.349 Q519.055 207.613 517.874 206.687 Q516.717 205.761 512.758 204.904 L511.277 204.557 Q507.319 203.724 505.559 202.011 Q503.8 200.275 503.8 197.266 Q503.8 193.608 506.393 191.618 Q508.985 189.627 513.754 189.627 Q516.115 189.627 518.198 189.974 Q520.281 190.321 522.041 191.016 Z" fill="#000000" fill-rule="nonzero" fill-opacity="1" /><path clip-path="url(#clip770)" d="M534.425 182.891 L534.425 190.252 L543.198 190.252 L543.198 193.562 L534.425 193.562 L534.425 207.636 Q534.425 210.807 535.281 211.71 Q536.161 212.613 538.823 212.613 L543.198 212.613 L543.198 216.178 L538.823 216.178 Q533.892 216.178 532.017 214.349 Q530.142 212.497 530.142 207.636 L530.142 193.562 L527.017 193.562 L527.017 190.252 L530.142 190.252 L530.142 182.891 L534.425 182.891 Z" fill="#000000" fill-rule="nonzero" fill-opacity="1" /><path clip-path="url(#clip770)" d="M560.582 203.145 Q555.42 203.145 553.429 204.326 Q551.439 205.506 551.439 208.354 Q551.439 210.622 552.92 211.965 Q554.425 213.284 556.994 213.284 Q560.536 213.284 562.665 210.784 Q564.818 208.261 564.818 204.094 L564.818 203.145 L560.582 203.145 M569.077 201.386 L569.077 216.178 L564.818 216.178 L564.818 212.242 Q563.36 214.603 561.184 215.738 Q559.008 216.849 555.86 216.849 Q551.878 216.849 549.517 214.627 Q547.179 212.381 547.179 208.631 Q547.179 204.256 550.096 202.034 Q553.036 199.812 558.846 199.812 L564.818 199.812 L564.818 199.395 Q564.818 196.455 562.874 194.858 Q560.952 193.238 557.457 193.238 Q555.235 193.238 553.128 193.77 Q551.022 194.303 549.078 195.367 L549.078 191.432 Q551.415 190.53 553.615 190.09 Q555.814 189.627 557.897 189.627 Q563.522 189.627 566.3 192.543 Q569.077 195.46 569.077 201.386 Z" fill="#000000" fill-rule="nonzero" fill-opacity="1" /><path clip-path="url(#clip770)" d="M596.508 191.247 L596.508 195.229 Q594.702 194.233 592.874 193.747 Q591.068 193.238 589.216 193.238 Q585.073 193.238 582.781 195.877 Q580.489 198.492 580.489 203.238 Q580.489 207.983 582.781 210.622 Q585.073 213.238 589.216 213.238 Q591.068 213.238 592.874 212.752 Q594.702 212.242 596.508 211.247 L596.508 215.182 Q594.725 216.016 592.804 216.432 Q590.906 216.849 588.753 216.849 Q582.897 216.849 579.448 213.168 Q575.999 209.488 575.999 203.238 Q575.999 196.895 579.471 193.261 Q582.966 189.627 589.031 189.627 Q590.999 189.627 592.874 190.043 Q594.749 190.437 596.508 191.247 Z" fill="#000000" fill-rule="nonzero" fill-opacity="1" /><path clip-path="url(#clip770)" d="M603.915 180.159 L608.174 180.159 L608.174 216.178 L603.915 216.178 L603.915 180.159 Z" fill="#000000" fill-rule="nonzero" fill-opacity="1" /><path clip-path="url(#clip770)" d="M639.262 202.15 L639.262 204.233 L619.679 204.233 Q619.957 208.631 622.318 210.946 Q624.702 213.238 628.938 213.238 Q631.392 213.238 633.684 212.636 Q635.998 212.034 638.267 210.83 L638.267 214.858 Q635.975 215.83 633.568 216.34 Q631.16 216.849 628.684 216.849 Q622.48 216.849 618.846 213.238 Q615.235 209.627 615.235 203.469 Q615.235 197.104 618.661 193.377 Q622.11 189.627 627.943 189.627 Q633.174 189.627 636.207 193.006 Q639.262 196.363 639.262 202.15 M635.003 200.9 Q634.957 197.405 633.035 195.321 Q631.137 193.238 627.989 193.238 Q624.424 193.238 622.272 195.252 Q620.142 197.266 619.818 200.923 L635.003 200.9 Z" fill="#000000" fill-rule="nonzero" fill-opacity="1" /><path clip-path="url(#clip770)" d="M662.781 191.016 L662.781 195.043 Q660.975 194.117 659.031 193.655 Q657.086 193.192 655.003 193.192 Q651.832 193.192 650.234 194.164 Q648.66 195.136 648.66 197.08 Q648.66 198.562 649.795 199.418 Q650.929 200.252 654.355 201.016 L655.813 201.34 Q660.35 202.312 662.248 204.094 Q664.17 205.854 664.17 209.025 Q664.17 212.636 661.299 214.742 Q658.452 216.849 653.452 216.849 Q651.369 216.849 649.1 216.432 Q646.855 216.039 644.355 215.228 L644.355 210.83 Q646.716 212.057 649.008 212.682 Q651.299 213.284 653.545 213.284 Q656.554 213.284 658.174 212.266 Q659.795 211.224 659.795 209.349 Q659.795 207.613 658.614 206.687 Q657.457 205.761 653.498 204.904 L652.017 204.557 Q648.058 203.724 646.299 202.011 Q644.54 200.275 644.54 197.266 Q644.54 193.608 647.133 191.618 Q649.725 189.627 654.494 189.627 Q656.855 189.627 658.938 189.974 Q661.021 190.321 662.781 191.016 Z" fill="#000000" fill-rule="nonzero" fill-opacity="1" /></svg>
