<?xml version="1.0" encoding="utf-8"?>
<svg xmlns="http://www.w3.org/2000/svg" xmlns:xlink="http://www.w3.org/1999/xlink" width="600" height="400" viewBox="0 0 2400 1600">
<defs>
  <clipPath id="clip640">
    <rect x="0" y="0" width="2400" height="1600"/>
  </clipPath>
</defs>
<path clip-path="url(#clip640)" d="M0 1600 L2400 1600 L2400 8.88178e-14 L0 8.88178e-14  Z" fill="#ffffff" fill-rule="evenodd" fill-opacity="1"/>
<defs>
  <clipPath id="clip641">
    <rect x="480" y="0" width="1681" height="1600"/>
  </clipPath>
</defs>
<path clip-path="url(#clip640)" d="M170.857 1486.45 L2352.76 1486.45 L2352.76 47.2441 L170.857 47.2441  Z" fill="#ffffff" fill-rule="evenodd" fill-opacity="1"/>
<defs>
  <clipPath id="clip642">
    <rect x="170" y="47" width="2183" height="1440"/>
  </clipPath>
</defs>
<polyline clip-path="url(#clip642)" style="stroke:#000000; stroke-linecap:round; stroke-linejoin:round; stroke-width:2; stroke-opacity:0.1; fill:none" points="233.433,1486.45 233.433,47.2441 "/>
<polyline clip-path="url(#clip642)" style="stroke:#000000; stroke-linecap:round; stroke-linejoin:round; stroke-width:2; stroke-opacity:0.1; fill:none" points="718.428,1486.45 718.428,47.2441 "/>
<polyline clip-path="url(#clip642)" style="stroke:#000000; stroke-linecap:round; stroke-linejoin:round; stroke-width:2; stroke-opacity:0.1; fill:none" points="1203.42,1486.45 1203.42,47.2441 "/>
<polyline clip-path="url(#clip642)" style="stroke:#000000; stroke-linecap:round; stroke-linejoin:round; stroke-width:2; stroke-opacity:0.1; fill:none" points="1688.42,1486.45 1688.42,47.2441 "/>
<polyline clip-path="url(#clip642)" style="stroke:#000000; stroke-linecap:round; stroke-linejoin:round; stroke-width:2; stroke-opacity:0.1; fill:none" points="2173.41,1486.45 2173.41,47.2441 "/>
<polyline clip-path="url(#clip642)" style="stroke:#000000; stroke-linecap:round; stroke-linejoin:round; stroke-width:2; stroke-opacity:0.1; fill:none" points="170.857,1458.68 2352.76,1458.68 "/>
<polyline clip-path="url(#clip642)" style="stroke:#000000; stroke-linecap:round; stroke-linejoin:round; stroke-width:2; stroke-opacity:0.1; fill:none" points="170.857,1160.21 2352.76,1160.21 "/>
<polyline clip-path="url(#clip642)" style="stroke:#000000; stroke-linecap:round; stroke-linejoin:round; stroke-width:2; stroke-opacity:0.1; fill:none" points="170.857,861.732 2352.76,861.732 "/>
<polyline clip-path="url(#clip642)" style="stroke:#000000; stroke-linecap:round; stroke-linejoin:round; stroke-width:2; stroke-opacity:0.1; fill:none" points="170.857,563.259 2352.76,563.259 "/>
<polyline clip-path="url(#clip642)" style="stroke:#000000; stroke-linecap:round; stroke-linejoin:round; stroke-width:2; stroke-opacity:0.1; fill:none" points="170.857,264.786 2352.76,264.786 "/>
<polyline clip-path="url(#clip640)" style="stroke:#000000; stroke-linecap:round; stroke-linejoin:round; stroke-width:4; stroke-opacity:1; fill:none" points="170.857,1486.45 2352.76,1486.45 "/>
<polyline clip-path="url(#clip640)" style="stroke:#000000; stroke-linecap:round; stroke-linejoin:round; stroke-width:4; stroke-opacity:1; fill:none" points="233.433,1486.45 233.433,1467.55 "/>
<polyline clip-path="url(#clip640)" style="stroke:#000000; stroke-linecap:round; stroke-linejoin:round; stroke-width:4; stroke-opacity:1; fill:none" points="718.428,1486.45 718.428,1467.55 "/>
<polyline clip-path="url(#clip640)" style="stroke:#000000; stroke-linecap:round; stroke-linejoin:round; stroke-width:4; stroke-opacity:1; fill:none" points="1203.42,1486.45 1203.42,1467.55 "/>
<polyline clip-path="url(#clip640)" style="stroke:#000000; stroke-linecap:round; stroke-linejoin:round; stroke-width:4; stroke-opacity:1; fill:none" points="1688.42,1486.45 1688.42,1467.55 "/>
<polyline clip-path="url(#clip640)" style="stroke:#000000; stroke-linecap:round; stroke-linejoin:round; stroke-width:4; stroke-opacity:1; fill:none" points="2173.41,1486.45 2173.41,1467.55 "/>
<path clip-path="url(#clip640)" d="M233.433 1517.37 Q229.822 1517.37 227.993 1520.93 Q226.188 1524.47 226.188 1531.6 Q226.188 1538.71 227.993 1542.27 Q229.822 1545.82 233.433 1545.82 Q237.067 1545.82 238.873 1542.27 Q240.702 1538.71 240.702 1531.6 Q240.702 1524.47 238.873 1520.93 Q237.067 1517.37 233.433 1517.37 M233.433 1513.66 Q239.243 1513.66 242.299 1518.27 Q245.377 1522.85 245.377 1531.6 Q245.377 1540.33 242.299 1544.94 Q239.243 1549.52 233.433 1549.52 Q227.623 1549.52 224.544 1544.94 Q221.489 1540.33 221.489 1531.6 Q221.489 1522.85 224.544 1518.27 Q227.623 1513.66 233.433 1513.66 Z" fill="#000000" fill-rule="nonzero" fill-opacity="1" /><path clip-path="url(#clip640)" d="M693.128 1514.29 L711.484 1514.29 L711.484 1518.22 L697.41 1518.22 L697.41 1526.7 Q698.429 1526.35 699.447 1526.19 Q700.466 1526 701.484 1526 Q707.271 1526 710.651 1529.17 Q714.03 1532.34 714.03 1537.76 Q714.03 1543.34 710.558 1546.44 Q707.086 1549.52 700.767 1549.52 Q698.591 1549.52 696.322 1549.15 Q694.077 1548.78 691.669 1548.04 L691.669 1543.34 Q693.753 1544.47 695.975 1545.03 Q698.197 1545.58 700.674 1545.58 Q704.679 1545.58 707.017 1543.48 Q709.354 1541.37 709.354 1537.76 Q709.354 1534.15 707.017 1532.04 Q704.679 1529.94 700.674 1529.94 Q698.799 1529.94 696.924 1530.35 Q695.072 1530.77 693.128 1531.65 L693.128 1514.29 Z" fill="#000000" fill-rule="nonzero" fill-opacity="1" /><path clip-path="url(#clip640)" d="M733.243 1517.37 Q729.632 1517.37 727.803 1520.93 Q725.998 1524.47 725.998 1531.6 Q725.998 1538.71 727.803 1542.27 Q729.632 1545.82 733.243 1545.82 Q736.877 1545.82 738.683 1542.27 Q740.512 1538.71 740.512 1531.6 Q740.512 1524.47 738.683 1520.93 Q736.877 1517.37 733.243 1517.37 M733.243 1513.66 Q739.053 1513.66 742.109 1518.27 Q745.188 1522.85 745.188 1531.6 Q745.188 1540.33 742.109 1544.94 Q739.053 1549.52 733.243 1549.52 Q727.433 1549.52 724.354 1544.94 Q721.299 1540.33 721.299 1531.6 Q721.299 1522.85 724.354 1518.27 Q727.433 1513.66 733.243 1513.66 Z" fill="#000000" fill-rule="nonzero" fill-opacity="1" /><path clip-path="url(#clip640)" d="M1163.03 1544.91 L1170.67 1544.91 L1170.67 1518.55 L1162.36 1520.21 L1162.36 1515.95 L1170.62 1514.29 L1175.3 1514.29 L1175.3 1544.91 L1182.94 1544.91 L1182.94 1548.85 L1163.03 1548.85 L1163.03 1544.91 Z" fill="#000000" fill-rule="nonzero" fill-opacity="1" /><path clip-path="url(#clip640)" d="M1202.38 1517.37 Q1198.77 1517.37 1196.94 1520.93 Q1195.14 1524.47 1195.14 1531.6 Q1195.14 1538.71 1196.94 1542.27 Q1198.77 1545.82 1202.38 1545.82 Q1206.02 1545.82 1207.82 1542.27 Q1209.65 1538.71 1209.65 1531.6 Q1209.65 1524.47 1207.82 1520.93 Q1206.02 1517.37 1202.38 1517.37 M1202.38 1513.66 Q1208.19 1513.66 1211.25 1518.27 Q1214.33 1522.85 1214.33 1531.6 Q1214.33 1540.33 1211.25 1544.94 Q1208.19 1549.52 1202.38 1549.52 Q1196.57 1549.52 1193.49 1544.94 Q1190.44 1540.33 1190.44 1531.6 Q1190.44 1522.85 1193.49 1518.27 Q1196.57 1513.66 1202.38 1513.66 Z" fill="#000000" fill-rule="nonzero" fill-opacity="1" /><path clip-path="url(#clip640)" d="M1232.54 1517.37 Q1228.93 1517.37 1227.1 1520.93 Q1225.3 1524.47 1225.3 1531.6 Q1225.3 1538.71 1227.1 1542.27 Q1228.93 1545.82 1232.54 1545.82 Q1236.18 1545.82 1237.98 1542.27 Q1239.81 1538.71 1239.81 1531.6 Q1239.81 1524.47 1237.98 1520.93 Q1236.18 1517.37 1232.54 1517.37 M1232.54 1513.66 Q1238.35 1513.66 1241.41 1518.27 Q1244.49 1522.85 1244.49 1531.6 Q1244.49 1540.33 1241.41 1544.94 Q1238.35 1549.52 1232.54 1549.52 Q1226.73 1549.52 1223.66 1544.94 Q1220.6 1540.33 1220.6 1531.6 Q1220.6 1522.85 1223.66 1518.27 Q1226.73 1513.66 1232.54 1513.66 Z" fill="#000000" fill-rule="nonzero" fill-opacity="1" /><path clip-path="url(#clip640)" d="M1648.03 1544.91 L1655.66 1544.91 L1655.66 1518.55 L1647.35 1520.21 L1647.35 1515.95 L1655.62 1514.29 L1660.29 1514.29 L1660.29 1544.91 L1667.93 1544.91 L1667.93 1548.85 L1648.03 1548.85 L1648.03 1544.91 Z" fill="#000000" fill-rule="nonzero" fill-opacity="1" /><path clip-path="url(#clip640)" d="M1677.42 1514.29 L1695.78 1514.29 L1695.78 1518.22 L1681.71 1518.22 L1681.71 1526.7 Q1682.72 1526.35 1683.74 1526.19 Q1684.76 1526 1685.78 1526 Q1691.57 1526 1694.95 1529.17 Q1698.33 1532.34 1698.33 1537.76 Q1698.33 1543.34 1694.85 1546.44 Q1691.38 1549.52 1685.06 1549.52 Q1682.89 1549.52 1680.62 1549.15 Q1678.37 1548.78 1675.97 1548.04 L1675.97 1543.34 Q1678.05 1544.47 1680.27 1545.03 Q1682.49 1545.58 1684.97 1545.58 Q1688.97 1545.58 1691.31 1543.48 Q1693.65 1541.37 1693.65 1537.76 Q1693.65 1534.15 1691.31 1532.04 Q1688.97 1529.94 1684.97 1529.94 Q1683.1 1529.94 1681.22 1530.35 Q1679.37 1530.77 1677.42 1531.65 L1677.42 1514.29 Z" fill="#000000" fill-rule="nonzero" fill-opacity="1" /><path clip-path="url(#clip640)" d="M1717.54 1517.37 Q1713.93 1517.37 1712.1 1520.93 Q1710.29 1524.47 1710.29 1531.6 Q1710.29 1538.71 1712.1 1542.27 Q1713.93 1545.82 1717.54 1545.82 Q1721.17 1545.82 1722.98 1542.27 Q1724.81 1538.71 1724.81 1531.6 Q1724.81 1524.47 1722.98 1520.93 Q1721.17 1517.37 1717.54 1517.37 M1717.54 1513.66 Q1723.35 1513.66 1726.41 1518.27 Q1729.48 1522.85 1729.48 1531.6 Q1729.48 1540.33 1726.41 1544.94 Q1723.35 1549.52 1717.54 1549.52 Q1711.73 1549.52 1708.65 1544.94 Q1705.6 1540.33 1705.6 1531.6 Q1705.6 1522.85 1708.65 1518.27 Q1711.73 1513.66 1717.54 1513.66 Z" fill="#000000" fill-rule="nonzero" fill-opacity="1" /><path clip-path="url(#clip640)" d="M2137.11 1544.91 L2153.43 1544.91 L2153.43 1548.85 L2131.48 1548.85 L2131.48 1544.91 Q2134.14 1542.16 2138.73 1537.53 Q2143.33 1532.88 2144.51 1531.53 Q2146.76 1529.01 2147.64 1527.27 Q2148.54 1525.51 2148.54 1523.82 Q2148.54 1521.07 2146.6 1519.33 Q2144.68 1517.6 2141.57 1517.6 Q2139.38 1517.6 2136.92 1518.36 Q2134.49 1519.13 2131.71 1520.68 L2131.71 1515.95 Q2134.54 1514.82 2136.99 1514.24 Q2139.45 1513.66 2141.48 1513.66 Q2146.85 1513.66 2150.05 1516.35 Q2153.24 1519.03 2153.24 1523.52 Q2153.24 1525.65 2152.43 1527.57 Q2151.64 1529.47 2149.54 1532.07 Q2148.96 1532.74 2145.86 1535.95 Q2142.76 1539.15 2137.11 1544.91 Z" fill="#000000" fill-rule="nonzero" fill-opacity="1" /><path clip-path="url(#clip640)" d="M2173.24 1517.37 Q2169.63 1517.37 2167.8 1520.93 Q2166 1524.47 2166 1531.6 Q2166 1538.71 2167.8 1542.27 Q2169.63 1545.82 2173.24 1545.82 Q2176.88 1545.82 2178.68 1542.27 Q2180.51 1538.71 2180.51 1531.6 Q2180.51 1524.47 2178.68 1520.93 Q2176.88 1517.37 2173.24 1517.37 M2173.24 1513.66 Q2179.05 1513.66 2182.11 1518.27 Q2185.19 1522.85 2185.19 1531.6 Q2185.19 1540.33 2182.11 1544.94 Q2179.05 1549.52 2173.24 1549.52 Q2167.43 1549.52 2164.35 1544.94 Q2161.3 1540.33 2161.3 1531.6 Q2161.3 1522.85 2164.35 1518.27 Q2167.43 1513.66 2173.24 1513.66 Z" fill="#000000" fill-rule="nonzero" fill-opacity="1" /><path clip-path="url(#clip640)" d="M2203.4 1517.37 Q2199.79 1517.37 2197.96 1520.93 Q2196.16 1524.47 2196.16 1531.6 Q2196.16 1538.71 2197.96 1542.27 Q2199.79 1545.82 2203.4 1545.82 Q2207.04 1545.82 2208.84 1542.27 Q2210.67 1538.71 2210.67 1531.6 Q2210.67 1524.47 2208.84 1520.93 Q2207.04 1517.37 2203.4 1517.37 M2203.4 1513.66 Q2209.21 1513.66 2212.27 1518.27 Q2215.35 1522.85 2215.35 1531.6 Q2215.35 1540.33 2212.27 1544.94 Q2209.21 1549.52 2203.4 1549.52 Q2197.59 1549.52 2194.51 1544.94 Q2191.46 1540.33 2191.46 1531.6 Q2191.46 1522.85 2194.51 1518.27 Q2197.59 1513.66 2203.4 1513.66 Z" fill="#000000" fill-rule="nonzero" fill-opacity="1" /><polyline clip-path="url(#clip640)" style="stroke:#000000; stroke-linecap:round; stroke-linejoin:round; stroke-width:4; stroke-opacity:1; fill:none" points="170.857,1486.45 170.857,47.2441 "/>
<polyline clip-path="url(#clip640)" style="stroke:#000000; stroke-linecap:round; stroke-linejoin:round; stroke-width:4; stroke-opacity:1; fill:none" points="170.857,1458.68 189.755,1458.68 "/>
<polyline clip-path="url(#clip640)" style="stroke:#000000; stroke-linecap:round; stroke-linejoin:round; stroke-width:4; stroke-opacity:1; fill:none" points="170.857,1160.21 189.755,1160.21 "/>
<polyline clip-path="url(#clip640)" style="stroke:#000000; stroke-linecap:round; stroke-linejoin:round; stroke-width:4; stroke-opacity:1; fill:none" points="170.857,861.732 189.755,861.732 "/>
<polyline clip-path="url(#clip640)" style="stroke:#000000; stroke-linecap:round; stroke-linejoin:round; stroke-width:4; stroke-opacity:1; fill:none" points="170.857,563.259 189.755,563.259 "/>
<polyline clip-path="url(#clip640)" style="stroke:#000000; stroke-linecap:round; stroke-linejoin:round; stroke-width:4; stroke-opacity:1; fill:none" points="170.857,264.786 189.755,264.786 "/>
<path clip-path="url(#clip640)" d="M122.913 1444.48 Q119.302 1444.48 117.473 1448.04 Q115.668 1451.58 115.668 1458.71 Q115.668 1465.82 117.473 1469.38 Q119.302 1472.93 122.913 1472.93 Q126.547 1472.93 128.353 1469.38 Q130.182 1465.82 130.182 1458.71 Q130.182 1451.58 128.353 1448.04 Q126.547 1444.48 122.913 1444.48 M122.913 1440.77 Q128.723 1440.77 131.779 1445.38 Q134.857 1449.96 134.857 1458.71 Q134.857 1467.44 131.779 1472.05 Q128.723 1476.63 122.913 1476.63 Q117.103 1476.63 114.024 1472.05 Q110.969 1467.44 110.969 1458.71 Q110.969 1449.96 114.024 1445.38 Q117.103 1440.77 122.913 1440.77 Z" fill="#000000" fill-rule="nonzero" fill-opacity="1" /><path clip-path="url(#clip640)" d="M82.7975 1142.93 L101.154 1142.93 L101.154 1146.86 L87.0799 1146.86 L87.0799 1155.33 Q88.0984 1154.99 89.1169 1154.82 Q90.1354 1154.64 91.1539 1154.64 Q96.941 1154.64 100.321 1157.81 Q103.7 1160.98 103.7 1166.4 Q103.7 1171.98 100.228 1175.08 Q96.7558 1178.16 90.4364 1178.16 Q88.2604 1178.16 85.9919 1177.79 Q83.7466 1177.42 81.3392 1176.68 L81.3392 1171.98 Q83.4225 1173.11 85.6447 1173.67 Q87.8669 1174.22 90.3438 1174.22 Q94.3484 1174.22 96.6863 1172.12 Q99.0243 1170.01 99.0243 1166.4 Q99.0243 1162.79 96.6863 1160.68 Q94.3484 1158.57 90.3438 1158.57 Q88.4688 1158.57 86.5938 1158.99 Q84.7419 1159.41 82.7975 1160.29 L82.7975 1142.93 Z" fill="#000000" fill-rule="nonzero" fill-opacity="1" /><path clip-path="url(#clip640)" d="M122.913 1146 Q119.302 1146 117.473 1149.57 Q115.668 1153.11 115.668 1160.24 Q115.668 1167.35 117.473 1170.91 Q119.302 1174.45 122.913 1174.45 Q126.547 1174.45 128.353 1170.91 Q130.182 1167.35 130.182 1160.24 Q130.182 1153.11 128.353 1149.57 Q126.547 1146 122.913 1146 M122.913 1142.3 Q128.723 1142.3 131.779 1146.91 Q134.857 1151.49 134.857 1160.24 Q134.857 1168.97 131.779 1173.57 Q128.723 1178.16 122.913 1178.16 Q117.103 1178.16 114.024 1173.57 Q110.969 1168.97 110.969 1160.24 Q110.969 1151.49 114.024 1146.91 Q117.103 1142.3 122.913 1142.3 Z" fill="#000000" fill-rule="nonzero" fill-opacity="1" /><path clip-path="url(#clip640)" d="M53.3995 875.077 L61.0384 875.077 L61.0384 848.711 L52.7282 850.378 L52.7282 846.119 L60.9921 844.452 L65.668 844.452 L65.668 875.077 L73.3068 875.077 L73.3068 879.012 L53.3995 879.012 L53.3995 875.077 Z" fill="#000000" fill-rule="nonzero" fill-opacity="1" /><path clip-path="url(#clip640)" d="M92.7512 847.531 Q89.1401 847.531 87.3114 851.096 Q85.5058 854.637 85.5058 861.767 Q85.5058 868.873 87.3114 872.438 Q89.1401 875.98 92.7512 875.98 Q96.3854 875.98 98.1909 872.438 Q100.02 868.873 100.02 861.767 Q100.02 854.637 98.1909 851.096 Q96.3854 847.531 92.7512 847.531 M92.7512 843.827 Q98.5613 843.827 101.617 848.434 Q104.696 853.017 104.696 861.767 Q104.696 870.494 101.617 875.1 Q98.5613 879.683 92.7512 879.683 Q86.941 879.683 83.8623 875.1 Q80.8068 870.494 80.8068 861.767 Q80.8068 853.017 83.8623 848.434 Q86.941 843.827 92.7512 843.827 Z" fill="#000000" fill-rule="nonzero" fill-opacity="1" /><path clip-path="url(#clip640)" d="M122.913 847.531 Q119.302 847.531 117.473 851.096 Q115.668 854.637 115.668 861.767 Q115.668 868.873 117.473 872.438 Q119.302 875.98 122.913 875.98 Q126.547 875.98 128.353 872.438 Q130.182 868.873 130.182 861.767 Q130.182 854.637 128.353 851.096 Q126.547 847.531 122.913 847.531 M122.913 843.827 Q128.723 843.827 131.779 848.434 Q134.857 853.017 134.857 861.767 Q134.857 870.494 131.779 875.1 Q128.723 879.683 122.913 879.683 Q117.103 879.683 114.024 875.1 Q110.969 870.494 110.969 861.767 Q110.969 853.017 114.024 848.434 Q117.103 843.827 122.913 843.827 Z" fill="#000000" fill-rule="nonzero" fill-opacity="1" /><path clip-path="url(#clip640)" d="M53.3995 576.604 L61.0384 576.604 L61.0384 550.238 L52.7282 551.905 L52.7282 547.646 L60.9921 545.979 L65.668 545.979 L65.668 576.604 L73.3068 576.604 L73.3068 580.539 L53.3995 580.539 L53.3995 576.604 Z" fill="#000000" fill-rule="nonzero" fill-opacity="1" /><path clip-path="url(#clip640)" d="M82.7975 545.979 L101.154 545.979 L101.154 549.914 L87.0799 549.914 L87.0799 558.386 Q88.0984 558.039 89.1169 557.877 Q90.1354 557.692 91.1539 557.692 Q96.941 557.692 100.321 560.863 Q103.7 564.034 103.7 569.451 Q103.7 575.03 100.228 578.131 Q96.7558 581.21 90.4364 581.21 Q88.2604 581.21 85.9919 580.84 Q83.7466 580.469 81.3392 579.729 L81.3392 575.03 Q83.4225 576.164 85.6447 576.719 Q87.8669 577.275 90.3438 577.275 Q94.3484 577.275 96.6863 575.169 Q99.0243 573.062 99.0243 569.451 Q99.0243 565.84 96.6863 563.733 Q94.3484 561.627 90.3438 561.627 Q88.4688 561.627 86.5938 562.044 Q84.7419 562.46 82.7975 563.34 L82.7975 545.979 Z" fill="#000000" fill-rule="nonzero" fill-opacity="1" /><path clip-path="url(#clip640)" d="M122.913 549.058 Q119.302 549.058 117.473 552.622 Q115.668 556.164 115.668 563.294 Q115.668 570.4 117.473 573.965 Q119.302 577.506 122.913 577.506 Q126.547 577.506 128.353 573.965 Q130.182 570.4 130.182 563.294 Q130.182 556.164 128.353 552.622 Q126.547 549.058 122.913 549.058 M122.913 545.354 Q128.723 545.354 131.779 549.96 Q134.857 554.544 134.857 563.294 Q134.857 572.02 131.779 576.627 Q128.723 581.21 122.913 581.21 Q117.103 581.21 114.024 576.627 Q110.969 572.02 110.969 563.294 Q110.969 554.544 114.024 549.96 Q117.103 545.354 122.913 545.354 Z" fill="#000000" fill-rule="nonzero" fill-opacity="1" /><path clip-path="url(#clip640)" d="M56.6171 278.13 L72.9365 278.13 L72.9365 282.066 L50.9921 282.066 L50.9921 278.13 Q53.6541 275.376 58.2375 270.746 Q62.8439 266.093 64.0245 264.751 Q66.2698 262.228 67.1494 260.492 Q68.0522 258.732 68.0522 257.043 Q68.0522 254.288 66.1078 252.552 Q64.1865 250.816 61.0847 250.816 Q58.8856 250.816 56.4319 251.58 Q54.0014 252.343 51.2236 253.894 L51.2236 249.172 Q54.0477 248.038 56.5014 247.459 Q58.955 246.881 60.9921 246.881 Q66.3624 246.881 69.5568 249.566 Q72.7513 252.251 72.7513 256.742 Q72.7513 258.871 71.9411 260.793 Q71.1541 262.691 69.0476 265.283 Q68.4689 265.955 65.367 269.172 Q62.2652 272.367 56.6171 278.13 Z" fill="#000000" fill-rule="nonzero" fill-opacity="1" /><path clip-path="url(#clip640)" d="M92.7512 250.584 Q89.1401 250.584 87.3114 254.149 Q85.5058 257.691 85.5058 264.82 Q85.5058 271.927 87.3114 275.492 Q89.1401 279.033 92.7512 279.033 Q96.3854 279.033 98.1909 275.492 Q100.02 271.927 100.02 264.82 Q100.02 257.691 98.1909 254.149 Q96.3854 250.584 92.7512 250.584 M92.7512 246.881 Q98.5613 246.881 101.617 251.487 Q104.696 256.07 104.696 264.82 Q104.696 273.547 101.617 278.154 Q98.5613 282.737 92.7512 282.737 Q86.941 282.737 83.8623 278.154 Q80.8068 273.547 80.8068 264.82 Q80.8068 256.07 83.8623 251.487 Q86.941 246.881 92.7512 246.881 Z" fill="#000000" fill-rule="nonzero" fill-opacity="1" /><path clip-path="url(#clip640)" d="M122.913 250.584 Q119.302 250.584 117.473 254.149 Q115.668 257.691 115.668 264.82 Q115.668 271.927 117.473 275.492 Q119.302 279.033 122.913 279.033 Q126.547 279.033 128.353 275.492 Q130.182 271.927 130.182 264.82 Q130.182 257.691 128.353 254.149 Q126.547 250.584 122.913 250.584 M122.913 246.881 Q128.723 246.881 131.779 251.487 Q134.857 256.07 134.857 264.82 Q134.857 273.547 131.779 278.154 Q128.723 282.737 122.913 282.737 Q117.103 282.737 114.024 278.154 Q110.969 273.547 110.969 264.82 Q110.969 256.07 114.024 251.487 Q117.103 246.881 122.913 246.881 Z" fill="#000000" fill-rule="nonzero" fill-opacity="1" /><polyline clip-path="url(#clip642)" style="stroke:#009af9; stroke-linecap:round; stroke-linejoin:round; stroke-width:4; stroke-opacity:1; fill:none" points="232.609,1445.72 249.807,1422.86 268.253,1422.82 296.08,1408.33 314.656,1389.65 328.998,1373.77 346.541,1372.26 364.725,1355.63 375.441,1341.61 398.934,1333.73 429.887,1327.24 434.377,1312.69 448.606,1296.11 462.364,1280.51 467.126,1267.64 486.233,1243.51 487.458,1232.31 505.384,1221.78 520.742,1206.9 539.594,1204.76 558.894,1192.7 585.553,1180.71 609.908,1178.98 614.202,1162.43 638.843,1140.27 654.223,1128.76 671.616,1111 696.535,1102.48 712.922,1100.31 725.664,1092.23 742.049,1072.1 761.779,1061.47 781.436,1054.31 792.103,1043.18 802.904,1029.25 816.625,1023.58 840.536,1018.95 860.735,1004.99 869.993,984.818 892.947,981.173 899.969,981.546 918.586,979.338 943.334,979.877 965.378,971.669 984.012,963.497 1000.84,943.51 1009.43,935.641 1033.36,908.23 1058.32,899.819 1083.58,882.246 1103.15,873.364 1124.16,859.906 1139.58,843.093 1153.66,840.134 1180.25,817.756 1175.3,804.305 1202.04,807.22 1217.59,783.829 1232.39,776.954 1255.81,768.435 1280.68,744.861 1301.73,739.485 1317.86,722.616 1347.36,718.248 1371.81,708.316 1391.45,694.427 1408.64,671.169 1414.67,656.776 1427.15,633.833 1451.57,619.371 1468.51,606.975 1512.54,596.166 1538.66,578.872 1540.41,576.567 1542.4,563.889 1569.08,550.848 1579.17,533.971 1591.01,519.901 1619.85,506.948 1640.63,483.871 1656.97,486.524 1675.83,471.389 1682.96,459.45 1715.46,447.94 1743.66,436.104 1764.72,420.163 1787.92,404.216 1811.74,389.024 1833.91,366.604 1868.08,345.321 1905.25,326.295 1920.18,314.77 1928,305.766 1943.23,301.71 1954.35,301.423 1965.84,285.435 1990.08,271.46 2000.07,270.266 2010.45,250.238 2035.06,234.194 "/>
<polyline clip-path="url(#clip642)" style="stroke:#e26f46; stroke-linecap:round; stroke-linejoin:round; stroke-width:4; stroke-opacity:1; fill:none" points="364.966,1377.38 551.389,1248.17 "/>
<polyline clip-path="url(#clip642)" style="stroke:#e26f46; stroke-linecap:round; stroke-linejoin:round; stroke-width:4; stroke-opacity:1; fill:none" points="551.389,1248.17 576.662,1245.22 "/>
<polyline clip-path="url(#clip642)" style="stroke:#e26f46; stroke-linecap:round; stroke-linejoin:round; stroke-width:4; stroke-opacity:1; fill:none" points="576.662,1245.22 603.244,1230.07 "/>
<polyline clip-path="url(#clip642)" style="stroke:#e26f46; stroke-linecap:round; stroke-linejoin:round; stroke-width:4; stroke-opacity:1; fill:none" points="603.244,1230.07 616.581,1211.05 "/>
<polyline clip-path="url(#clip642)" style="stroke:#e26f46; stroke-linecap:round; stroke-linejoin:round; stroke-width:4; stroke-opacity:1; fill:none" points="616.581,1211.05 633.719,1196.87 "/>
<polyline clip-path="url(#clip642)" style="stroke:#e26f46; stroke-linecap:round; stroke-linejoin:round; stroke-width:4; stroke-opacity:1; fill:none" points="633.719,1196.87 650.971,1196.04 "/>
<polyline clip-path="url(#clip642)" style="stroke:#e26f46; stroke-linecap:round; stroke-linejoin:round; stroke-width:4; stroke-opacity:1; fill:none" points="650.971,1196.04 668.619,1181.23 "/>
<polyline clip-path="url(#clip642)" style="stroke:#e26f46; stroke-linecap:round; stroke-linejoin:round; stroke-width:4; stroke-opacity:1; fill:none" points="668.619,1181.23 678.317,1167.49 "/>
<polyline clip-path="url(#clip642)" style="stroke:#e26f46; stroke-linecap:round; stroke-linejoin:round; stroke-width:4; stroke-opacity:1; fill:none" points="678.317,1167.49 703.101,1156.81 "/>
<polyline clip-path="url(#clip642)" style="stroke:#e26f46; stroke-linecap:round; stroke-linejoin:round; stroke-width:4; stroke-opacity:1; fill:none" points="703.101,1156.81 732.724,1152.07 "/>
<polyline clip-path="url(#clip642)" style="stroke:#e26f46; stroke-linecap:round; stroke-linejoin:round; stroke-width:4; stroke-opacity:1; fill:none" points="732.724,1152.07 739.474,1138.67 "/>
<polyline clip-path="url(#clip642)" style="stroke:#e26f46; stroke-linecap:round; stroke-linejoin:round; stroke-width:4; stroke-opacity:0.99; fill:none" points="739.474,1138.67 747.606,1121.91 "/>
<polyline clip-path="url(#clip642)" style="stroke:#e26f46; stroke-linecap:round; stroke-linejoin:round; stroke-width:4; stroke-opacity:0.98; fill:none" points="747.606,1121.91 764.499,1107.52 "/>
<polyline clip-path="url(#clip642)" style="stroke:#e26f46; stroke-linecap:round; stroke-linejoin:round; stroke-width:4; stroke-opacity:0.97; fill:none" points="764.499,1107.52 767.621,1093.69 "/>
<polyline clip-path="url(#clip642)" style="stroke:#e26f46; stroke-linecap:round; stroke-linejoin:round; stroke-width:4; stroke-opacity:0.96; fill:none" points="767.621,1093.69 785.746,1071.08 "/>
<polyline clip-path="url(#clip642)" style="stroke:#e26f46; stroke-linecap:round; stroke-linejoin:round; stroke-width:4; stroke-opacity:0.95; fill:none" points="785.746,1071.08 781.929,1059.67 "/>
<polyline clip-path="url(#clip642)" style="stroke:#e26f46; stroke-linecap:round; stroke-linejoin:round; stroke-width:4; stroke-opacity:0.94; fill:none" points="781.929,1059.67 802.14,1048.48 "/>
<polyline clip-path="url(#clip642)" style="stroke:#e26f46; stroke-linecap:round; stroke-linejoin:round; stroke-width:4; stroke-opacity:0.93; fill:none" points="802.14,1048.48 816.793,1035.48 "/>
<polyline clip-path="url(#clip642)" style="stroke:#e26f46; stroke-linecap:round; stroke-linejoin:round; stroke-width:4; stroke-opacity:0.92; fill:none" points="816.793,1035.48 836.91,1032.41 "/>
<polyline clip-path="url(#clip642)" style="stroke:#e26f46; stroke-linecap:round; stroke-linejoin:round; stroke-width:4; stroke-opacity:0.91; fill:none" points="836.91,1032.41 854.976,1021.66 "/>
<polyline clip-path="url(#clip642)" style="stroke:#e26f46; stroke-linecap:round; stroke-linejoin:round; stroke-width:4; stroke-opacity:0.9; fill:none" points="854.976,1021.66 881.026,1009.89 "/>
<polyline clip-path="url(#clip642)" style="stroke:#e26f46; stroke-linecap:round; stroke-linejoin:round; stroke-width:4; stroke-opacity:0.89; fill:none" points="881.026,1009.89 905.149,1008.65 "/>
<polyline clip-path="url(#clip642)" style="stroke:#e26f46; stroke-linecap:round; stroke-linejoin:round; stroke-width:4; stroke-opacity:0.88; fill:none" points="905.149,1008.65 909.932,992.559 "/>
<polyline clip-path="url(#clip642)" style="stroke:#e26f46; stroke-linecap:round; stroke-linejoin:round; stroke-width:4; stroke-opacity:0.87; fill:none" points="909.932,992.559 932.832,971.263 "/>
<polyline clip-path="url(#clip642)" style="stroke:#e26f46; stroke-linecap:round; stroke-linejoin:round; stroke-width:4; stroke-opacity:0.86; fill:none" points="932.832,971.263 950.247,959.612 "/>
<polyline clip-path="url(#clip642)" style="stroke:#e26f46; stroke-linecap:round; stroke-linejoin:round; stroke-width:4; stroke-opacity:0.85; fill:none" points="950.247,959.612 967.688,941.693 "/>
<polyline clip-path="url(#clip642)" style="stroke:#e26f46; stroke-linecap:round; stroke-linejoin:round; stroke-width:4; stroke-opacity:0.84; fill:none" points="967.688,941.693 988.637,934.324 "/>
<polyline clip-path="url(#clip642)" style="stroke:#e26f46; stroke-linecap:round; stroke-linejoin:round; stroke-width:4; stroke-opacity:0.83; fill:none" points="988.637,934.324 1004.36,931.937 "/>
<polyline clip-path="url(#clip642)" style="stroke:#e26f46; stroke-linecap:round; stroke-linejoin:round; stroke-width:4; stroke-opacity:0.82; fill:none" points="1004.36,931.937 1019.72,922.304 "/>
<polyline clip-path="url(#clip642)" style="stroke:#e26f46; stroke-linecap:round; stroke-linejoin:round; stroke-width:4; stroke-opacity:0.81; fill:none" points="1019.72,922.304 1030.6,903.605 "/>
<polyline clip-path="url(#clip642)" style="stroke:#e26f46; stroke-linecap:round; stroke-linejoin:round; stroke-width:4; stroke-opacity:0.8; fill:none" points="1030.6,903.605 1055.28,894.319 "/>
<polyline clip-path="url(#clip642)" style="stroke:#e26f46; stroke-linecap:round; stroke-linejoin:round; stroke-width:4; stroke-opacity:0.79; fill:none" points="1055.28,894.319 1072.57,887.241 "/>
<polyline clip-path="url(#clip642)" style="stroke:#e26f46; stroke-linecap:round; stroke-linejoin:round; stroke-width:4; stroke-opacity:0.78; fill:none" points="1072.57,887.241 1081.15,877.198 "/>
<polyline clip-path="url(#clip642)" style="stroke:#e26f46; stroke-linecap:round; stroke-linejoin:round; stroke-width:4; stroke-opacity:0.77; fill:none" points="1081.15,877.198 1091.02,862.558 "/>
<polyline clip-path="url(#clip642)" style="stroke:#e26f46; stroke-linecap:round; stroke-linejoin:round; stroke-width:4; stroke-opacity:0.76; fill:none" points="1091.02,862.558 1106.55,857.148 "/>
<polyline clip-path="url(#clip642)" style="stroke:#e26f46; stroke-linecap:round; stroke-linejoin:round; stroke-width:4; stroke-opacity:0.75; fill:none" points="1106.55,857.148 1132.08,853.3 "/>
<polyline clip-path="url(#clip642)" style="stroke:#e26f46; stroke-linecap:round; stroke-linejoin:round; stroke-width:4; stroke-opacity:0.74; fill:none" points="1132.08,853.3 1150.93,840.059 "/>
<polyline clip-path="url(#clip642)" style="stroke:#e26f46; stroke-linecap:round; stroke-linejoin:round; stroke-width:4; stroke-opacity:0.73; fill:none" points="1150.93,840.059 1160.42,821.268 "/>
<polyline clip-path="url(#clip642)" style="stroke:#e26f46; stroke-linecap:round; stroke-linejoin:round; stroke-width:4; stroke-opacity:0.72; fill:none" points="1160.42,821.268 1180.57,815.659 "/>
<polyline clip-path="url(#clip642)" style="stroke:#e26f46; stroke-linecap:round; stroke-linejoin:round; stroke-width:4; stroke-opacity:0.71; fill:none" points="1180.57,815.659 1189.11,818.121 "/>
<polyline clip-path="url(#clip642)" style="stroke:#e26f46; stroke-linecap:round; stroke-linejoin:round; stroke-width:4; stroke-opacity:0.7; fill:none" points="1189.11,818.121 1204.32,813.731 "/>
<polyline clip-path="url(#clip642)" style="stroke:#e26f46; stroke-linecap:round; stroke-linejoin:round; stroke-width:4; stroke-opacity:0.69; fill:none" points="1204.32,813.731 1226.04,814.01 "/>
<polyline clip-path="url(#clip642)" style="stroke:#e26f46; stroke-linecap:round; stroke-linejoin:round; stroke-width:4; stroke-opacity:0.68; fill:none" points="1226.04,814.01 1252.04,808.52 "/>
<polyline clip-path="url(#clip642)" style="stroke:#e26f46; stroke-linecap:round; stroke-linejoin:round; stroke-width:4; stroke-opacity:0.67; fill:none" points="1252.04,808.52 1271.16,800.168 "/>
<polyline clip-path="url(#clip642)" style="stroke:#e26f46; stroke-linecap:round; stroke-linejoin:round; stroke-width:4; stroke-opacity:0.66; fill:none" points="1271.16,800.168 1287.59,779.76 "/>
<polyline clip-path="url(#clip642)" style="stroke:#e26f46; stroke-linecap:round; stroke-linejoin:round; stroke-width:4; stroke-opacity:0.65; fill:none" points="1287.59,779.76 1296.66,771.676 "/>
<polyline clip-path="url(#clip642)" style="stroke:#e26f46; stroke-linecap:round; stroke-linejoin:round; stroke-width:4; stroke-opacity:0.64; fill:none" points="1296.66,771.676 1318.7,747.148 "/>
<polyline clip-path="url(#clip642)" style="stroke:#e26f46; stroke-linecap:round; stroke-linejoin:round; stroke-width:4; stroke-opacity:0.63; fill:none" points="1318.7,747.148 1340.75,739.597 "/>
<polyline clip-path="url(#clip642)" style="stroke:#e26f46; stroke-linecap:round; stroke-linejoin:round; stroke-width:4; stroke-opacity:0.62; fill:none" points="1340.75,739.597 1368.2,719.899 "/>
<polyline clip-path="url(#clip642)" style="stroke:#e26f46; stroke-linecap:round; stroke-linejoin:round; stroke-width:4; stroke-opacity:0.61; fill:none" points="1368.2,719.899 1385.66,712.321 "/>
<polyline clip-path="url(#clip642)" style="stroke:#e26f46; stroke-linecap:round; stroke-linejoin:round; stroke-width:4; stroke-opacity:0.6; fill:none" points="1385.66,712.321 1407.98,697.423 "/>
<polyline clip-path="url(#clip642)" style="stroke:#e26f46; stroke-linecap:round; stroke-linejoin:round; stroke-width:4; stroke-opacity:0.59; fill:none" points="1407.98,697.423 1424.44,682.259 "/>
<polyline clip-path="url(#clip642)" style="stroke:#e26f46; stroke-linecap:round; stroke-linejoin:round; stroke-width:4; stroke-opacity:0.58; fill:none" points="1424.44,682.259 1438.3,678.996 "/>
<polyline clip-path="url(#clip642)" style="stroke:#e26f46; stroke-linecap:round; stroke-linejoin:round; stroke-width:4; stroke-opacity:0.57; fill:none" points="1438.3,678.996 1464.92,658.216 "/>
<polyline clip-path="url(#clip642)" style="stroke:#e26f46; stroke-linecap:round; stroke-linejoin:round; stroke-width:4; stroke-opacity:0.56; fill:none" points="1464.92,658.216 1459.72,644.356 "/>
<polyline clip-path="url(#clip642)" style="stroke:#e26f46; stroke-linecap:round; stroke-linejoin:round; stroke-width:4; stroke-opacity:0.55; fill:none" points="1459.72,644.356 1482.1,649.308 "/>
<polyline clip-path="url(#clip642)" style="stroke:#e26f46; stroke-linecap:round; stroke-linejoin:round; stroke-width:4; stroke-opacity:0.54; fill:none" points="1482.1,649.308 1498.99,626.305 "/>
<polyline clip-path="url(#clip642)" style="stroke:#e26f46; stroke-linecap:round; stroke-linejoin:round; stroke-width:4; stroke-opacity:0.53; fill:none" points="1498.99,626.305 1512.88,619.154 "/>
<polyline clip-path="url(#clip642)" style="stroke:#e26f46; stroke-linecap:round; stroke-linejoin:round; stroke-width:4; stroke-opacity:0.52; fill:none" points="1512.88,619.154 1535.42,609.266 "/>
<polyline clip-path="url(#clip642)" style="stroke:#e26f46; stroke-linecap:round; stroke-linejoin:round; stroke-width:4; stroke-opacity:0.51; fill:none" points="1535.42,609.266 1553.23,586.803 "/>
<polyline clip-path="url(#clip642)" style="stroke:#e26f46; stroke-linecap:round; stroke-linejoin:round; stroke-width:4; stroke-opacity:0.5; fill:none" points="1553.23,586.803 1581.92,579.117 "/>
<polyline clip-path="url(#clip642)" style="stroke:#e26f46; stroke-linecap:round; stroke-linejoin:round; stroke-width:4; stroke-opacity:0.49; fill:none" points="1581.92,579.117 1593.61,562.937 "/>
<polyline clip-path="url(#clip642)" style="stroke:#e26f46; stroke-linecap:round; stroke-linejoin:round; stroke-width:4; stroke-opacity:0.48; fill:none" points="1593.61,562.937 1623.84,562.694 "/>
<polyline clip-path="url(#clip642)" style="stroke:#e26f46; stroke-linecap:round; stroke-linejoin:round; stroke-width:4; stroke-opacity:0.47; fill:none" points="1623.84,562.694 1645.52,550.471 "/>
<polyline clip-path="url(#clip642)" style="stroke:#e26f46; stroke-linecap:round; stroke-linejoin:round; stroke-width:4; stroke-opacity:0.46; fill:none" points="1645.52,550.471 1667.76,538.768 "/>
<polyline clip-path="url(#clip642)" style="stroke:#e26f46; stroke-linecap:round; stroke-linejoin:round; stroke-width:4; stroke-opacity:0.45; fill:none" points="1667.76,538.768 1681.65,511.972 "/>
<polyline clip-path="url(#clip642)" style="stroke:#e26f46; stroke-linecap:round; stroke-linejoin:round; stroke-width:4; stroke-opacity:0.44; fill:none" points="1681.65,511.972 1689.79,502.058 "/>
<polyline clip-path="url(#clip642)" style="stroke:#e26f46; stroke-linecap:round; stroke-linejoin:round; stroke-width:4; stroke-opacity:0.43; fill:none" points="1689.79,502.058 1702.86,477.89 "/>
<polyline clip-path="url(#clip642)" style="stroke:#e26f46; stroke-linecap:round; stroke-linejoin:round; stroke-width:4; stroke-opacity:0.42; fill:none" points="1702.86,477.89 1724.14,462.636 "/>
<polyline clip-path="url(#clip642)" style="stroke:#e26f46; stroke-linecap:round; stroke-linejoin:round; stroke-width:4; stroke-opacity:0.41; fill:none" points="1724.14,462.636 1743.45,452.675 "/>
<polyline clip-path="url(#clip642)" style="stroke:#e26f46; stroke-linecap:round; stroke-linejoin:round; stroke-width:4; stroke-opacity:0.4; fill:none" points="1743.45,452.675 1786.25,443.255 "/>
<polyline clip-path="url(#clip642)" style="stroke:#e26f46; stroke-linecap:round; stroke-linejoin:round; stroke-width:4; stroke-opacity:0.39; fill:none" points="1786.25,443.255 1809.73,426.435 "/>
<polyline clip-path="url(#clip642)" style="stroke:#e26f46; stroke-linecap:round; stroke-linejoin:round; stroke-width:4; stroke-opacity:0.38; fill:none" points="1809.73,426.435 1813.82,422.051 "/>
<polyline clip-path="url(#clip642)" style="stroke:#e26f46; stroke-linecap:round; stroke-linejoin:round; stroke-width:4; stroke-opacity:0.37; fill:none" points="1813.82,422.051 1816.28,410.161 "/>
<polyline clip-path="url(#clip642)" style="stroke:#e26f46; stroke-linecap:round; stroke-linejoin:round; stroke-width:4; stroke-opacity:0.36; fill:none" points="1816.28,410.161 1839.56,397.339 "/>
<polyline clip-path="url(#clip642)" style="stroke:#e26f46; stroke-linecap:round; stroke-linejoin:round; stroke-width:4; stroke-opacity:0.35; fill:none" points="1839.56,397.339 1852.42,378.314 "/>
<polyline clip-path="url(#clip642)" style="stroke:#e26f46; stroke-linecap:round; stroke-linejoin:round; stroke-width:4; stroke-opacity:0.34; fill:none" points="1852.42,378.314 1858.48,367.081 "/>
<polyline clip-path="url(#clip642)" style="stroke:#e26f46; stroke-linecap:round; stroke-linejoin:round; stroke-width:4; stroke-opacity:0.33; fill:none" points="1858.48,367.081 1888.75,353.949 "/>
<polyline clip-path="url(#clip642)" style="stroke:#e26f46; stroke-linecap:round; stroke-linejoin:round; stroke-width:4; stroke-opacity:0.32; fill:none" points="1888.75,353.949 1906.66,331.489 "/>
<polyline clip-path="url(#clip642)" style="stroke:#e26f46; stroke-linecap:round; stroke-linejoin:round; stroke-width:4; stroke-opacity:0.31; fill:none" points="1906.66,331.489 1925.82,335.26 "/>
<polyline clip-path="url(#clip642)" style="stroke:#e26f46; stroke-linecap:round; stroke-linejoin:round; stroke-width:4; stroke-opacity:0.3; fill:none" points="1925.82,335.26 1942.51,319.443 "/>
<polyline clip-path="url(#clip642)" style="stroke:#e26f46; stroke-linecap:round; stroke-linejoin:round; stroke-width:4; stroke-opacity:0.29; fill:none" points="1942.51,319.443 1949.99,308.414 "/>
<polyline clip-path="url(#clip642)" style="stroke:#e26f46; stroke-linecap:round; stroke-linejoin:round; stroke-width:4; stroke-opacity:0.28; fill:none" points="1949.99,308.414 1981.95,296.426 "/>
<polyline clip-path="url(#clip642)" style="stroke:#e26f46; stroke-linecap:round; stroke-linejoin:round; stroke-width:4; stroke-opacity:0.27; fill:none" points="1981.95,296.426 2010.85,284.154 "/>
<polyline clip-path="url(#clip642)" style="stroke:#e26f46; stroke-linecap:round; stroke-linejoin:round; stroke-width:4; stroke-opacity:0.26; fill:none" points="2010.85,284.154 2031.02,268.212 "/>
<polyline clip-path="url(#clip642)" style="stroke:#e26f46; stroke-linecap:round; stroke-linejoin:round; stroke-width:4; stroke-opacity:0.25; fill:none" points="2031.02,268.212 2055.43,254.442 "/>
<polyline clip-path="url(#clip642)" style="stroke:#e26f46; stroke-linecap:round; stroke-linejoin:round; stroke-width:4; stroke-opacity:0.24; fill:none" points="2055.43,254.442 2074.78,238.908 "/>
<polyline clip-path="url(#clip642)" style="stroke:#e26f46; stroke-linecap:round; stroke-linejoin:round; stroke-width:4; stroke-opacity:0.23; fill:none" points="2074.78,238.908 2095.6,216.666 "/>
<polyline clip-path="url(#clip642)" style="stroke:#e26f46; stroke-linecap:round; stroke-linejoin:round; stroke-width:4; stroke-opacity:0.22; fill:none" points="2095.6,216.666 2130.09,196.755 "/>
<polyline clip-path="url(#clip642)" style="stroke:#e26f46; stroke-linecap:round; stroke-linejoin:round; stroke-width:4; stroke-opacity:0.21; fill:none" points="2130.09,196.755 2168.36,178.082 "/>
<polyline clip-path="url(#clip642)" style="stroke:#e26f46; stroke-linecap:round; stroke-linejoin:round; stroke-width:4; stroke-opacity:0.2; fill:none" points="2168.36,178.082 2183.62,165.921 "/>
<polyline clip-path="url(#clip642)" style="stroke:#e26f46; stroke-linecap:round; stroke-linejoin:round; stroke-width:4; stroke-opacity:0.19; fill:none" points="2183.62,165.921 2190.11,158.89 "/>
<polyline clip-path="url(#clip642)" style="stroke:#e26f46; stroke-linecap:round; stroke-linejoin:round; stroke-width:4; stroke-opacity:0.18; fill:none" points="2190.11,158.89 2207.43,152.995 "/>
<polyline clip-path="url(#clip642)" style="stroke:#e26f46; stroke-linecap:round; stroke-linejoin:round; stroke-width:4; stroke-opacity:0.17; fill:none" points="2207.43,152.995 2216.16,153.828 "/>
<polyline clip-path="url(#clip642)" style="stroke:#e26f46; stroke-linecap:round; stroke-linejoin:round; stroke-width:4; stroke-opacity:0.16; fill:none" points="2216.16,153.828 2227.64,137.394 "/>
<polyline clip-path="url(#clip642)" style="stroke:#e26f46; stroke-linecap:round; stroke-linejoin:round; stroke-width:4; stroke-opacity:0.15; fill:none" points="2227.64,137.394 2250.53,124.995 "/>
<polyline clip-path="url(#clip642)" style="stroke:#e26f46; stroke-linecap:round; stroke-linejoin:round; stroke-width:4; stroke-opacity:0.14; fill:none" points="2250.53,124.995 2260.87,122.156 "/>
<polyline clip-path="url(#clip642)" style="stroke:#e26f46; stroke-linecap:round; stroke-linejoin:round; stroke-width:4; stroke-opacity:0.13; fill:none" points="2260.87,122.156 2268.99,101.786 "/>
<polyline clip-path="url(#clip642)" style="stroke:#e26f46; stroke-linecap:round; stroke-linejoin:round; stroke-width:4; stroke-opacity:0.12; fill:none" points="2268.99,101.786 2291,87.9763 "/>
<path clip-path="url(#clip640)" d="M243.587 250.738 L717.702 250.738 L717.702 95.2176 L243.587 95.2176  Z" fill="#ffffff" fill-rule="evenodd" fill-opacity="1"/>
<polyline clip-path="url(#clip640)" style="stroke:#000000; stroke-linecap:round; stroke-linejoin:round; stroke-width:4; stroke-opacity:1; fill:none" points="243.587,250.738 717.702,250.738 717.702,95.2176 243.587,95.2176 243.587,250.738 "/>
<polyline clip-path="url(#clip640)" style="stroke:#009af9; stroke-linecap:round; stroke-linejoin:round; stroke-width:4; stroke-opacity:1; fill:none" points="267.831,147.058 413.291,147.058 "/>
<path clip-path="url(#clip640)" d="M452.719 142.393 Q452.001 141.977 451.145 141.791 Q450.312 141.583 449.293 141.583 Q445.682 141.583 443.738 143.944 Q441.816 146.282 441.816 150.68 L441.816 164.338 L437.534 164.338 L437.534 138.412 L441.816 138.412 L441.816 142.44 Q443.159 140.078 445.312 138.944 Q447.464 137.787 450.543 137.787 Q450.983 137.787 451.515 137.856 Q452.048 137.903 452.696 138.018 L452.719 142.393 Z" fill="#000000" fill-rule="nonzero" fill-opacity="1" /><path clip-path="url(#clip640)" d="M466.191 141.398 Q462.765 141.398 460.775 144.083 Q458.784 146.745 458.784 151.398 Q458.784 156.051 460.751 158.736 Q462.742 161.398 466.191 161.398 Q469.594 161.398 471.585 158.713 Q473.575 156.027 473.575 151.398 Q473.575 146.791 471.585 144.106 Q469.594 141.398 466.191 141.398 M466.191 137.787 Q471.747 137.787 474.918 141.398 Q478.089 145.009 478.089 151.398 Q478.089 157.764 474.918 161.398 Q471.747 165.009 466.191 165.009 Q460.612 165.009 457.441 161.398 Q454.293 157.764 454.293 151.398 Q454.293 145.009 457.441 141.398 Q460.612 137.787 466.191 137.787 Z" fill="#000000" fill-rule="nonzero" fill-opacity="1" /><path clip-path="url(#clip640)" d="M503.76 151.398 Q503.76 146.699 501.816 144.037 Q499.895 141.352 496.515 141.352 Q493.135 141.352 491.191 144.037 Q489.27 146.699 489.27 151.398 Q489.27 156.097 491.191 158.782 Q493.135 161.444 496.515 161.444 Q499.895 161.444 501.816 158.782 Q503.76 156.097 503.76 151.398 M489.27 142.347 Q490.612 140.032 492.649 138.921 Q494.71 137.787 497.557 137.787 Q502.279 137.787 505.219 141.537 Q508.182 145.287 508.182 151.398 Q508.182 157.509 505.219 161.259 Q502.279 165.009 497.557 165.009 Q494.71 165.009 492.649 163.898 Q490.612 162.763 489.27 160.449 L489.27 164.338 L484.987 164.338 L484.987 128.319 L489.27 128.319 L489.27 142.347 Z" fill="#000000" fill-rule="nonzero" fill-opacity="1" /><path clip-path="url(#clip640)" d="M525.288 141.398 Q521.862 141.398 519.871 144.083 Q517.881 146.745 517.881 151.398 Q517.881 156.051 519.848 158.736 Q521.839 161.398 525.288 161.398 Q528.691 161.398 530.682 158.713 Q532.672 156.027 532.672 151.398 Q532.672 146.791 530.682 144.106 Q528.691 141.398 525.288 141.398 M525.288 137.787 Q530.844 137.787 534.015 141.398 Q537.186 145.009 537.186 151.398 Q537.186 157.764 534.015 161.398 Q530.844 165.009 525.288 165.009 Q519.709 165.009 516.538 161.398 Q513.39 157.764 513.39 151.398 Q513.39 145.009 516.538 141.398 Q519.709 137.787 525.288 137.787 Z" fill="#000000" fill-rule="nonzero" fill-opacity="1" /><path clip-path="url(#clip640)" d="M548.459 131.051 L548.459 138.412 L557.232 138.412 L557.232 141.722 L548.459 141.722 L548.459 155.796 Q548.459 158.967 549.316 159.87 Q550.195 160.773 552.857 160.773 L557.232 160.773 L557.232 164.338 L552.857 164.338 Q547.927 164.338 546.052 162.509 Q544.177 160.657 544.177 155.796 L544.177 141.722 L541.052 141.722 L541.052 138.412 L544.177 138.412 L544.177 131.051 L548.459 131.051 Z" fill="#000000" fill-rule="nonzero" fill-opacity="1" /><path clip-path="url(#clip640)" d="M582.024 160.449 L582.024 174.199 L577.741 174.199 L577.741 138.412 L582.024 138.412 L582.024 142.347 Q583.366 140.032 585.403 138.921 Q587.464 137.787 590.311 137.787 Q595.033 137.787 597.973 141.537 Q600.936 145.287 600.936 151.398 Q600.936 157.509 597.973 161.259 Q595.033 165.009 590.311 165.009 Q587.464 165.009 585.403 163.898 Q583.366 162.763 582.024 160.449 M596.515 151.398 Q596.515 146.699 594.57 144.037 Q592.649 141.352 589.269 141.352 Q585.89 141.352 583.945 144.037 Q582.024 146.699 582.024 151.398 Q582.024 156.097 583.945 158.782 Q585.89 161.444 589.269 161.444 Q592.649 161.444 594.57 158.782 Q596.515 156.097 596.515 151.398 Z" fill="#000000" fill-rule="nonzero" fill-opacity="1" /><path clip-path="url(#clip640)" d="M619.778 151.305 Q614.616 151.305 612.626 152.486 Q610.635 153.666 610.635 156.514 Q610.635 158.782 612.116 160.125 Q613.621 161.444 616.19 161.444 Q619.732 161.444 621.862 158.944 Q624.014 156.421 624.014 152.254 L624.014 151.305 L619.778 151.305 M628.274 149.546 L628.274 164.338 L624.014 164.338 L624.014 160.402 Q622.556 162.763 620.38 163.898 Q618.204 165.009 615.056 165.009 Q611.075 165.009 608.714 162.787 Q606.376 160.541 606.376 156.791 Q606.376 152.416 609.292 150.194 Q612.232 147.972 618.042 147.972 L624.014 147.972 L624.014 147.555 Q624.014 144.615 622.07 143.018 Q620.149 141.398 616.653 141.398 Q614.431 141.398 612.325 141.93 Q610.218 142.463 608.274 143.527 L608.274 139.592 Q610.612 138.69 612.811 138.25 Q615.01 137.787 617.093 137.787 Q622.718 137.787 625.496 140.703 Q628.274 143.62 628.274 149.546 Z" fill="#000000" fill-rule="nonzero" fill-opacity="1" /><path clip-path="url(#clip640)" d="M641.26 131.051 L641.26 138.412 L650.033 138.412 L650.033 141.722 L641.26 141.722 L641.26 155.796 Q641.26 158.967 642.116 159.87 Q642.996 160.773 645.658 160.773 L650.033 160.773 L650.033 164.338 L645.658 164.338 Q640.727 164.338 638.852 162.509 Q636.977 160.657 636.977 155.796 L636.977 141.722 L633.852 141.722 L633.852 138.412 L636.977 138.412 L636.977 131.051 L641.26 131.051 Z" fill="#000000" fill-rule="nonzero" fill-opacity="1" /><path clip-path="url(#clip640)" d="M677.185 148.689 L677.185 164.338 L672.926 164.338 L672.926 148.828 Q672.926 145.148 671.491 143.319 Q670.056 141.49 667.185 141.49 Q663.736 141.49 661.746 143.69 Q659.755 145.889 659.755 149.685 L659.755 164.338 L655.473 164.338 L655.473 128.319 L659.755 128.319 L659.755 142.44 Q661.283 140.102 663.343 138.944 Q665.426 137.787 668.135 137.787 Q672.602 137.787 674.894 140.565 Q677.185 143.319 677.185 148.689 Z" fill="#000000" fill-rule="nonzero" fill-opacity="1" /><polyline clip-path="url(#clip640)" style="stroke:#e26f46; stroke-linecap:round; stroke-linejoin:round; stroke-width:4; stroke-opacity:1; fill:none" points="267.831,198.898 413.291,198.898 "/>
<path clip-path="url(#clip640)" d="M441.816 212.289 L441.816 226.039 L437.534 226.039 L437.534 190.252 L441.816 190.252 L441.816 194.187 Q443.159 191.872 445.196 190.761 Q447.256 189.627 450.103 189.627 Q454.825 189.627 457.765 193.377 Q460.728 197.127 460.728 203.238 Q460.728 209.349 457.765 213.099 Q454.825 216.849 450.103 216.849 Q447.256 216.849 445.196 215.738 Q443.159 214.603 441.816 212.289 M456.307 203.238 Q456.307 198.539 454.363 195.877 Q452.441 193.192 449.062 193.192 Q445.682 193.192 443.738 195.877 Q441.816 198.539 441.816 203.238 Q441.816 207.937 443.738 210.622 Q445.682 213.284 449.062 213.284 Q452.441 213.284 454.363 210.622 Q456.307 207.937 456.307 203.238 Z" fill="#000000" fill-rule="nonzero" fill-opacity="1" /><path clip-path="url(#clip640)" d="M482.811 194.233 Q482.094 193.817 481.237 193.631 Q480.404 193.423 479.386 193.423 Q475.774 193.423 473.83 195.784 Q471.909 198.122 471.909 202.52 L471.909 216.178 L467.626 216.178 L467.626 190.252 L471.909 190.252 L471.909 194.28 Q473.251 191.918 475.404 190.784 Q477.557 189.627 480.636 189.627 Q481.075 189.627 481.608 189.696 Q482.14 189.743 482.788 189.858 L482.811 194.233 Z" fill="#000000" fill-rule="nonzero" fill-opacity="1" /><path clip-path="url(#clip640)" d="M508.413 202.15 L508.413 204.233 L488.83 204.233 Q489.108 208.631 491.469 210.946 Q493.853 213.238 498.089 213.238 Q500.543 213.238 502.834 212.636 Q505.149 212.034 507.418 210.83 L507.418 214.858 Q505.126 215.83 502.719 216.34 Q500.311 216.849 497.835 216.849 Q491.631 216.849 487.997 213.238 Q484.386 209.627 484.386 203.469 Q484.386 197.104 487.811 193.377 Q491.26 189.627 497.094 189.627 Q502.325 189.627 505.358 193.006 Q508.413 196.363 508.413 202.15 M504.154 200.9 Q504.108 197.405 502.186 195.321 Q500.288 193.238 497.14 193.238 Q493.575 193.238 491.422 195.252 Q489.293 197.266 488.969 200.923 L504.154 200.9 Z" fill="#000000" fill-rule="nonzero" fill-opacity="1" /><path clip-path="url(#clip640)" d="M532.464 194.187 L532.464 180.159 L536.723 180.159 L536.723 216.178 L532.464 216.178 L532.464 212.289 Q531.121 214.603 529.061 215.738 Q527.024 216.849 524.154 216.849 Q519.455 216.849 516.492 213.099 Q513.552 209.349 513.552 203.238 Q513.552 197.127 516.492 193.377 Q519.455 189.627 524.154 189.627 Q527.024 189.627 529.061 190.761 Q531.121 191.872 532.464 194.187 M517.95 203.238 Q517.95 207.937 519.871 210.622 Q521.816 213.284 525.195 213.284 Q528.575 213.284 530.52 210.622 Q532.464 207.937 532.464 203.238 Q532.464 198.539 530.52 195.877 Q528.575 193.192 525.195 193.192 Q521.816 193.192 519.871 195.877 Q517.95 198.539 517.95 203.238 Z" fill="#000000" fill-rule="nonzero" fill-opacity="1" /><path clip-path="url(#clip640)" d="M545.496 190.252 L549.756 190.252 L549.756 216.178 L545.496 216.178 L545.496 190.252 M545.496 180.159 L549.756 180.159 L549.756 185.553 L545.496 185.553 L545.496 180.159 Z" fill="#000000" fill-rule="nonzero" fill-opacity="1" /><path clip-path="url(#clip640)" d="M577.325 191.247 L577.325 195.229 Q575.519 194.233 573.691 193.747 Q571.885 193.238 570.033 193.238 Q565.89 193.238 563.598 195.877 Q561.306 198.492 561.306 203.238 Q561.306 207.983 563.598 210.622 Q565.89 213.238 570.033 213.238 Q571.885 213.238 573.691 212.752 Q575.519 212.242 577.325 211.247 L577.325 215.182 Q575.542 216.016 573.621 216.432 Q571.723 216.849 569.57 216.849 Q563.714 216.849 560.265 213.168 Q556.816 209.488 556.816 203.238 Q556.816 196.895 560.288 193.261 Q563.783 189.627 569.848 189.627 Q571.816 189.627 573.691 190.043 Q575.566 190.437 577.325 191.247 Z" fill="#000000" fill-rule="nonzero" fill-opacity="1" /><path clip-path="url(#clip640)" d="M588.945 182.891 L588.945 190.252 L597.718 190.252 L597.718 193.562 L588.945 193.562 L588.945 207.636 Q588.945 210.807 589.802 211.71 Q590.681 212.613 593.343 212.613 L597.718 212.613 L597.718 216.178 L593.343 216.178 Q588.413 216.178 586.538 214.349 Q584.663 212.497 584.663 207.636 L584.663 193.562 L581.538 193.562 L581.538 190.252 L584.663 190.252 L584.663 182.891 L588.945 182.891 Z" fill="#000000" fill-rule="nonzero" fill-opacity="1" /><path clip-path="url(#clip640)" d="M603.32 190.252 L607.579 190.252 L607.579 216.178 L603.32 216.178 L603.32 190.252 M603.32 180.159 L607.579 180.159 L607.579 185.553 L603.32 185.553 L603.32 180.159 Z" fill="#000000" fill-rule="nonzero" fill-opacity="1" /><path clip-path="url(#clip640)" d="M626.538 193.238 Q623.112 193.238 621.121 195.923 Q619.13 198.585 619.13 203.238 Q619.13 207.891 621.098 210.576 Q623.088 213.238 626.538 213.238 Q629.94 213.238 631.931 210.553 Q633.922 207.867 633.922 203.238 Q633.922 198.631 631.931 195.946 Q629.94 193.238 626.538 193.238 M626.538 189.627 Q632.093 189.627 635.264 193.238 Q638.436 196.849 638.436 203.238 Q638.436 209.604 635.264 213.238 Q632.093 216.849 626.538 216.849 Q620.959 216.849 617.788 213.238 Q614.639 209.604 614.639 203.238 Q614.639 196.849 617.788 193.238 Q620.959 189.627 626.538 189.627 Z" fill="#000000" fill-rule="nonzero" fill-opacity="1" /><path clip-path="url(#clip640)" d="M667.047 200.529 L667.047 216.178 L662.787 216.178 L662.787 200.668 Q662.787 196.988 661.352 195.159 Q659.917 193.33 657.047 193.33 Q653.598 193.33 651.607 195.53 Q649.616 197.729 649.616 201.525 L649.616 216.178 L645.334 216.178 L645.334 190.252 L649.616 190.252 L649.616 194.28 Q651.144 191.942 653.204 190.784 Q655.287 189.627 657.996 189.627 Q662.463 189.627 664.755 192.405 Q667.047 195.159 667.047 200.529 Z" fill="#000000" fill-rule="nonzero" fill-opacity="1" /><path clip-path="url(#clip640)" d="M692.07 191.016 L692.07 195.043 Q690.264 194.117 688.32 193.655 Q686.375 193.192 684.292 193.192 Q681.121 193.192 679.523 194.164 Q677.949 195.136 677.949 197.08 Q677.949 198.562 679.084 199.418 Q680.218 200.252 683.644 201.016 L685.102 201.34 Q689.639 202.312 691.537 204.094 Q693.458 205.854 693.458 209.025 Q693.458 212.636 690.588 214.742 Q687.741 216.849 682.741 216.849 Q680.658 216.849 678.389 216.432 Q676.144 216.039 673.644 215.228 L673.644 210.83 Q676.005 212.057 678.296 212.682 Q680.588 213.284 682.834 213.284 Q685.843 213.284 687.463 212.266 Q689.083 211.224 689.083 209.349 Q689.083 207.613 687.903 206.687 Q686.746 205.761 682.787 204.904 L681.306 204.557 Q677.347 203.724 675.588 202.011 Q673.829 200.275 673.829 197.266 Q673.829 193.608 676.422 191.618 Q679.014 189.627 683.783 189.627 Q686.144 189.627 688.227 189.974 Q690.31 190.321 692.07 191.016 Z" fill="#000000" fill-rule="nonzero" fill-opacity="1" /></svg>
