<?xml version="1.0" encoding="utf-8"?>
<svg xmlns="http://www.w3.org/2000/svg" xmlns:xlink="http://www.w3.org/1999/xlink" width="600" height="400" viewBox="0 0 2400 1600">
<defs>
  <clipPath id="clip560">
    <rect x="0" y="0" width="2400" height="1600"/>
  </clipPath>
</defs>
<path clip-path="url(#clip560)" d="M0 1600 L2400 1600 L2400 8.88178e-14 L0 8.88178e-14  Z" fill="#ffffff" fill-rule="evenodd" fill-opacity="1"/>
<defs>
  <clipPath id="clip561">
    <rect x="480" y="0" width="1681" height="1600"/>
  </clipPath>
</defs>
<path clip-path="url(#clip560)" d="M178.867 1486.45 L2352.76 1486.45 L2352.76 47.2441 L178.867 47.2441  Z" fill="#ffffff" fill-rule="evenodd" fill-opacity="1"/>
<defs>
  <clipPath id="clip562">
    <rect x="178" y="47" width="2175" height="1440"/>
  </clipPath>
</defs>
<polyline clip-path="url(#clip562)" style="stroke:#000000; stroke-linecap:round; stroke-linejoin:round; stroke-width:2; stroke-opacity:0.1; fill:none" points="521.421,1486.45 521.421,47.2441 "/>
<polyline clip-path="url(#clip562)" style="stroke:#000000; stroke-linecap:round; stroke-linejoin:round; stroke-width:2; stroke-opacity:0.1; fill:none" points="896.8,1486.45 896.8,47.2441 "/>
<polyline clip-path="url(#clip562)" style="stroke:#000000; stroke-linecap:round; stroke-linejoin:round; stroke-width:2; stroke-opacity:0.1; fill:none" points="1272.18,1486.45 1272.18,47.2441 "/>
<polyline clip-path="url(#clip562)" style="stroke:#000000; stroke-linecap:round; stroke-linejoin:round; stroke-width:2; stroke-opacity:0.1; fill:none" points="1647.56,1486.45 1647.56,47.2441 "/>
<polyline clip-path="url(#clip562)" style="stroke:#000000; stroke-linecap:round; stroke-linejoin:round; stroke-width:2; stroke-opacity:0.1; fill:none" points="2022.94,1486.45 2022.94,47.2441 "/>
<polyline clip-path="url(#clip562)" style="stroke:#000000; stroke-linecap:round; stroke-linejoin:round; stroke-width:2; stroke-opacity:0.1; fill:none" points="178.867,1303.27 2352.76,1303.27 "/>
<polyline clip-path="url(#clip562)" style="stroke:#000000; stroke-linecap:round; stroke-linejoin:round; stroke-width:2; stroke-opacity:0.1; fill:none" points="178.867,1065.09 2352.76,1065.09 "/>
<polyline clip-path="url(#clip562)" style="stroke:#000000; stroke-linecap:round; stroke-linejoin:round; stroke-width:2; stroke-opacity:0.1; fill:none" points="178.867,826.914 2352.76,826.914 "/>
<polyline clip-path="url(#clip562)" style="stroke:#000000; stroke-linecap:round; stroke-linejoin:round; stroke-width:2; stroke-opacity:0.1; fill:none" points="178.867,588.739 2352.76,588.739 "/>
<polyline clip-path="url(#clip562)" style="stroke:#000000; stroke-linecap:round; stroke-linejoin:round; stroke-width:2; stroke-opacity:0.1; fill:none" points="178.867,350.563 2352.76,350.563 "/>
<polyline clip-path="url(#clip562)" style="stroke:#000000; stroke-linecap:round; stroke-linejoin:round; stroke-width:2; stroke-opacity:0.1; fill:none" points="178.867,112.388 2352.76,112.388 "/>
<polyline clip-path="url(#clip560)" style="stroke:#000000; stroke-linecap:round; stroke-linejoin:round; stroke-width:4; stroke-opacity:1; fill:none" points="178.867,1486.45 2352.76,1486.45 "/>
<polyline clip-path="url(#clip560)" style="stroke:#000000; stroke-linecap:round; stroke-linejoin:round; stroke-width:4; stroke-opacity:1; fill:none" points="521.421,1486.45 521.421,1467.55 "/>
<polyline clip-path="url(#clip560)" style="stroke:#000000; stroke-linecap:round; stroke-linejoin:round; stroke-width:4; stroke-opacity:1; fill:none" points="896.8,1486.45 896.8,1467.55 "/>
<polyline clip-path="url(#clip560)" style="stroke:#000000; stroke-linecap:round; stroke-linejoin:round; stroke-width:4; stroke-opacity:1; fill:none" points="1272.18,1486.45 1272.18,1467.55 "/>
<polyline clip-path="url(#clip560)" style="stroke:#000000; stroke-linecap:round; stroke-linejoin:round; stroke-width:4; stroke-opacity:1; fill:none" points="1647.56,1486.45 1647.56,1467.55 "/>
<polyline clip-path="url(#clip560)" style="stroke:#000000; stroke-linecap:round; stroke-linejoin:round; stroke-width:4; stroke-opacity:1; fill:none" points="2022.94,1486.45 2022.94,1467.55 "/>
<path clip-path="url(#clip560)" d="M475.484 1532.02 L505.159 1532.02 L505.159 1535.95 L475.484 1535.95 L475.484 1532.02 Z" fill="#000000" fill-rule="nonzero" fill-opacity="1" /><path clip-path="url(#clip560)" d="M515.298 1514.29 L533.655 1514.29 L533.655 1518.22 L519.581 1518.22 L519.581 1526.7 Q520.599 1526.35 521.618 1526.19 Q522.636 1526 523.655 1526 Q529.442 1526 532.821 1529.17 Q536.201 1532.34 536.201 1537.76 Q536.201 1543.34 532.729 1546.44 Q529.257 1549.52 522.937 1549.52 Q520.761 1549.52 518.493 1549.15 Q516.247 1548.78 513.84 1548.04 L513.84 1543.34 Q515.923 1544.47 518.146 1545.03 Q520.368 1545.58 522.845 1545.58 Q526.849 1545.58 529.187 1543.48 Q531.525 1541.37 531.525 1537.76 Q531.525 1534.15 529.187 1532.04 Q526.849 1529.94 522.845 1529.94 Q520.97 1529.94 519.095 1530.35 Q517.243 1530.77 515.298 1531.65 L515.298 1514.29 Z" fill="#000000" fill-rule="nonzero" fill-opacity="1" /><path clip-path="url(#clip560)" d="M555.414 1517.37 Q551.803 1517.37 549.974 1520.93 Q548.169 1524.47 548.169 1531.6 Q548.169 1538.71 549.974 1542.27 Q551.803 1545.82 555.414 1545.82 Q559.048 1545.82 560.854 1542.27 Q562.682 1538.71 562.682 1531.6 Q562.682 1524.47 560.854 1520.93 Q559.048 1517.37 555.414 1517.37 M555.414 1513.66 Q561.224 1513.66 564.28 1518.27 Q567.358 1522.85 567.358 1531.6 Q567.358 1540.33 564.28 1544.94 Q561.224 1549.52 555.414 1549.52 Q549.604 1549.52 546.525 1544.94 Q543.469 1540.33 543.469 1531.6 Q543.469 1522.85 546.525 1518.27 Q549.604 1513.66 555.414 1513.66 Z" fill="#000000" fill-rule="nonzero" fill-opacity="1" /><path clip-path="url(#clip560)" d="M896.8 1517.37 Q893.189 1517.37 891.36 1520.93 Q889.555 1524.47 889.555 1531.6 Q889.555 1538.71 891.36 1542.27 Q893.189 1545.82 896.8 1545.82 Q900.434 1545.82 902.24 1542.27 Q904.068 1538.71 904.068 1531.6 Q904.068 1524.47 902.24 1520.93 Q900.434 1517.37 896.8 1517.37 M896.8 1513.66 Q902.61 1513.66 905.666 1518.27 Q908.744 1522.85 908.744 1531.6 Q908.744 1540.33 905.666 1544.94 Q902.61 1549.52 896.8 1549.52 Q890.99 1549.52 887.911 1544.94 Q884.856 1540.33 884.856 1531.6 Q884.856 1522.85 887.911 1518.27 Q890.99 1513.66 896.8 1513.66 Z" fill="#000000" fill-rule="nonzero" fill-opacity="1" /><path clip-path="url(#clip560)" d="M1246.88 1514.29 L1265.23 1514.29 L1265.23 1518.22 L1251.16 1518.22 L1251.16 1526.7 Q1252.18 1526.35 1253.2 1526.19 Q1254.22 1526 1255.23 1526 Q1261.02 1526 1264.4 1529.17 Q1267.78 1532.34 1267.78 1537.76 Q1267.78 1543.34 1264.31 1546.44 Q1260.84 1549.52 1254.52 1549.52 Q1252.34 1549.52 1250.07 1549.15 Q1247.83 1548.78 1245.42 1548.04 L1245.42 1543.34 Q1247.5 1544.47 1249.73 1545.03 Q1251.95 1545.58 1254.42 1545.58 Q1258.43 1545.58 1260.77 1543.48 Q1263.1 1541.37 1263.1 1537.76 Q1263.1 1534.15 1260.77 1532.04 Q1258.43 1529.94 1254.42 1529.94 Q1252.55 1529.94 1250.67 1530.35 Q1248.82 1530.77 1246.88 1531.65 L1246.88 1514.29 Z" fill="#000000" fill-rule="nonzero" fill-opacity="1" /><path clip-path="url(#clip560)" d="M1286.99 1517.37 Q1283.38 1517.37 1281.55 1520.93 Q1279.75 1524.47 1279.75 1531.6 Q1279.75 1538.71 1281.55 1542.27 Q1283.38 1545.82 1286.99 1545.82 Q1290.63 1545.82 1292.43 1542.27 Q1294.26 1538.71 1294.26 1531.6 Q1294.26 1524.47 1292.43 1520.93 Q1290.63 1517.37 1286.99 1517.37 M1286.99 1513.66 Q1292.8 1513.66 1295.86 1518.27 Q1298.94 1522.85 1298.94 1531.6 Q1298.94 1540.33 1295.86 1544.94 Q1292.8 1549.52 1286.99 1549.52 Q1281.18 1549.52 1278.1 1544.94 Q1275.05 1540.33 1275.05 1531.6 Q1275.05 1522.85 1278.1 1518.27 Q1281.18 1513.66 1286.99 1513.66 Z" fill="#000000" fill-rule="nonzero" fill-opacity="1" /><path clip-path="url(#clip560)" d="M1607.16 1544.91 L1614.8 1544.91 L1614.8 1518.55 L1606.49 1520.21 L1606.49 1515.95 L1614.76 1514.29 L1619.43 1514.29 L1619.43 1544.91 L1627.07 1544.91 L1627.07 1548.85 L1607.16 1548.85 L1607.16 1544.91 Z" fill="#000000" fill-rule="nonzero" fill-opacity="1" /><path clip-path="url(#clip560)" d="M1646.52 1517.37 Q1642.91 1517.37 1641.08 1520.93 Q1639.27 1524.47 1639.27 1531.6 Q1639.27 1538.71 1641.08 1542.27 Q1642.91 1545.82 1646.52 1545.82 Q1650.15 1545.82 1651.96 1542.27 Q1653.78 1538.71 1653.78 1531.6 Q1653.78 1524.47 1651.96 1520.93 Q1650.15 1517.37 1646.52 1517.37 M1646.52 1513.66 Q1652.33 1513.66 1655.38 1518.27 Q1658.46 1522.85 1658.46 1531.6 Q1658.46 1540.33 1655.38 1544.94 Q1652.33 1549.52 1646.52 1549.52 Q1640.71 1549.52 1637.63 1544.94 Q1634.57 1540.33 1634.57 1531.6 Q1634.57 1522.85 1637.63 1518.27 Q1640.71 1513.66 1646.52 1513.66 Z" fill="#000000" fill-rule="nonzero" fill-opacity="1" /><path clip-path="url(#clip560)" d="M1676.68 1517.37 Q1673.07 1517.37 1671.24 1520.93 Q1669.43 1524.47 1669.43 1531.6 Q1669.43 1538.71 1671.24 1542.27 Q1673.07 1545.82 1676.68 1545.82 Q1680.31 1545.82 1682.12 1542.27 Q1683.95 1538.71 1683.95 1531.6 Q1683.95 1524.47 1682.12 1520.93 Q1680.31 1517.37 1676.68 1517.37 M1676.68 1513.66 Q1682.49 1513.66 1685.54 1518.27 Q1688.62 1522.85 1688.62 1531.6 Q1688.62 1540.33 1685.54 1544.94 Q1682.49 1549.52 1676.68 1549.52 Q1670.87 1549.52 1667.79 1544.94 Q1664.73 1540.33 1664.73 1531.6 Q1664.73 1522.85 1667.79 1518.27 Q1670.87 1513.66 1676.68 1513.66 Z" fill="#000000" fill-rule="nonzero" fill-opacity="1" /><path clip-path="url(#clip560)" d="M1982.54 1544.91 L1990.18 1544.91 L1990.18 1518.55 L1981.87 1520.21 L1981.87 1515.95 L1990.14 1514.29 L1994.81 1514.29 L1994.81 1544.91 L2002.45 1544.91 L2002.45 1548.85 L1982.54 1548.85 L1982.54 1544.91 Z" fill="#000000" fill-rule="nonzero" fill-opacity="1" /><path clip-path="url(#clip560)" d="M2011.94 1514.29 L2030.3 1514.29 L2030.3 1518.22 L2016.22 1518.22 L2016.22 1526.7 Q2017.24 1526.35 2018.26 1526.19 Q2019.28 1526 2020.3 1526 Q2026.09 1526 2029.46 1529.17 Q2032.84 1532.34 2032.84 1537.76 Q2032.84 1543.34 2029.37 1546.44 Q2025.9 1549.52 2019.58 1549.52 Q2017.4 1549.52 2015.14 1549.15 Q2012.89 1548.78 2010.48 1548.04 L2010.48 1543.34 Q2012.57 1544.47 2014.79 1545.03 Q2017.01 1545.58 2019.49 1545.58 Q2023.49 1545.58 2025.83 1543.48 Q2028.17 1541.37 2028.17 1537.76 Q2028.17 1534.15 2025.83 1532.04 Q2023.49 1529.94 2019.49 1529.94 Q2017.61 1529.94 2015.74 1530.35 Q2013.89 1530.77 2011.94 1531.65 L2011.94 1514.29 Z" fill="#000000" fill-rule="nonzero" fill-opacity="1" /><path clip-path="url(#clip560)" d="M2052.06 1517.37 Q2048.45 1517.37 2046.62 1520.93 Q2044.81 1524.47 2044.81 1531.6 Q2044.81 1538.71 2046.62 1542.27 Q2048.45 1545.82 2052.06 1545.82 Q2055.69 1545.82 2057.5 1542.27 Q2059.33 1538.71 2059.33 1531.6 Q2059.33 1524.47 2057.5 1520.93 Q2055.69 1517.37 2052.06 1517.37 M2052.06 1513.66 Q2057.87 1513.66 2060.92 1518.27 Q2064 1522.85 2064 1531.6 Q2064 1540.33 2060.92 1544.94 Q2057.87 1549.52 2052.06 1549.52 Q2046.25 1549.52 2043.17 1544.94 Q2040.11 1540.33 2040.11 1531.6 Q2040.11 1522.85 2043.17 1518.27 Q2046.25 1513.66 2052.06 1513.66 Z" fill="#000000" fill-rule="nonzero" fill-opacity="1" /><polyline clip-path="url(#clip560)" style="stroke:#000000; stroke-linecap:round; stroke-linejoin:round; stroke-width:4; stroke-opacity:1; fill:none" points="178.867,1486.45 178.867,47.2441 "/>
<polyline clip-path="url(#clip560)" style="stroke:#000000; stroke-linecap:round; stroke-linejoin:round; stroke-width:4; stroke-opacity:1; fill:none" points="178.867,1303.27 197.764,1303.27 "/>
<polyline clip-path="url(#clip560)" style="stroke:#000000; stroke-linecap:round; stroke-linejoin:round; stroke-width:4; stroke-opacity:1; fill:none" points="178.867,1065.09 197.764,1065.09 "/>
<polyline clip-path="url(#clip560)" style="stroke:#000000; stroke-linecap:round; stroke-linejoin:round; stroke-width:4; stroke-opacity:1; fill:none" points="178.867,826.914 197.764,826.914 "/>
<polyline clip-path="url(#clip560)" style="stroke:#000000; stroke-linecap:round; stroke-linejoin:round; stroke-width:4; stroke-opacity:1; fill:none" points="178.867,588.739 197.764,588.739 "/>
<polyline clip-path="url(#clip560)" style="stroke:#000000; stroke-linecap:round; stroke-linejoin:round; stroke-width:4; stroke-opacity:1; fill:none" points="178.867,350.563 197.764,350.563 "/>
<polyline clip-path="url(#clip560)" style="stroke:#000000; stroke-linecap:round; stroke-linejoin:round; stroke-width:4; stroke-opacity:1; fill:none" points="178.867,112.388 197.764,112.388 "/>
<path clip-path="url(#clip560)" d="M50.9921 1303.72 L80.6679 1303.72 L80.6679 1307.65 L50.9921 1307.65 L50.9921 1303.72 Z" fill="#000000" fill-rule="nonzero" fill-opacity="1" /><path clip-path="url(#clip560)" d="M90.8067 1285.99 L109.163 1285.99 L109.163 1289.92 L95.0891 1289.92 L95.0891 1298.39 Q96.1076 1298.05 97.1261 1297.88 Q98.1447 1297.7 99.1632 1297.7 Q104.95 1297.7 108.33 1300.87 Q111.709 1304.04 111.709 1309.46 Q111.709 1315.04 108.237 1318.14 Q104.765 1321.22 98.4456 1321.22 Q96.2697 1321.22 94.0012 1320.85 Q91.7558 1320.48 89.3484 1319.74 L89.3484 1315.04 Q91.4317 1316.17 93.6539 1316.73 Q95.8761 1317.28 98.353 1317.28 Q102.358 1317.28 104.696 1315.18 Q107.033 1313.07 107.033 1309.46 Q107.033 1305.85 104.696 1303.74 Q102.358 1301.63 98.353 1301.63 Q96.478 1301.63 94.603 1302.05 Q92.7512 1302.47 90.8067 1303.35 L90.8067 1285.99 Z" fill="#000000" fill-rule="nonzero" fill-opacity="1" /><path clip-path="url(#clip560)" d="M130.922 1289.06 Q127.311 1289.06 125.482 1292.63 Q123.677 1296.17 123.677 1303.3 Q123.677 1310.41 125.482 1313.97 Q127.311 1317.51 130.922 1317.51 Q134.556 1317.51 136.362 1313.97 Q138.191 1310.41 138.191 1303.3 Q138.191 1296.17 136.362 1292.63 Q134.556 1289.06 130.922 1289.06 M130.922 1285.36 Q136.732 1285.36 139.788 1289.97 Q142.867 1294.55 142.867 1303.3 Q142.867 1312.03 139.788 1316.63 Q136.732 1321.22 130.922 1321.22 Q125.112 1321.22 122.033 1316.63 Q118.978 1312.03 118.978 1303.3 Q118.978 1294.55 122.033 1289.97 Q125.112 1285.36 130.922 1285.36 Z" fill="#000000" fill-rule="nonzero" fill-opacity="1" /><path clip-path="url(#clip560)" d="M130.922 1050.89 Q127.311 1050.89 125.482 1054.45 Q123.677 1057.99 123.677 1065.12 Q123.677 1072.23 125.482 1075.8 Q127.311 1079.34 130.922 1079.34 Q134.556 1079.34 136.362 1075.8 Q138.191 1072.23 138.191 1065.12 Q138.191 1057.99 136.362 1054.45 Q134.556 1050.89 130.922 1050.89 M130.922 1047.18 Q136.732 1047.18 139.788 1051.79 Q142.867 1056.37 142.867 1065.12 Q142.867 1073.85 139.788 1078.46 Q136.732 1083.04 130.922 1083.04 Q125.112 1083.04 122.033 1078.46 Q118.978 1073.85 118.978 1065.12 Q118.978 1056.37 122.033 1051.79 Q125.112 1047.18 130.922 1047.18 Z" fill="#000000" fill-rule="nonzero" fill-opacity="1" /><path clip-path="url(#clip560)" d="M90.8067 809.634 L109.163 809.634 L109.163 813.569 L95.0891 813.569 L95.0891 822.042 Q96.1076 821.694 97.1261 821.532 Q98.1447 821.347 99.1632 821.347 Q104.95 821.347 108.33 824.518 Q111.709 827.69 111.709 833.106 Q111.709 838.685 108.237 841.787 Q104.765 844.866 98.4456 844.866 Q96.2697 844.866 94.0012 844.495 Q91.7558 844.125 89.3484 843.384 L89.3484 838.685 Q91.4317 839.819 93.6539 840.375 Q95.8761 840.93 98.353 840.93 Q102.358 840.93 104.696 838.824 Q107.033 836.717 107.033 833.106 Q107.033 829.495 104.696 827.389 Q102.358 825.282 98.353 825.282 Q96.478 825.282 94.603 825.699 Q92.7512 826.116 90.8067 826.995 L90.8067 809.634 Z" fill="#000000" fill-rule="nonzero" fill-opacity="1" /><path clip-path="url(#clip560)" d="M130.922 812.713 Q127.311 812.713 125.482 816.278 Q123.677 819.819 123.677 826.949 Q123.677 834.055 125.482 837.62 Q127.311 841.162 130.922 841.162 Q134.556 841.162 136.362 837.62 Q138.191 834.055 138.191 826.949 Q138.191 819.819 136.362 816.278 Q134.556 812.713 130.922 812.713 M130.922 809.009 Q136.732 809.009 139.788 813.616 Q142.867 818.199 142.867 826.949 Q142.867 835.676 139.788 840.282 Q136.732 844.866 130.922 844.866 Q125.112 844.866 122.033 840.282 Q118.978 835.676 118.978 826.949 Q118.978 818.199 122.033 813.616 Q125.112 809.009 130.922 809.009 Z" fill="#000000" fill-rule="nonzero" fill-opacity="1" /><path clip-path="url(#clip560)" d="M61.4087 602.084 L69.0476 602.084 L69.0476 575.718 L60.7374 577.385 L60.7374 573.125 L69.0013 571.459 L73.6772 571.459 L73.6772 602.084 L81.316 602.084 L81.316 606.019 L61.4087 606.019 L61.4087 602.084 Z" fill="#000000" fill-rule="nonzero" fill-opacity="1" /><path clip-path="url(#clip560)" d="M100.76 574.537 Q97.1493 574.537 95.3206 578.102 Q93.515 581.644 93.515 588.773 Q93.515 595.88 95.3206 599.445 Q97.1493 602.986 100.76 602.986 Q104.395 602.986 106.2 599.445 Q108.029 595.88 108.029 588.773 Q108.029 581.644 106.2 578.102 Q104.395 574.537 100.76 574.537 M100.76 570.834 Q106.571 570.834 109.626 575.44 Q112.705 580.024 112.705 588.773 Q112.705 597.5 109.626 602.107 Q106.571 606.69 100.76 606.69 Q94.9502 606.69 91.8715 602.107 Q88.816 597.5 88.816 588.773 Q88.816 580.024 91.8715 575.44 Q94.9502 570.834 100.76 570.834 Z" fill="#000000" fill-rule="nonzero" fill-opacity="1" /><path clip-path="url(#clip560)" d="M130.922 574.537 Q127.311 574.537 125.482 578.102 Q123.677 581.644 123.677 588.773 Q123.677 595.88 125.482 599.445 Q127.311 602.986 130.922 602.986 Q134.556 602.986 136.362 599.445 Q138.191 595.88 138.191 588.773 Q138.191 581.644 136.362 578.102 Q134.556 574.537 130.922 574.537 M130.922 570.834 Q136.732 570.834 139.788 575.44 Q142.867 580.024 142.867 588.773 Q142.867 597.5 139.788 602.107 Q136.732 606.69 130.922 606.69 Q125.112 606.69 122.033 602.107 Q118.978 597.5 118.978 588.773 Q118.978 580.024 122.033 575.44 Q125.112 570.834 130.922 570.834 Z" fill="#000000" fill-rule="nonzero" fill-opacity="1" /><path clip-path="url(#clip560)" d="M61.4087 363.908 L69.0476 363.908 L69.0476 337.542 L60.7374 339.209 L60.7374 334.95 L69.0013 333.283 L73.6772 333.283 L73.6772 363.908 L81.316 363.908 L81.316 367.843 L61.4087 367.843 L61.4087 363.908 Z" fill="#000000" fill-rule="nonzero" fill-opacity="1" /><path clip-path="url(#clip560)" d="M90.8067 333.283 L109.163 333.283 L109.163 337.218 L95.0891 337.218 L95.0891 345.691 Q96.1076 345.343 97.1261 345.181 Q98.1447 344.996 99.1632 344.996 Q104.95 344.996 108.33 348.167 Q111.709 351.339 111.709 356.755 Q111.709 362.334 108.237 365.436 Q104.765 368.515 98.4456 368.515 Q96.2697 368.515 94.0012 368.144 Q91.7558 367.774 89.3484 367.033 L89.3484 362.334 Q91.4317 363.468 93.6539 364.024 Q95.8761 364.579 98.353 364.579 Q102.358 364.579 104.696 362.473 Q107.033 360.366 107.033 356.755 Q107.033 353.144 104.696 351.038 Q102.358 348.931 98.353 348.931 Q96.478 348.931 94.603 349.348 Q92.7512 349.765 90.8067 350.644 L90.8067 333.283 Z" fill="#000000" fill-rule="nonzero" fill-opacity="1" /><path clip-path="url(#clip560)" d="M130.922 336.362 Q127.311 336.362 125.482 339.927 Q123.677 343.468 123.677 350.598 Q123.677 357.704 125.482 361.269 Q127.311 364.811 130.922 364.811 Q134.556 364.811 136.362 361.269 Q138.191 357.704 138.191 350.598 Q138.191 343.468 136.362 339.927 Q134.556 336.362 130.922 336.362 M130.922 332.658 Q136.732 332.658 139.788 337.265 Q142.867 341.848 142.867 350.598 Q142.867 359.325 139.788 363.931 Q136.732 368.515 130.922 368.515 Q125.112 368.515 122.033 363.931 Q118.978 359.325 118.978 350.598 Q118.978 341.848 122.033 337.265 Q125.112 332.658 130.922 332.658 Z" fill="#000000" fill-rule="nonzero" fill-opacity="1" /><path clip-path="url(#clip560)" d="M64.6263 125.733 L80.9457 125.733 L80.9457 129.668 L59.0013 129.668 L59.0013 125.733 Q61.6634 122.978 66.2467 118.348 Q70.8531 113.696 72.0337 112.353 Q74.279 109.83 75.1587 108.094 Q76.0614 106.334 76.0614 104.645 Q76.0614 101.89 74.117 100.154 Q72.1957 98.4179 69.0939 98.4179 Q66.8948 98.4179 64.4411 99.1817 Q62.0106 99.9456 59.2328 101.497 L59.2328 96.7743 Q62.0569 95.6401 64.5106 95.0614 Q66.9643 94.4827 69.0013 94.4827 Q74.3716 94.4827 77.5661 97.1679 Q80.7605 99.853 80.7605 104.344 Q80.7605 106.473 79.9503 108.395 Q79.1633 110.293 77.0568 112.885 Q76.4781 113.557 73.3763 116.774 Q70.2744 119.969 64.6263 125.733 Z" fill="#000000" fill-rule="nonzero" fill-opacity="1" /><path clip-path="url(#clip560)" d="M100.76 98.1864 Q97.1493 98.1864 95.3206 101.751 Q93.515 105.293 93.515 112.422 Q93.515 119.529 95.3206 123.094 Q97.1493 126.635 100.76 126.635 Q104.395 126.635 106.2 123.094 Q108.029 119.529 108.029 112.422 Q108.029 105.293 106.2 101.751 Q104.395 98.1864 100.76 98.1864 M100.76 94.4827 Q106.571 94.4827 109.626 99.0891 Q112.705 103.672 112.705 112.422 Q112.705 121.149 109.626 125.756 Q106.571 130.339 100.76 130.339 Q94.9502 130.339 91.8715 125.756 Q88.816 121.149 88.816 112.422 Q88.816 103.672 91.8715 99.0891 Q94.9502 94.4827 100.76 94.4827 Z" fill="#000000" fill-rule="nonzero" fill-opacity="1" /><path clip-path="url(#clip560)" d="M130.922 98.1864 Q127.311 98.1864 125.482 101.751 Q123.677 105.293 123.677 112.422 Q123.677 119.529 125.482 123.094 Q127.311 126.635 130.922 126.635 Q134.556 126.635 136.362 123.094 Q138.191 119.529 138.191 112.422 Q138.191 105.293 136.362 101.751 Q134.556 98.1864 130.922 98.1864 M130.922 94.4827 Q136.732 94.4827 139.788 99.0891 Q142.867 103.672 142.867 112.422 Q142.867 121.149 139.788 125.756 Q136.732 130.339 130.922 130.339 Q125.112 130.339 122.033 125.756 Q118.978 121.149 118.978 112.422 Q118.978 103.672 122.033 99.0891 Q125.112 94.4827 130.922 94.4827 Z" fill="#000000" fill-rule="nonzero" fill-opacity="1" /><polyline clip-path="url(#clip562)" style="stroke:#009af9; stroke-linecap:round; stroke-linejoin:round; stroke-width:4; stroke-opacity:1; fill:none" points="896.162,1054.75 909.473,1036.5 923.75,1036.48 945.288,1024.91 959.665,1010 970.766,997.334 984.344,996.128 998.418,982.86 1006.71,971.671 1024.9,965.387 1048.85,960.2 1052.33,948.591 1063.34,935.36 1073.99,922.917 1077.67,912.646 1092.46,893.39 1093.41,884.449 1107.29,876.052 1119.17,864.179 1133.76,862.464 1148.7,852.842 1169.34,843.28 1188.19,841.897 1191.51,828.686 1210.58,811.008 1222.49,801.825 1235.95,787.651 1255.23,780.852 1267.92,779.118 1277.78,772.673 1290.46,756.606 1305.73,748.123 1320.95,742.413 1329.2,733.533 1337.56,722.418 1348.18,717.893 1366.69,714.194 1382.32,703.057 1389.49,686.959 1407.25,684.05 1412.69,684.347 1427.1,682.586 1446.25,683.016 1463.31,676.466 1477.74,669.945 1490.76,653.995 1497.41,647.717 1515.93,625.843 1535.25,619.131 1554.8,605.108 1569.95,598.021 1586.21,587.282 1598.14,573.865 1609.04,571.504 1629.62,553.646 1625.79,542.913 1646.49,545.239 1658.52,526.574 1669.98,521.087 1688.11,514.289 1707.35,495.478 1723.65,491.188 1736.13,477.727 1758.97,474.241 1777.88,466.316 1793.09,455.233 1806.39,436.673 1811.06,425.188 1820.72,406.88 1839.62,395.34 1852.73,385.448 1886.81,376.822 1907.02,363.022 1908.38,361.183 1909.92,351.066 1930.57,340.659 1938.38,327.192 1947.55,315.965 1969.86,305.628 1985.95,287.214 1998.6,289.33 2013.19,277.253 2018.71,267.726 2043.87,258.541 2065.69,249.096 2081.99,236.376 2099.95,223.65 2118.39,211.527 2135.54,193.637 2161.99,176.654 2190.76,161.471 2202.31,152.274 2208.37,145.09 2220.16,141.853 2228.76,141.623 2237.66,128.866 2256.42,117.714 2264.15,116.761 2272.18,100.779 2291.23,87.9763 "/>
<circle clip-path="url(#clip562)" cx="945.877" cy="1445.72" r="14.4" fill="#e26f46" fill-rule="evenodd" fill-opacity="1" stroke="#000000" stroke-opacity="1" stroke-width="3.2"/>
<circle clip-path="url(#clip562)" cx="779.149" cy="1026.59" r="14.4" fill="#e26f46" fill-rule="evenodd" fill-opacity="1" stroke="#000000" stroke-opacity="1" stroke-width="3.2"/>
<circle clip-path="url(#clip562)" cx="240.392" cy="1289.83" r="14.4" fill="#e26f46" fill-rule="evenodd" fill-opacity="1" stroke="#000000" stroke-opacity="1" stroke-width="3.2"/>
<circle clip-path="url(#clip562)" cx="531.786" cy="1305.83" r="14.4" fill="#e26f46" fill-rule="evenodd" fill-opacity="1" stroke="#000000" stroke-opacity="1" stroke-width="3.2"/>
<circle clip-path="url(#clip562)" cx="897.376" cy="958.871" r="14.4" fill="#e26f46" fill-rule="evenodd" fill-opacity="1" stroke="#000000" stroke-opacity="1" stroke-width="3.2"/>
<circle clip-path="url(#clip562)" cx="485.57" cy="1267.29" r="14.4" fill="#e26f46" fill-rule="evenodd" fill-opacity="1" stroke="#000000" stroke-opacity="1" stroke-width="3.2"/>
<path clip-path="url(#clip560)" d="M251.33 250.738 L708.37 250.738 L708.37 95.2176 L251.33 95.2176  Z" fill="#ffffff" fill-rule="evenodd" fill-opacity="1"/>
<polyline clip-path="url(#clip560)" style="stroke:#000000; stroke-linecap:round; stroke-linejoin:round; stroke-width:4; stroke-opacity:1; fill:none" points="251.33,250.738 708.37,250.738 708.37,95.2176 251.33,95.2176 251.33,250.738 "/>
<polyline clip-path="url(#clip560)" style="stroke:#009af9; stroke-linecap:round; stroke-linejoin:round; stroke-width:4; stroke-opacity:1; fill:none" points="275.484,147.058 420.41,147.058 "/>
<path clip-path="url(#clip560)" d="M459.749 142.393 Q459.032 141.977 458.175 141.791 Q457.342 141.583 456.323 141.583 Q452.712 141.583 450.768 143.944 Q448.847 146.282 448.847 150.68 L448.847 164.338 L444.564 164.338 L444.564 138.412 L448.847 138.412 L448.847 142.44 Q450.189 140.078 452.342 138.944 Q454.495 137.787 457.573 137.787 Q458.013 137.787 458.546 137.856 Q459.078 137.903 459.726 138.018 L459.749 142.393 Z" fill="#000000" fill-rule="nonzero" fill-opacity="1" /><path clip-path="url(#clip560)" d="M473.221 141.398 Q469.796 141.398 467.805 144.083 Q465.814 146.745 465.814 151.398 Q465.814 156.051 467.782 158.736 Q469.772 161.398 473.221 161.398 Q476.624 161.398 478.615 158.713 Q480.606 156.027 480.606 151.398 Q480.606 146.791 478.615 144.106 Q476.624 141.398 473.221 141.398 M473.221 137.787 Q478.777 137.787 481.948 141.398 Q485.12 145.009 485.12 151.398 Q485.12 157.764 481.948 161.398 Q478.777 165.009 473.221 165.009 Q467.643 165.009 464.472 161.398 Q461.323 157.764 461.323 151.398 Q461.323 145.009 464.472 141.398 Q467.643 137.787 473.221 137.787 Z" fill="#000000" fill-rule="nonzero" fill-opacity="1" /><path clip-path="url(#clip560)" d="M510.791 151.398 Q510.791 146.699 508.846 144.037 Q506.925 141.352 503.545 141.352 Q500.166 141.352 498.221 144.037 Q496.3 146.699 496.3 151.398 Q496.3 156.097 498.221 158.782 Q500.166 161.444 503.545 161.444 Q506.925 161.444 508.846 158.782 Q510.791 156.097 510.791 151.398 M496.3 142.347 Q497.643 140.032 499.68 138.921 Q501.74 137.787 504.587 137.787 Q509.309 137.787 512.249 141.537 Q515.212 145.287 515.212 151.398 Q515.212 157.509 512.249 161.259 Q509.309 165.009 504.587 165.009 Q501.74 165.009 499.68 163.898 Q497.643 162.763 496.3 160.449 L496.3 164.338 L492.018 164.338 L492.018 128.319 L496.3 128.319 L496.3 142.347 Z" fill="#000000" fill-rule="nonzero" fill-opacity="1" /><path clip-path="url(#clip560)" d="M532.318 141.398 Q528.892 141.398 526.902 144.083 Q524.911 146.745 524.911 151.398 Q524.911 156.051 526.879 158.736 Q528.869 161.398 532.318 161.398 Q535.721 161.398 537.712 158.713 Q539.703 156.027 539.703 151.398 Q539.703 146.791 537.712 144.106 Q535.721 141.398 532.318 141.398 M532.318 137.787 Q537.874 137.787 541.045 141.398 Q544.216 145.009 544.216 151.398 Q544.216 157.764 541.045 161.398 Q537.874 165.009 532.318 165.009 Q526.74 165.009 523.568 161.398 Q520.42 157.764 520.42 151.398 Q520.42 145.009 523.568 141.398 Q526.74 137.787 532.318 137.787 Z" fill="#000000" fill-rule="nonzero" fill-opacity="1" /><path clip-path="url(#clip560)" d="M555.49 131.051 L555.49 138.412 L564.263 138.412 L564.263 141.722 L555.49 141.722 L555.49 155.796 Q555.49 158.967 556.346 159.87 Q557.226 160.773 559.888 160.773 L564.263 160.773 L564.263 164.338 L559.888 164.338 Q554.957 164.338 553.082 162.509 Q551.207 160.657 551.207 155.796 L551.207 141.722 L548.082 141.722 L548.082 138.412 L551.207 138.412 L551.207 131.051 L555.49 131.051 Z" fill="#000000" fill-rule="nonzero" fill-opacity="1" /><path clip-path="url(#clip560)" d="M589.054 160.449 L589.054 174.199 L584.772 174.199 L584.772 138.412 L589.054 138.412 L589.054 142.347 Q590.397 140.032 592.434 138.921 Q594.494 137.787 597.341 137.787 Q602.063 137.787 605.003 141.537 Q607.966 145.287 607.966 151.398 Q607.966 157.509 605.003 161.259 Q602.063 165.009 597.341 165.009 Q594.494 165.009 592.434 163.898 Q590.397 162.763 589.054 160.449 M603.545 151.398 Q603.545 146.699 601.6 144.037 Q599.679 141.352 596.3 141.352 Q592.92 141.352 590.975 144.037 Q589.054 146.699 589.054 151.398 Q589.054 156.097 590.975 158.782 Q592.92 161.444 596.3 161.444 Q599.679 161.444 601.6 158.782 Q603.545 156.097 603.545 151.398 Z" fill="#000000" fill-rule="nonzero" fill-opacity="1" /><path clip-path="url(#clip560)" d="M626.809 151.305 Q621.647 151.305 619.656 152.486 Q617.665 153.666 617.665 156.514 Q617.665 158.782 619.147 160.125 Q620.651 161.444 623.221 161.444 Q626.762 161.444 628.892 158.944 Q631.045 156.421 631.045 152.254 L631.045 151.305 L626.809 151.305 M635.304 149.546 L635.304 164.338 L631.045 164.338 L631.045 160.402 Q629.586 162.763 627.41 163.898 Q625.235 165.009 622.086 165.009 Q618.105 165.009 615.744 162.787 Q613.406 160.541 613.406 156.791 Q613.406 152.416 616.323 150.194 Q619.262 147.972 625.073 147.972 L631.045 147.972 L631.045 147.555 Q631.045 144.615 629.1 143.018 Q627.179 141.398 623.684 141.398 Q621.461 141.398 619.355 141.93 Q617.248 142.463 615.304 143.527 L615.304 139.592 Q617.642 138.69 619.841 138.25 Q622.04 137.787 624.123 137.787 Q629.748 137.787 632.526 140.703 Q635.304 143.62 635.304 149.546 Z" fill="#000000" fill-rule="nonzero" fill-opacity="1" /><path clip-path="url(#clip560)" d="M648.29 131.051 L648.29 138.412 L657.063 138.412 L657.063 141.722 L648.29 141.722 L648.29 155.796 Q648.29 158.967 649.146 159.87 Q650.026 160.773 652.688 160.773 L657.063 160.773 L657.063 164.338 L652.688 164.338 Q647.758 164.338 645.883 162.509 Q644.008 160.657 644.008 155.796 L644.008 141.722 L640.883 141.722 L640.883 138.412 L644.008 138.412 L644.008 131.051 L648.29 131.051 Z" fill="#000000" fill-rule="nonzero" fill-opacity="1" /><path clip-path="url(#clip560)" d="M684.216 148.689 L684.216 164.338 L679.956 164.338 L679.956 148.828 Q679.956 145.148 678.521 143.319 Q677.086 141.49 674.216 141.49 Q670.767 141.49 668.776 143.69 Q666.785 145.889 666.785 149.685 L666.785 164.338 L662.503 164.338 L662.503 128.319 L666.785 128.319 L666.785 142.44 Q668.313 140.102 670.373 138.944 Q672.457 137.787 675.165 137.787 Q679.632 137.787 681.924 140.565 Q684.216 143.319 684.216 148.689 Z" fill="#000000" fill-rule="nonzero" fill-opacity="1" /><circle clip-path="url(#clip560)" cx="347.947" cy="198.898" r="20.48" fill="#e26f46" fill-rule="evenodd" fill-opacity="1" stroke="#000000" stroke-opacity="1" stroke-width="4.55111"/>
<path clip-path="url(#clip560)" d="M456.462 193.238 Q453.036 193.238 451.046 195.923 Q449.055 198.585 449.055 203.238 Q449.055 207.891 451.023 210.576 Q453.013 213.238 456.462 213.238 Q459.865 213.238 461.856 210.553 Q463.847 207.867 463.847 203.238 Q463.847 198.631 461.856 195.946 Q459.865 193.238 456.462 193.238 M456.462 189.627 Q462.018 189.627 465.189 193.238 Q468.36 196.849 468.36 203.238 Q468.36 209.604 465.189 213.238 Q462.018 216.849 456.462 216.849 Q450.884 216.849 447.712 213.238 Q444.564 209.604 444.564 203.238 Q444.564 196.849 447.712 193.238 Q450.884 189.627 456.462 189.627 Z" fill="#000000" fill-rule="nonzero" fill-opacity="1" /><path clip-path="url(#clip560)" d="M494.032 203.238 Q494.032 198.539 492.087 195.877 Q490.166 193.192 486.786 193.192 Q483.407 193.192 481.462 195.877 Q479.541 198.539 479.541 203.238 Q479.541 207.937 481.462 210.622 Q483.407 213.284 486.786 213.284 Q490.166 213.284 492.087 210.622 Q494.032 207.937 494.032 203.238 M479.541 194.187 Q480.883 191.872 482.92 190.761 Q484.981 189.627 487.828 189.627 Q492.55 189.627 495.49 193.377 Q498.453 197.127 498.453 203.238 Q498.453 209.349 495.49 213.099 Q492.55 216.849 487.828 216.849 Q484.981 216.849 482.92 215.738 Q480.883 214.603 479.541 212.289 L479.541 216.178 L475.258 216.178 L475.258 180.159 L479.541 180.159 L479.541 194.187 Z" fill="#000000" fill-rule="nonzero" fill-opacity="1" /><path clip-path="url(#clip560)" d="M522.041 191.016 L522.041 195.043 Q520.235 194.117 518.291 193.655 Q516.346 193.192 514.263 193.192 Q511.092 193.192 509.494 194.164 Q507.92 195.136 507.92 197.08 Q507.92 198.562 509.055 199.418 Q510.189 200.252 513.615 201.016 L515.073 201.34 Q519.61 202.312 521.508 204.094 Q523.43 205.854 523.43 209.025 Q523.43 212.636 520.559 214.742 Q517.712 216.849 512.712 216.849 Q510.629 216.849 508.36 216.432 Q506.115 216.039 503.615 215.228 L503.615 210.83 Q505.976 212.057 508.268 212.682 Q510.559 213.284 512.805 213.284 Q515.814 213.284 517.434 212.266 Q519.055 211.224 519.055 209.349 Q519.055 207.613 517.874 206.687 Q516.717 205.761 512.758 204.904 L511.277 204.557 Q507.319 203.724 505.559 202.011 Q503.8 200.275 503.8 197.266 Q503.8 193.608 506.393 191.618 Q508.985 189.627 513.754 189.627 Q516.115 189.627 518.198 189.974 Q520.281 190.321 522.041 191.016 Z" fill="#000000" fill-rule="nonzero" fill-opacity="1" /><path clip-path="url(#clip560)" d="M534.425 182.891 L534.425 190.252 L543.198 190.252 L543.198 193.562 L534.425 193.562 L534.425 207.636 Q534.425 210.807 535.281 211.71 Q536.161 212.613 538.823 212.613 L543.198 212.613 L543.198 216.178 L538.823 216.178 Q533.892 216.178 532.017 214.349 Q530.142 212.497 530.142 207.636 L530.142 193.562 L527.017 193.562 L527.017 190.252 L530.142 190.252 L530.142 182.891 L534.425 182.891 Z" fill="#000000" fill-rule="nonzero" fill-opacity="1" /><path clip-path="url(#clip560)" d="M560.582 203.145 Q555.42 203.145 553.429 204.326 Q551.439 205.506 551.439 208.354 Q551.439 210.622 552.92 211.965 Q554.425 213.284 556.994 213.284 Q560.536 213.284 562.665 210.784 Q564.818 208.261 564.818 204.094 L564.818 203.145 L560.582 203.145 M569.077 201.386 L569.077 216.178 L564.818 216.178 L564.818 212.242 Q563.36 214.603 561.184 215.738 Q559.008 216.849 555.86 216.849 Q551.878 216.849 549.517 214.627 Q547.179 212.381 547.179 208.631 Q547.179 204.256 550.096 202.034 Q553.036 199.812 558.846 199.812 L564.818 199.812 L564.818 199.395 Q564.818 196.455 562.874 194.858 Q560.952 193.238 557.457 193.238 Q555.235 193.238 553.128 193.77 Q551.022 194.303 549.078 195.367 L549.078 191.432 Q551.415 190.53 553.615 190.09 Q555.814 189.627 557.897 189.627 Q563.522 189.627 566.3 192.543 Q569.077 195.46 569.077 201.386 Z" fill="#000000" fill-rule="nonzero" fill-opacity="1" /><path clip-path="url(#clip560)" d="M596.508 191.247 L596.508 195.229 Q594.702 194.233 592.874 193.747 Q591.068 193.238 589.216 193.238 Q585.073 193.238 582.781 195.877 Q580.489 198.492 580.489 203.238 Q580.489 207.983 582.781 210.622 Q585.073 213.238 589.216 213.238 Q591.068 213.238 592.874 212.752 Q594.702 212.242 596.508 211.247 L596.508 215.182 Q594.725 216.016 592.804 216.432 Q590.906 216.849 588.753 216.849 Q582.897 216.849 579.448 213.168 Q575.999 209.488 575.999 203.238 Q575.999 196.895 579.471 193.261 Q582.966 189.627 589.031 189.627 Q590.999 189.627 592.874 190.043 Q594.749 190.437 596.508 191.247 Z" fill="#000000" fill-rule="nonzero" fill-opacity="1" /><path clip-path="url(#clip560)" d="M603.915 180.159 L608.174 180.159 L608.174 216.178 L603.915 216.178 L603.915 180.159 Z" fill="#000000" fill-rule="nonzero" fill-opacity="1" /><path clip-path="url(#clip560)" d="M639.262 202.15 L639.262 204.233 L619.679 204.233 Q619.957 208.631 622.318 210.946 Q624.702 213.238 628.938 213.238 Q631.392 213.238 633.684 212.636 Q635.998 212.034 638.267 210.83 L638.267 214.858 Q635.975 215.83 633.568 216.34 Q631.16 216.849 628.684 216.849 Q622.48 216.849 618.846 213.238 Q615.235 209.627 615.235 203.469 Q615.235 197.104 618.661 193.377 Q622.11 189.627 627.943 189.627 Q633.174 189.627 636.207 193.006 Q639.262 196.363 639.262 202.15 M635.003 200.9 Q634.957 197.405 633.035 195.321 Q631.137 193.238 627.989 193.238 Q624.424 193.238 622.272 195.252 Q620.142 197.266 619.818 200.923 L635.003 200.9 Z" fill="#000000" fill-rule="nonzero" fill-opacity="1" /><path clip-path="url(#clip560)" d="M662.781 191.016 L662.781 195.043 Q660.975 194.117 659.031 193.655 Q657.086 193.192 655.003 193.192 Q651.832 193.192 650.234 194.164 Q648.66 195.136 648.66 197.08 Q648.66 198.562 649.795 199.418 Q650.929 200.252 654.355 201.016 L655.813 201.34 Q660.35 202.312 662.248 204.094 Q664.17 205.854 664.17 209.025 Q664.17 212.636 661.299 214.742 Q658.452 216.849 653.452 216.849 Q651.369 216.849 649.1 216.432 Q646.855 216.039 644.355 215.228 L644.355 210.83 Q646.716 212.057 649.008 212.682 Q651.299 213.284 653.545 213.284 Q656.554 213.284 658.174 212.266 Q659.795 211.224 659.795 209.349 Q659.795 207.613 658.614 206.687 Q657.457 205.761 653.498 204.904 L652.017 204.557 Q648.058 203.724 646.299 202.011 Q644.54 200.275 644.54 197.266 Q644.54 193.608 647.133 191.618 Q649.725 189.627 654.494 189.627 Q656.855 189.627 658.938 189.974 Q661.021 190.321 662.781 191.016 Z" fill="#000000" fill-rule="nonzero" fill-opacity="1" /></svg>
