<?xml version="1.0" encoding="utf-8"?>
<svg xmlns="http://www.w3.org/2000/svg" xmlns:xlink="http://www.w3.org/1999/xlink" width="600" height="400" viewBox="0 0 2400 1600">
<defs>
  <clipPath id="clip490">
    <rect x="0" y="0" width="2400" height="1600"/>
  </clipPath>
</defs>
<path clip-path="url(#clip490)" d="M0 1600 L2400 1600 L2400 8.88178e-14 L0 8.88178e-14  Z" fill="#ffffff" fill-rule="evenodd" fill-opacity="1"/>
<defs>
  <clipPath id="clip491">
    <rect x="480" y="0" width="1681" height="1600"/>
  </clipPath>
</defs>
<path clip-path="url(#clip490)" d="M209.029 1486.45 L2352.76 1486.45 L2352.76 47.2441 L209.029 47.2441  Z" fill="#ffffff" fill-rule="evenodd" fill-opacity="1"/>
<defs>
  <clipPath id="clip492">
    <rect x="209" y="47" width="2145" height="1440"/>
  </clipPath>
</defs>
<polyline clip-path="url(#clip492)" style="stroke:#000000; stroke-linecap:round; stroke-linejoin:round; stroke-width:2; stroke-opacity:0.1; fill:none" points="218.207,1486.45 218.207,47.2441 "/>
<polyline clip-path="url(#clip492)" style="stroke:#000000; stroke-linecap:round; stroke-linejoin:round; stroke-width:2; stroke-opacity:0.1; fill:none" points="618.184,1486.45 618.184,47.2441 "/>
<polyline clip-path="url(#clip492)" style="stroke:#000000; stroke-linecap:round; stroke-linejoin:round; stroke-width:2; stroke-opacity:0.1; fill:none" points="1018.16,1486.45 1018.16,47.2441 "/>
<polyline clip-path="url(#clip492)" style="stroke:#000000; stroke-linecap:round; stroke-linejoin:round; stroke-width:2; stroke-opacity:0.1; fill:none" points="1418.14,1486.45 1418.14,47.2441 "/>
<polyline clip-path="url(#clip492)" style="stroke:#000000; stroke-linecap:round; stroke-linejoin:round; stroke-width:2; stroke-opacity:0.1; fill:none" points="1818.12,1486.45 1818.12,47.2441 "/>
<polyline clip-path="url(#clip492)" style="stroke:#000000; stroke-linecap:round; stroke-linejoin:round; stroke-width:2; stroke-opacity:0.1; fill:none" points="2218.09,1486.45 2218.09,47.2441 "/>
<polyline clip-path="url(#clip492)" style="stroke:#000000; stroke-linecap:round; stroke-linejoin:round; stroke-width:2; stroke-opacity:0.1; fill:none" points="209.029,1461.42 2352.76,1461.42 "/>
<polyline clip-path="url(#clip492)" style="stroke:#000000; stroke-linecap:round; stroke-linejoin:round; stroke-width:2; stroke-opacity:0.1; fill:none" points="209.029,1023.46 2352.76,1023.46 "/>
<polyline clip-path="url(#clip492)" style="stroke:#000000; stroke-linecap:round; stroke-linejoin:round; stroke-width:2; stroke-opacity:0.1; fill:none" points="209.029,585.501 2352.76,585.501 "/>
<polyline clip-path="url(#clip492)" style="stroke:#000000; stroke-linecap:round; stroke-linejoin:round; stroke-width:2; stroke-opacity:0.1; fill:none" points="209.029,147.539 2352.76,147.539 "/>
<polyline clip-path="url(#clip490)" style="stroke:#000000; stroke-linecap:round; stroke-linejoin:round; stroke-width:4; stroke-opacity:1; fill:none" points="209.029,1486.45 2352.76,1486.45 "/>
<polyline clip-path="url(#clip490)" style="stroke:#000000; stroke-linecap:round; stroke-linejoin:round; stroke-width:4; stroke-opacity:1; fill:none" points="218.207,1486.45 218.207,1467.55 "/>
<polyline clip-path="url(#clip490)" style="stroke:#000000; stroke-linecap:round; stroke-linejoin:round; stroke-width:4; stroke-opacity:1; fill:none" points="618.184,1486.45 618.184,1467.55 "/>
<polyline clip-path="url(#clip490)" style="stroke:#000000; stroke-linecap:round; stroke-linejoin:round; stroke-width:4; stroke-opacity:1; fill:none" points="1018.16,1486.45 1018.16,1467.55 "/>
<polyline clip-path="url(#clip490)" style="stroke:#000000; stroke-linecap:round; stroke-linejoin:round; stroke-width:4; stroke-opacity:1; fill:none" points="1418.14,1486.45 1418.14,1467.55 "/>
<polyline clip-path="url(#clip490)" style="stroke:#000000; stroke-linecap:round; stroke-linejoin:round; stroke-width:4; stroke-opacity:1; fill:none" points="1818.12,1486.45 1818.12,1467.55 "/>
<polyline clip-path="url(#clip490)" style="stroke:#000000; stroke-linecap:round; stroke-linejoin:round; stroke-width:4; stroke-opacity:1; fill:none" points="2218.09,1486.45 2218.09,1467.55 "/>
<path clip-path="url(#clip490)" d="M172.27 1532.02 L201.945 1532.02 L201.945 1535.95 L172.27 1535.95 L172.27 1532.02 Z" fill="#000000" fill-rule="nonzero" fill-opacity="1" /><path clip-path="url(#clip490)" d="M212.084 1514.29 L230.441 1514.29 L230.441 1518.22 L216.367 1518.22 L216.367 1526.7 Q217.385 1526.35 218.404 1526.19 Q219.422 1526 220.441 1526 Q226.228 1526 229.607 1529.17 Q232.987 1532.34 232.987 1537.76 Q232.987 1543.34 229.515 1546.44 Q226.042 1549.52 219.723 1549.52 Q217.547 1549.52 215.279 1549.15 Q213.033 1548.78 210.626 1548.04 L210.626 1543.34 Q212.709 1544.47 214.931 1545.03 Q217.154 1545.58 219.63 1545.58 Q223.635 1545.58 225.973 1543.48 Q228.311 1541.37 228.311 1537.76 Q228.311 1534.15 225.973 1532.04 Q223.635 1529.94 219.63 1529.94 Q217.755 1529.94 215.88 1530.35 Q214.029 1530.77 212.084 1531.65 L212.084 1514.29 Z" fill="#000000" fill-rule="nonzero" fill-opacity="1" /><path clip-path="url(#clip490)" d="M252.2 1517.37 Q248.589 1517.37 246.76 1520.93 Q244.954 1524.47 244.954 1531.6 Q244.954 1538.71 246.76 1542.27 Q248.589 1545.82 252.2 1545.82 Q255.834 1545.82 257.639 1542.27 Q259.468 1538.71 259.468 1531.6 Q259.468 1524.47 257.639 1520.93 Q255.834 1517.37 252.2 1517.37 M252.2 1513.66 Q258.01 1513.66 261.065 1518.27 Q264.144 1522.85 264.144 1531.6 Q264.144 1540.33 261.065 1544.94 Q258.01 1549.52 252.2 1549.52 Q246.39 1549.52 243.311 1544.94 Q240.255 1540.33 240.255 1531.6 Q240.255 1522.85 243.311 1518.27 Q246.39 1513.66 252.2 1513.66 Z" fill="#000000" fill-rule="nonzero" fill-opacity="1" /><path clip-path="url(#clip490)" d="M618.184 1517.37 Q614.573 1517.37 612.744 1520.93 Q610.939 1524.47 610.939 1531.6 Q610.939 1538.71 612.744 1542.27 Q614.573 1545.82 618.184 1545.82 Q621.818 1545.82 623.624 1542.27 Q625.453 1538.71 625.453 1531.6 Q625.453 1524.47 623.624 1520.93 Q621.818 1517.37 618.184 1517.37 M618.184 1513.66 Q623.994 1513.66 627.05 1518.27 Q630.128 1522.85 630.128 1531.6 Q630.128 1540.33 627.05 1544.94 Q623.994 1549.52 618.184 1549.52 Q612.374 1549.52 609.295 1544.94 Q606.24 1540.33 606.24 1531.6 Q606.24 1522.85 609.295 1518.27 Q612.374 1513.66 618.184 1513.66 Z" fill="#000000" fill-rule="nonzero" fill-opacity="1" /><path clip-path="url(#clip490)" d="M992.861 1514.29 L1011.22 1514.29 L1011.22 1518.22 L997.143 1518.22 L997.143 1526.7 Q998.162 1526.35 999.18 1526.19 Q1000.2 1526 1001.22 1526 Q1007 1526 1010.38 1529.17 Q1013.76 1532.34 1013.76 1537.76 Q1013.76 1543.34 1010.29 1546.44 Q1006.82 1549.52 1000.5 1549.52 Q998.324 1549.52 996.055 1549.15 Q993.81 1548.78 991.402 1548.04 L991.402 1543.34 Q993.486 1544.47 995.708 1545.03 Q997.93 1545.58 1000.41 1545.58 Q1004.41 1545.58 1006.75 1543.48 Q1009.09 1541.37 1009.09 1537.76 Q1009.09 1534.15 1006.75 1532.04 Q1004.41 1529.94 1000.41 1529.94 Q998.532 1529.94 996.657 1530.35 Q994.805 1530.77 992.861 1531.65 L992.861 1514.29 Z" fill="#000000" fill-rule="nonzero" fill-opacity="1" /><path clip-path="url(#clip490)" d="M1032.98 1517.37 Q1029.37 1517.37 1027.54 1520.93 Q1025.73 1524.47 1025.73 1531.6 Q1025.73 1538.71 1027.54 1542.27 Q1029.37 1545.82 1032.98 1545.82 Q1036.61 1545.82 1038.42 1542.27 Q1040.24 1538.71 1040.24 1531.6 Q1040.24 1524.47 1038.42 1520.93 Q1036.61 1517.37 1032.98 1517.37 M1032.98 1513.66 Q1038.79 1513.66 1041.84 1518.27 Q1044.92 1522.85 1044.92 1531.6 Q1044.92 1540.33 1041.84 1544.94 Q1038.79 1549.52 1032.98 1549.52 Q1027.17 1549.52 1024.09 1544.94 Q1021.03 1540.33 1021.03 1531.6 Q1021.03 1522.85 1024.09 1518.27 Q1027.17 1513.66 1032.98 1513.66 Z" fill="#000000" fill-rule="nonzero" fill-opacity="1" /><path clip-path="url(#clip490)" d="M1377.75 1544.91 L1385.38 1544.91 L1385.38 1518.55 L1377.07 1520.21 L1377.07 1515.95 L1385.34 1514.29 L1390.01 1514.29 L1390.01 1544.91 L1397.65 1544.91 L1397.65 1548.85 L1377.75 1548.85 L1377.75 1544.91 Z" fill="#000000" fill-rule="nonzero" fill-opacity="1" /><path clip-path="url(#clip490)" d="M1417.1 1517.37 Q1413.49 1517.37 1411.66 1520.93 Q1409.85 1524.47 1409.85 1531.6 Q1409.85 1538.71 1411.66 1542.27 Q1413.49 1545.82 1417.1 1545.82 Q1420.73 1545.82 1422.54 1542.27 Q1424.37 1538.71 1424.37 1531.6 Q1424.37 1524.47 1422.54 1520.93 Q1420.73 1517.37 1417.1 1517.37 M1417.1 1513.66 Q1422.91 1513.66 1425.96 1518.27 Q1429.04 1522.85 1429.04 1531.6 Q1429.04 1540.33 1425.96 1544.94 Q1422.91 1549.52 1417.1 1549.52 Q1411.29 1549.52 1408.21 1544.94 Q1405.15 1540.33 1405.15 1531.6 Q1405.15 1522.85 1408.21 1518.27 Q1411.29 1513.66 1417.1 1513.66 Z" fill="#000000" fill-rule="nonzero" fill-opacity="1" /><path clip-path="url(#clip490)" d="M1447.26 1517.37 Q1443.65 1517.37 1441.82 1520.93 Q1440.01 1524.47 1440.01 1531.6 Q1440.01 1538.71 1441.82 1542.27 Q1443.65 1545.82 1447.26 1545.82 Q1450.89 1545.82 1452.7 1542.27 Q1454.53 1538.71 1454.53 1531.6 Q1454.53 1524.47 1452.7 1520.93 Q1450.89 1517.37 1447.26 1517.37 M1447.26 1513.66 Q1453.07 1513.66 1456.12 1518.27 Q1459.2 1522.85 1459.2 1531.6 Q1459.2 1540.33 1456.12 1544.94 Q1453.07 1549.52 1447.26 1549.52 Q1441.45 1549.52 1438.37 1544.94 Q1435.31 1540.33 1435.31 1531.6 Q1435.31 1522.85 1438.37 1518.27 Q1441.45 1513.66 1447.26 1513.66 Z" fill="#000000" fill-rule="nonzero" fill-opacity="1" /><path clip-path="url(#clip490)" d="M1777.72 1544.91 L1785.36 1544.91 L1785.36 1518.55 L1777.05 1520.21 L1777.05 1515.95 L1785.32 1514.29 L1789.99 1514.29 L1789.99 1544.91 L1797.63 1544.91 L1797.63 1548.85 L1777.72 1548.85 L1777.72 1544.91 Z" fill="#000000" fill-rule="nonzero" fill-opacity="1" /><path clip-path="url(#clip490)" d="M1807.12 1514.29 L1825.48 1514.29 L1825.48 1518.22 L1811.4 1518.22 L1811.4 1526.7 Q1812.42 1526.35 1813.44 1526.19 Q1814.46 1526 1815.48 1526 Q1821.26 1526 1824.64 1529.17 Q1828.02 1532.34 1828.02 1537.76 Q1828.02 1543.34 1824.55 1546.44 Q1821.08 1549.52 1814.76 1549.52 Q1812.58 1549.52 1810.32 1549.15 Q1808.07 1548.78 1805.66 1548.04 L1805.66 1543.34 Q1807.75 1544.47 1809.97 1545.03 Q1812.19 1545.58 1814.67 1545.58 Q1818.67 1545.58 1821.01 1543.48 Q1823.35 1541.37 1823.35 1537.76 Q1823.35 1534.15 1821.01 1532.04 Q1818.67 1529.94 1814.67 1529.94 Q1812.79 1529.94 1810.92 1530.35 Q1809.07 1530.77 1807.12 1531.65 L1807.12 1514.29 Z" fill="#000000" fill-rule="nonzero" fill-opacity="1" /><path clip-path="url(#clip490)" d="M1847.24 1517.37 Q1843.63 1517.37 1841.8 1520.93 Q1839.99 1524.47 1839.99 1531.6 Q1839.99 1538.71 1841.8 1542.27 Q1843.63 1545.82 1847.24 1545.82 Q1850.87 1545.82 1852.68 1542.27 Q1854.5 1538.71 1854.5 1531.6 Q1854.5 1524.47 1852.68 1520.93 Q1850.87 1517.37 1847.24 1517.37 M1847.24 1513.66 Q1853.05 1513.66 1856.1 1518.27 Q1859.18 1522.85 1859.18 1531.6 Q1859.18 1540.33 1856.1 1544.94 Q1853.05 1549.52 1847.24 1549.52 Q1841.43 1549.52 1838.35 1544.94 Q1835.29 1540.33 1835.29 1531.6 Q1835.29 1522.85 1838.35 1518.27 Q1841.43 1513.66 1847.24 1513.66 Z" fill="#000000" fill-rule="nonzero" fill-opacity="1" /><path clip-path="url(#clip490)" d="M2181.79 1544.91 L2198.11 1544.91 L2198.11 1548.85 L2176.16 1548.85 L2176.16 1544.91 Q2178.82 1542.16 2183.41 1537.53 Q2188.01 1532.88 2189.19 1531.53 Q2191.44 1529.01 2192.32 1527.27 Q2193.22 1525.51 2193.22 1523.82 Q2193.22 1521.07 2191.28 1519.33 Q2189.36 1517.6 2186.25 1517.6 Q2184.05 1517.6 2181.6 1518.36 Q2179.17 1519.13 2176.39 1520.68 L2176.39 1515.95 Q2179.22 1514.82 2181.67 1514.24 Q2184.12 1513.66 2186.16 1513.66 Q2191.53 1513.66 2194.73 1516.35 Q2197.92 1519.03 2197.92 1523.52 Q2197.92 1525.65 2197.11 1527.57 Q2196.32 1529.47 2194.22 1532.07 Q2193.64 1532.74 2190.54 1535.95 Q2187.43 1539.15 2181.79 1544.91 Z" fill="#000000" fill-rule="nonzero" fill-opacity="1" /><path clip-path="url(#clip490)" d="M2217.92 1517.37 Q2214.31 1517.37 2212.48 1520.93 Q2210.67 1524.47 2210.67 1531.6 Q2210.67 1538.71 2212.48 1542.27 Q2214.31 1545.82 2217.92 1545.82 Q2221.55 1545.82 2223.36 1542.27 Q2225.19 1538.71 2225.19 1531.6 Q2225.19 1524.47 2223.36 1520.93 Q2221.55 1517.37 2217.92 1517.37 M2217.92 1513.66 Q2223.73 1513.66 2226.79 1518.27 Q2229.86 1522.85 2229.86 1531.6 Q2229.86 1540.33 2226.79 1544.94 Q2223.73 1549.52 2217.92 1549.52 Q2212.11 1549.52 2209.03 1544.94 Q2205.98 1540.33 2205.98 1531.6 Q2205.98 1522.85 2209.03 1518.27 Q2212.11 1513.66 2217.92 1513.66 Z" fill="#000000" fill-rule="nonzero" fill-opacity="1" /><path clip-path="url(#clip490)" d="M2248.08 1517.37 Q2244.47 1517.37 2242.64 1520.93 Q2240.84 1524.47 2240.84 1531.6 Q2240.84 1538.71 2242.64 1542.27 Q2244.47 1545.82 2248.08 1545.82 Q2251.72 1545.82 2253.52 1542.27 Q2255.35 1538.71 2255.35 1531.6 Q2255.35 1524.47 2253.52 1520.93 Q2251.72 1517.37 2248.08 1517.37 M2248.08 1513.66 Q2253.89 1513.66 2256.95 1518.27 Q2260.03 1522.85 2260.03 1531.6 Q2260.03 1540.33 2256.95 1544.94 Q2253.89 1549.52 2248.08 1549.52 Q2242.27 1549.52 2239.19 1544.94 Q2236.14 1540.33 2236.14 1531.6 Q2236.14 1522.85 2239.19 1518.27 Q2242.27 1513.66 2248.08 1513.66 Z" fill="#000000" fill-rule="nonzero" fill-opacity="1" /><polyline clip-path="url(#clip490)" style="stroke:#000000; stroke-linecap:round; stroke-linejoin:round; stroke-width:4; stroke-opacity:1; fill:none" points="209.029,1486.45 209.029,47.2441 "/>
<polyline clip-path="url(#clip490)" style="stroke:#000000; stroke-linecap:round; stroke-linejoin:round; stroke-width:4; stroke-opacity:1; fill:none" points="209.029,1461.42 227.926,1461.42 "/>
<polyline clip-path="url(#clip490)" style="stroke:#000000; stroke-linecap:round; stroke-linejoin:round; stroke-width:4; stroke-opacity:1; fill:none" points="209.029,1023.46 227.926,1023.46 "/>
<polyline clip-path="url(#clip490)" style="stroke:#000000; stroke-linecap:round; stroke-linejoin:round; stroke-width:4; stroke-opacity:1; fill:none" points="209.029,585.501 227.926,585.501 "/>
<polyline clip-path="url(#clip490)" style="stroke:#000000; stroke-linecap:round; stroke-linejoin:round; stroke-width:4; stroke-opacity:1; fill:none" points="209.029,147.539 227.926,147.539 "/>
<path clip-path="url(#clip490)" d="M50.9921 1461.88 L80.6679 1461.88 L80.6679 1465.81 L50.9921 1465.81 L50.9921 1461.88 Z" fill="#000000" fill-rule="nonzero" fill-opacity="1" /><path clip-path="url(#clip490)" d="M91.5706 1474.77 L99.2095 1474.77 L99.2095 1448.4 L90.8993 1450.07 L90.8993 1445.81 L99.1632 1444.14 L103.839 1444.14 L103.839 1474.77 L111.478 1474.77 L111.478 1478.7 L91.5706 1478.7 L91.5706 1474.77 Z" fill="#000000" fill-rule="nonzero" fill-opacity="1" /><path clip-path="url(#clip490)" d="M130.922 1447.22 Q127.311 1447.22 125.482 1450.79 Q123.677 1454.33 123.677 1461.46 Q123.677 1468.57 125.482 1472.13 Q127.311 1475.67 130.922 1475.67 Q134.556 1475.67 136.362 1472.13 Q138.191 1468.57 138.191 1461.46 Q138.191 1454.33 136.362 1450.79 Q134.556 1447.22 130.922 1447.22 M130.922 1443.52 Q136.732 1443.52 139.788 1448.13 Q142.867 1452.71 142.867 1461.46 Q142.867 1470.19 139.788 1474.79 Q136.732 1479.38 130.922 1479.38 Q125.112 1479.38 122.033 1474.79 Q118.978 1470.19 118.978 1461.46 Q118.978 1452.71 122.033 1448.13 Q125.112 1443.52 130.922 1443.52 Z" fill="#000000" fill-rule="nonzero" fill-opacity="1" /><path clip-path="url(#clip490)" d="M161.084 1447.22 Q157.473 1447.22 155.644 1450.79 Q153.839 1454.33 153.839 1461.46 Q153.839 1468.57 155.644 1472.13 Q157.473 1475.67 161.084 1475.67 Q164.718 1475.67 166.524 1472.13 Q168.353 1468.57 168.353 1461.46 Q168.353 1454.33 166.524 1450.79 Q164.718 1447.22 161.084 1447.22 M161.084 1443.52 Q166.894 1443.52 169.95 1448.13 Q173.029 1452.71 173.029 1461.46 Q173.029 1470.19 169.95 1474.79 Q166.894 1479.38 161.084 1479.38 Q155.274 1479.38 152.195 1474.79 Q149.14 1470.19 149.14 1461.46 Q149.14 1452.71 152.195 1448.13 Q155.274 1443.52 161.084 1443.52 Z" fill="#000000" fill-rule="nonzero" fill-opacity="1" /><path clip-path="url(#clip490)" d="M161.084 1009.26 Q157.473 1009.26 155.644 1012.83 Q153.839 1016.37 153.839 1023.5 Q153.839 1030.6 155.644 1034.17 Q157.473 1037.71 161.084 1037.71 Q164.718 1037.71 166.524 1034.17 Q168.353 1030.6 168.353 1023.5 Q168.353 1016.37 166.524 1012.83 Q164.718 1009.26 161.084 1009.26 M161.084 1005.56 Q166.894 1005.56 169.95 1010.16 Q173.029 1014.75 173.029 1023.5 Q173.029 1032.22 169.95 1036.83 Q166.894 1041.41 161.084 1041.41 Q155.274 1041.41 152.195 1036.83 Q149.14 1032.22 149.14 1023.5 Q149.14 1014.75 152.195 1010.16 Q155.274 1005.56 161.084 1005.56 Z" fill="#000000" fill-rule="nonzero" fill-opacity="1" /><path clip-path="url(#clip490)" d="M91.5706 598.845 L99.2095 598.845 L99.2095 572.48 L90.8993 574.146 L90.8993 569.887 L99.1632 568.221 L103.839 568.221 L103.839 598.845 L111.478 598.845 L111.478 602.781 L91.5706 602.781 L91.5706 598.845 Z" fill="#000000" fill-rule="nonzero" fill-opacity="1" /><path clip-path="url(#clip490)" d="M130.922 571.299 Q127.311 571.299 125.482 574.864 Q123.677 578.406 123.677 585.535 Q123.677 592.642 125.482 596.206 Q127.311 599.748 130.922 599.748 Q134.556 599.748 136.362 596.206 Q138.191 592.642 138.191 585.535 Q138.191 578.406 136.362 574.864 Q134.556 571.299 130.922 571.299 M130.922 567.596 Q136.732 567.596 139.788 572.202 Q142.867 576.785 142.867 585.535 Q142.867 594.262 139.788 598.868 Q136.732 603.452 130.922 603.452 Q125.112 603.452 122.033 598.868 Q118.978 594.262 118.978 585.535 Q118.978 576.785 122.033 572.202 Q125.112 567.596 130.922 567.596 Z" fill="#000000" fill-rule="nonzero" fill-opacity="1" /><path clip-path="url(#clip490)" d="M161.084 571.299 Q157.473 571.299 155.644 574.864 Q153.839 578.406 153.839 585.535 Q153.839 592.642 155.644 596.206 Q157.473 599.748 161.084 599.748 Q164.718 599.748 166.524 596.206 Q168.353 592.642 168.353 585.535 Q168.353 578.406 166.524 574.864 Q164.718 571.299 161.084 571.299 M161.084 567.596 Q166.894 567.596 169.95 572.202 Q173.029 576.785 173.029 585.535 Q173.029 594.262 169.95 598.868 Q166.894 603.452 161.084 603.452 Q155.274 603.452 152.195 598.868 Q149.14 594.262 149.14 585.535 Q149.14 576.785 152.195 572.202 Q155.274 567.596 161.084 567.596 Z" fill="#000000" fill-rule="nonzero" fill-opacity="1" /><path clip-path="url(#clip490)" d="M94.7882 160.884 L111.108 160.884 L111.108 164.819 L89.1632 164.819 L89.1632 160.884 Q91.8252 158.129 96.4085 153.499 Q101.015 148.847 102.196 147.504 Q104.441 144.981 105.321 143.245 Q106.223 141.486 106.223 139.796 Q106.223 137.041 104.279 135.305 Q102.358 133.569 99.2558 133.569 Q97.0567 133.569 94.603 134.333 Q92.1725 135.097 89.3947 136.648 L89.3947 131.925 Q92.2188 130.791 94.6724 130.213 Q97.1261 129.634 99.1632 129.634 Q104.534 129.634 107.728 132.319 Q110.922 135.004 110.922 139.495 Q110.922 141.625 110.112 143.546 Q109.325 145.444 107.219 148.037 Q106.64 148.708 103.538 151.925 Q100.436 155.12 94.7882 160.884 Z" fill="#000000" fill-rule="nonzero" fill-opacity="1" /><path clip-path="url(#clip490)" d="M130.922 133.338 Q127.311 133.338 125.482 136.902 Q123.677 140.444 123.677 147.574 Q123.677 154.68 125.482 158.245 Q127.311 161.786 130.922 161.786 Q134.556 161.786 136.362 158.245 Q138.191 154.68 138.191 147.574 Q138.191 140.444 136.362 136.902 Q134.556 133.338 130.922 133.338 M130.922 129.634 Q136.732 129.634 139.788 134.24 Q142.867 138.824 142.867 147.574 Q142.867 156.3 139.788 160.907 Q136.732 165.49 130.922 165.49 Q125.112 165.49 122.033 160.907 Q118.978 156.3 118.978 147.574 Q118.978 138.824 122.033 134.24 Q125.112 129.634 130.922 129.634 Z" fill="#000000" fill-rule="nonzero" fill-opacity="1" /><path clip-path="url(#clip490)" d="M161.084 133.338 Q157.473 133.338 155.644 136.902 Q153.839 140.444 153.839 147.574 Q153.839 154.68 155.644 158.245 Q157.473 161.786 161.084 161.786 Q164.718 161.786 166.524 158.245 Q168.353 154.68 168.353 147.574 Q168.353 140.444 166.524 136.902 Q164.718 133.338 161.084 133.338 M161.084 129.634 Q166.894 129.634 169.95 134.24 Q173.029 138.824 173.029 147.574 Q173.029 156.3 169.95 160.907 Q166.894 165.49 161.084 165.49 Q155.274 165.49 152.195 160.907 Q149.14 156.3 149.14 147.574 Q149.14 138.824 152.195 134.24 Q155.274 129.634 161.084 129.634 Z" fill="#000000" fill-rule="nonzero" fill-opacity="1" /><polyline clip-path="url(#clip492)" style="stroke:#009af9; stroke-linecap:round; stroke-linejoin:round; stroke-width:4; stroke-opacity:1; fill:none" points="656.966,1004.31 686.933,999.942 700.028,991.422 725.306,978.988 735.554,972.221 763.261,958.486 781.275,945.811 784.068,928.835 796.723,917.187 812.804,911.859 814.066,897.191 827.109,885.087 852.415,876.729 875.276,872.634 892.43,863.971 913.853,855.058 915.887,841.005 934.908,835.339 951.64,824.441 964.461,812.795 989.099,801.662 1006.02,797.544 1015.93,783.818 1028.89,772.077 1048.5,765.282 1057.18,754.948 1063.05,748.242 1076.02,738.17 1103.3,736.35 1136.22,734.472 1153.2,731.271 1159.25,722.24 1168.35,708.018 1198.69,701.122 1233.07,693.989 1240.06,686.767 1243.62,677.921 1252.48,665.87 1264.91,648.751 1290.41,642.057 1293.03,633.757 1323.88,622.369 1320.86,611.396 1328.5,605.948 1341.56,597.303 1347.93,579.676 1359.47,566.757 1367.23,551.231 1379.76,547.635 1388.24,546.438 1416,535.416 1433.3,520.319 1453.52,508.739 1468.44,492.024 1488.24,491.498 1515.5,483.103 1530.79,478.114 1557.29,465.828 1577.39,453.255 1604.35,441.691 1616.83,432.211 1633.93,421.265 1666.26,411.159 1677.89,401.508 1685.07,391.415 1694.49,383.455 1721.99,380.857 1735.68,363.506 1767.49,356.731 1782.34,349.469 1795.33,345.878 1809.32,339.164 1814.7,339.376 1846.11,334.027 1858.61,321.086 1885.45,315.664 1897.84,302.238 1913.96,290.238 1926.81,285.515 1951.05,273.858 1958.87,270.062 1974.7,256.052 1982.7,243.021 2019.12,224.827 2036.23,221.809 2046.26,206.046 2062.26,196.931 2074.61,185.386 2098.06,183.706 2108.85,169.429 2133.99,169.885 2155.62,158.824 2160.82,146.039 2176.35,141.596 2198.53,136.104 2213.42,123.054 2234.58,117.655 2252.82,109.378 2278.79,92.4268 2292.08,87.9763 "/>
<circle clip-path="url(#clip492)" cx="1368.11" cy="929.28" r="14.4" fill="#e26f46" fill-rule="evenodd" fill-opacity="1" stroke="#000000" stroke-opacity="1" stroke-width="3.2"/>
<circle clip-path="url(#clip492)" cx="681.558" cy="924.245" r="14.4" fill="#e26f46" fill-rule="evenodd" fill-opacity="1" stroke="#000000" stroke-opacity="1" stroke-width="3.2"/>
<circle clip-path="url(#clip492)" cx="269.7" cy="770.095" r="14.4" fill="#e26f46" fill-rule="evenodd" fill-opacity="1" stroke="#000000" stroke-opacity="1" stroke-width="3.2"/>
<circle clip-path="url(#clip492)" cx="505.729" cy="1414.75" r="14.4" fill="#e26f46" fill-rule="evenodd" fill-opacity="1" stroke="#000000" stroke-opacity="1" stroke-width="3.2"/>
<circle clip-path="url(#clip492)" cx="1099.66" cy="1445.72" r="14.4" fill="#e26f46" fill-rule="evenodd" fill-opacity="1" stroke="#000000" stroke-opacity="1" stroke-width="3.2"/>
<circle clip-path="url(#clip492)" cx="411.823" cy="1025.62" r="14.4" fill="#e26f46" fill-rule="evenodd" fill-opacity="1" stroke="#000000" stroke-opacity="1" stroke-width="3.2"/>
<path clip-path="url(#clip490)" d="M280.486 250.738 L734.51 250.738 L734.51 95.2176 L280.486 95.2176  Z" fill="#ffffff" fill-rule="evenodd" fill-opacity="1"/>
<polyline clip-path="url(#clip490)" style="stroke:#000000; stroke-linecap:round; stroke-linejoin:round; stroke-width:4; stroke-opacity:1; fill:none" points="280.486,250.738 734.51,250.738 734.51,95.2176 280.486,95.2176 280.486,250.738 "/>
<polyline clip-path="url(#clip490)" style="stroke:#009af9; stroke-linecap:round; stroke-linejoin:round; stroke-width:4; stroke-opacity:1; fill:none" points="304.305,147.058 447.22,147.058 "/>
<path clip-path="url(#clip490)" d="M486.225 142.393 Q485.507 141.977 484.651 141.791 Q483.817 141.583 482.799 141.583 Q479.188 141.583 477.243 143.944 Q475.322 146.282 475.322 150.68 L475.322 164.338 L471.04 164.338 L471.04 138.412 L475.322 138.412 L475.322 142.44 Q476.665 140.078 478.817 138.944 Q480.97 137.787 484.049 137.787 Q484.489 137.787 485.021 137.856 Q485.553 137.903 486.202 138.018 L486.225 142.393 Z" fill="#000000" fill-rule="nonzero" fill-opacity="1" /><path clip-path="url(#clip490)" d="M499.697 141.398 Q496.271 141.398 494.28 144.083 Q492.29 146.745 492.29 151.398 Q492.29 156.051 494.257 158.736 Q496.248 161.398 499.697 161.398 Q503.1 161.398 505.09 158.713 Q507.081 156.027 507.081 151.398 Q507.081 146.791 505.09 144.106 Q503.1 141.398 499.697 141.398 M499.697 137.787 Q505.252 137.787 508.424 141.398 Q511.595 145.009 511.595 151.398 Q511.595 157.764 508.424 161.398 Q505.252 165.009 499.697 165.009 Q494.118 165.009 490.947 161.398 Q487.799 157.764 487.799 151.398 Q487.799 145.009 490.947 141.398 Q494.118 137.787 499.697 137.787 Z" fill="#000000" fill-rule="nonzero" fill-opacity="1" /><path clip-path="url(#clip490)" d="M537.266 151.398 Q537.266 146.699 535.322 144.037 Q533.4 141.352 530.021 141.352 Q526.641 141.352 524.697 144.037 Q522.775 146.699 522.775 151.398 Q522.775 156.097 524.697 158.782 Q526.641 161.444 530.021 161.444 Q533.4 161.444 535.322 158.782 Q537.266 156.097 537.266 151.398 M522.775 142.347 Q524.118 140.032 526.155 138.921 Q528.215 137.787 531.062 137.787 Q535.785 137.787 538.724 141.537 Q541.687 145.287 541.687 151.398 Q541.687 157.509 538.724 161.259 Q535.785 165.009 531.062 165.009 Q528.215 165.009 526.155 163.898 Q524.118 162.763 522.775 160.449 L522.775 164.338 L518.493 164.338 L518.493 128.319 L522.775 128.319 L522.775 142.347 Z" fill="#000000" fill-rule="nonzero" fill-opacity="1" /><path clip-path="url(#clip490)" d="M558.794 141.398 Q555.368 141.398 553.377 144.083 Q551.386 146.745 551.386 151.398 Q551.386 156.051 553.354 158.736 Q555.345 161.398 558.794 161.398 Q562.197 161.398 564.187 158.713 Q566.178 156.027 566.178 151.398 Q566.178 146.791 564.187 144.106 Q562.197 141.398 558.794 141.398 M558.794 137.787 Q564.349 137.787 567.521 141.398 Q570.692 145.009 570.692 151.398 Q570.692 157.764 567.521 161.398 Q564.349 165.009 558.794 165.009 Q553.215 165.009 550.044 161.398 Q546.896 157.764 546.896 151.398 Q546.896 145.009 550.044 141.398 Q553.215 137.787 558.794 137.787 Z" fill="#000000" fill-rule="nonzero" fill-opacity="1" /><path clip-path="url(#clip490)" d="M581.965 131.051 L581.965 138.412 L590.738 138.412 L590.738 141.722 L581.965 141.722 L581.965 155.796 Q581.965 158.967 582.821 159.87 Q583.701 160.773 586.363 160.773 L590.738 160.773 L590.738 164.338 L586.363 164.338 Q581.433 164.338 579.558 162.509 Q577.683 160.657 577.683 155.796 L577.683 141.722 L574.558 141.722 L574.558 138.412 L577.683 138.412 L577.683 131.051 L581.965 131.051 Z" fill="#000000" fill-rule="nonzero" fill-opacity="1" /><path clip-path="url(#clip490)" d="M615.53 160.449 L615.53 174.199 L611.247 174.199 L611.247 138.412 L615.53 138.412 L615.53 142.347 Q616.872 140.032 618.909 138.921 Q620.969 137.787 623.817 137.787 Q628.539 137.787 631.479 141.537 Q634.442 145.287 634.442 151.398 Q634.442 157.509 631.479 161.259 Q628.539 165.009 623.817 165.009 Q620.969 165.009 618.909 163.898 Q616.872 162.763 615.53 160.449 M630.02 151.398 Q630.02 146.699 628.076 144.037 Q626.155 141.352 622.775 141.352 Q619.395 141.352 617.451 144.037 Q615.53 146.699 615.53 151.398 Q615.53 156.097 617.451 158.782 Q619.395 161.444 622.775 161.444 Q626.155 161.444 628.076 158.782 Q630.02 156.097 630.02 151.398 Z" fill="#000000" fill-rule="nonzero" fill-opacity="1" /><path clip-path="url(#clip490)" d="M653.284 151.305 Q648.122 151.305 646.131 152.486 Q644.141 153.666 644.141 156.514 Q644.141 158.782 645.622 160.125 Q647.127 161.444 649.696 161.444 Q653.238 161.444 655.367 158.944 Q657.52 156.421 657.52 152.254 L657.52 151.305 L653.284 151.305 M661.779 149.546 L661.779 164.338 L657.52 164.338 L657.52 160.402 Q656.062 162.763 653.886 163.898 Q651.71 165.009 648.562 165.009 Q644.58 165.009 642.219 162.787 Q639.881 160.541 639.881 156.791 Q639.881 152.416 642.798 150.194 Q645.738 147.972 651.548 147.972 L657.52 147.972 L657.52 147.555 Q657.52 144.615 655.576 143.018 Q653.654 141.398 650.159 141.398 Q647.937 141.398 645.83 141.93 Q643.724 142.463 641.779 143.527 L641.779 139.592 Q644.117 138.69 646.316 138.25 Q648.516 137.787 650.599 137.787 Q656.224 137.787 659.002 140.703 Q661.779 143.62 661.779 149.546 Z" fill="#000000" fill-rule="nonzero" fill-opacity="1" /><path clip-path="url(#clip490)" d="M674.765 131.051 L674.765 138.412 L683.538 138.412 L683.538 141.722 L674.765 141.722 L674.765 155.796 Q674.765 158.967 675.622 159.87 Q676.501 160.773 679.164 160.773 L683.538 160.773 L683.538 164.338 L679.164 164.338 Q674.233 164.338 672.358 162.509 Q670.483 160.657 670.483 155.796 L670.483 141.722 L667.358 141.722 L667.358 138.412 L670.483 138.412 L670.483 131.051 L674.765 131.051 Z" fill="#000000" fill-rule="nonzero" fill-opacity="1" /><path clip-path="url(#clip490)" d="M710.691 148.689 L710.691 164.338 L706.432 164.338 L706.432 148.828 Q706.432 145.148 704.997 143.319 Q703.562 141.49 700.691 141.49 Q697.242 141.49 695.251 143.69 Q693.261 145.889 693.261 149.685 L693.261 164.338 L688.978 164.338 L688.978 128.319 L693.261 128.319 L693.261 142.44 Q694.788 140.102 696.849 138.944 Q698.932 137.787 701.64 137.787 Q706.108 137.787 708.399 140.565 Q710.691 143.319 710.691 148.689 Z" fill="#000000" fill-rule="nonzero" fill-opacity="1" /><circle clip-path="url(#clip490)" cx="375.763" cy="198.898" r="20.48" fill="#e26f46" fill-rule="evenodd" fill-opacity="1" stroke="#000000" stroke-opacity="1" stroke-width="4.55111"/>
<path clip-path="url(#clip490)" d="M482.938 193.238 Q479.512 193.238 477.521 195.923 Q475.53 198.585 475.53 203.238 Q475.53 207.891 477.498 210.576 Q479.489 213.238 482.938 213.238 Q486.34 213.238 488.331 210.553 Q490.322 207.867 490.322 203.238 Q490.322 198.631 488.331 195.946 Q486.34 193.238 482.938 193.238 M482.938 189.627 Q488.493 189.627 491.665 193.238 Q494.836 196.849 494.836 203.238 Q494.836 209.604 491.665 213.238 Q488.493 216.849 482.938 216.849 Q477.359 216.849 474.188 213.238 Q471.04 209.604 471.04 203.238 Q471.04 196.849 474.188 193.238 Q477.359 189.627 482.938 189.627 Z" fill="#000000" fill-rule="nonzero" fill-opacity="1" /><path clip-path="url(#clip490)" d="M520.507 203.238 Q520.507 198.539 518.563 195.877 Q516.641 193.192 513.262 193.192 Q509.882 193.192 507.938 195.877 Q506.016 198.539 506.016 203.238 Q506.016 207.937 507.938 210.622 Q509.882 213.284 513.262 213.284 Q516.641 213.284 518.563 210.622 Q520.507 207.937 520.507 203.238 M506.016 194.187 Q507.359 191.872 509.396 190.761 Q511.456 189.627 514.303 189.627 Q519.025 189.627 521.965 193.377 Q524.928 197.127 524.928 203.238 Q524.928 209.349 521.965 213.099 Q519.025 216.849 514.303 216.849 Q511.456 216.849 509.396 215.738 Q507.359 214.603 506.016 212.289 L506.016 216.178 L501.734 216.178 L501.734 180.159 L506.016 180.159 L506.016 194.187 Z" fill="#000000" fill-rule="nonzero" fill-opacity="1" /><path clip-path="url(#clip490)" d="M548.516 191.016 L548.516 195.043 Q546.711 194.117 544.766 193.655 Q542.822 193.192 540.738 193.192 Q537.567 193.192 535.97 194.164 Q534.396 195.136 534.396 197.08 Q534.396 198.562 535.53 199.418 Q536.664 200.252 540.09 201.016 L541.549 201.34 Q546.086 202.312 547.984 204.094 Q549.905 205.854 549.905 209.025 Q549.905 212.636 547.035 214.742 Q544.187 216.849 539.187 216.849 Q537.104 216.849 534.836 216.432 Q532.59 216.039 530.09 215.228 L530.09 210.83 Q532.451 212.057 534.743 212.682 Q537.035 213.284 539.28 213.284 Q542.289 213.284 543.91 212.266 Q545.53 211.224 545.53 209.349 Q545.53 207.613 544.349 206.687 Q543.192 205.761 539.234 204.904 L537.752 204.557 Q533.794 203.724 532.035 202.011 Q530.275 200.275 530.275 197.266 Q530.275 193.608 532.868 191.618 Q535.461 189.627 540.229 189.627 Q542.59 189.627 544.674 189.974 Q546.757 190.321 548.516 191.016 Z" fill="#000000" fill-rule="nonzero" fill-opacity="1" /><path clip-path="url(#clip490)" d="M560.9 182.891 L560.9 190.252 L569.673 190.252 L569.673 193.562 L560.9 193.562 L560.9 207.636 Q560.9 210.807 561.757 211.71 Q562.636 212.613 565.298 212.613 L569.673 212.613 L569.673 216.178 L565.298 216.178 Q560.368 216.178 558.493 214.349 Q556.618 212.497 556.618 207.636 L556.618 193.562 L553.493 193.562 L553.493 190.252 L556.618 190.252 L556.618 182.891 L560.9 182.891 Z" fill="#000000" fill-rule="nonzero" fill-opacity="1" /><path clip-path="url(#clip490)" d="M587.058 203.145 Q581.896 203.145 579.905 204.326 Q577.914 205.506 577.914 208.354 Q577.914 210.622 579.396 211.965 Q580.9 213.284 583.47 213.284 Q587.011 213.284 589.141 210.784 Q591.294 208.261 591.294 204.094 L591.294 203.145 L587.058 203.145 M595.553 201.386 L595.553 216.178 L591.294 216.178 L591.294 212.242 Q589.835 214.603 587.659 215.738 Q585.483 216.849 582.335 216.849 Q578.354 216.849 575.993 214.627 Q573.655 212.381 573.655 208.631 Q573.655 204.256 576.571 202.034 Q579.511 199.812 585.321 199.812 L591.294 199.812 L591.294 199.395 Q591.294 196.455 589.349 194.858 Q587.428 193.238 583.933 193.238 Q581.71 193.238 579.604 193.77 Q577.497 194.303 575.553 195.367 L575.553 191.432 Q577.891 190.53 580.09 190.09 Q582.289 189.627 584.372 189.627 Q589.997 189.627 592.775 192.543 Q595.553 195.46 595.553 201.386 Z" fill="#000000" fill-rule="nonzero" fill-opacity="1" /><path clip-path="url(#clip490)" d="M622.983 191.247 L622.983 195.229 Q621.178 194.233 619.349 193.747 Q617.543 193.238 615.692 193.238 Q611.548 193.238 609.256 195.877 Q606.965 198.492 606.965 203.238 Q606.965 207.983 609.256 210.622 Q611.548 213.238 615.692 213.238 Q617.543 213.238 619.349 212.752 Q621.178 212.242 622.983 211.247 L622.983 215.182 Q621.201 216.016 619.28 216.432 Q617.381 216.849 615.229 216.849 Q609.372 216.849 605.923 213.168 Q602.474 209.488 602.474 203.238 Q602.474 196.895 605.946 193.261 Q609.442 189.627 615.506 189.627 Q617.474 189.627 619.349 190.043 Q621.224 190.437 622.983 191.247 Z" fill="#000000" fill-rule="nonzero" fill-opacity="1" /><path clip-path="url(#clip490)" d="M630.391 180.159 L634.65 180.159 L634.65 216.178 L630.391 216.178 L630.391 180.159 Z" fill="#000000" fill-rule="nonzero" fill-opacity="1" /><path clip-path="url(#clip490)" d="M665.738 202.15 L665.738 204.233 L646.154 204.233 Q646.432 208.631 648.793 210.946 Q651.178 213.238 655.414 213.238 Q657.867 213.238 660.159 212.636 Q662.474 212.034 664.742 210.83 L664.742 214.858 Q662.451 215.83 660.043 216.34 Q657.636 216.849 655.159 216.849 Q648.955 216.849 645.321 213.238 Q641.71 209.627 641.71 203.469 Q641.71 197.104 645.136 193.377 Q648.585 189.627 654.418 189.627 Q659.65 189.627 662.682 193.006 Q665.738 196.363 665.738 202.15 M661.478 200.9 Q661.432 197.405 659.511 195.321 Q657.613 193.238 654.465 193.238 Q650.9 193.238 648.747 195.252 Q646.617 197.266 646.293 200.923 L661.478 200.9 Z" fill="#000000" fill-rule="nonzero" fill-opacity="1" /><path clip-path="url(#clip490)" d="M689.256 191.016 L689.256 195.043 Q687.451 194.117 685.506 193.655 Q683.562 193.192 681.478 193.192 Q678.307 193.192 676.71 194.164 Q675.136 195.136 675.136 197.08 Q675.136 198.562 676.27 199.418 Q677.404 200.252 680.83 201.016 L682.289 201.34 Q686.826 202.312 688.724 204.094 Q690.645 205.854 690.645 209.025 Q690.645 212.636 687.775 214.742 Q684.927 216.849 679.927 216.849 Q677.844 216.849 675.576 216.432 Q673.33 216.039 670.83 215.228 L670.83 210.83 Q673.191 212.057 675.483 212.682 Q677.775 213.284 680.02 213.284 Q683.029 213.284 684.65 212.266 Q686.27 211.224 686.27 209.349 Q686.27 207.613 685.089 206.687 Q683.932 205.761 679.974 204.904 L678.492 204.557 Q674.534 203.724 672.775 202.011 Q671.015 200.275 671.015 197.266 Q671.015 193.608 673.608 191.618 Q676.201 189.627 680.969 189.627 Q683.33 189.627 685.413 189.974 Q687.497 190.321 689.256 191.016 Z" fill="#000000" fill-rule="nonzero" fill-opacity="1" /></svg>
