<?xml version="1.0" encoding="utf-8"?>
<svg xmlns="http://www.w3.org/2000/svg" xmlns:xlink="http://www.w3.org/1999/xlink" width="600" height="400" viewBox="0 0 2400 1600">
<defs>
  <clipPath id="clip570">
    <rect x="0" y="0" width="2400" height="1600"/>
  </clipPath>
</defs>
<path clip-path="url(#clip570)" d="M0 1600 L2400 1600 L2400 8.88178e-14 L0 8.88178e-14  Z" fill="#ffffff" fill-rule="evenodd" fill-opacity="1"/>
<defs>
  <clipPath id="clip571">
    <rect x="480" y="0" width="1681" height="1600"/>
  </clipPath>
</defs>
<path clip-path="url(#clip570)" d="M170.857 1486.45 L2352.76 1486.45 L2352.76 47.2441 L170.857 47.2441  Z" fill="#ffffff" fill-rule="evenodd" fill-opacity="1"/>
<defs>
  <clipPath id="clip572">
    <rect x="170" y="47" width="2183" height="1440"/>
  </clipPath>
</defs>
<polyline clip-path="url(#clip572)" style="stroke:#000000; stroke-linecap:round; stroke-linejoin:round; stroke-width:2; stroke-opacity:0.1; fill:none" points="276.279,1486.45 276.279,47.2441 "/>
<polyline clip-path="url(#clip572)" style="stroke:#000000; stroke-linecap:round; stroke-linejoin:round; stroke-width:2; stroke-opacity:0.1; fill:none" points="757.696,1486.45 757.696,47.2441 "/>
<polyline clip-path="url(#clip572)" style="stroke:#000000; stroke-linecap:round; stroke-linejoin:round; stroke-width:2; stroke-opacity:0.1; fill:none" points="1239.11,1486.45 1239.11,47.2441 "/>
<polyline clip-path="url(#clip572)" style="stroke:#000000; stroke-linecap:round; stroke-linejoin:round; stroke-width:2; stroke-opacity:0.1; fill:none" points="1720.53,1486.45 1720.53,47.2441 "/>
<polyline clip-path="url(#clip572)" style="stroke:#000000; stroke-linecap:round; stroke-linejoin:round; stroke-width:2; stroke-opacity:0.1; fill:none" points="2201.95,1486.45 2201.95,47.2441 "/>
<polyline clip-path="url(#clip572)" style="stroke:#000000; stroke-linecap:round; stroke-linejoin:round; stroke-width:2; stroke-opacity:0.1; fill:none" points="170.857,1473.18 2352.76,1473.18 "/>
<polyline clip-path="url(#clip572)" style="stroke:#000000; stroke-linecap:round; stroke-linejoin:round; stroke-width:2; stroke-opacity:0.1; fill:none" points="170.857,1159.24 2352.76,1159.24 "/>
<polyline clip-path="url(#clip572)" style="stroke:#000000; stroke-linecap:round; stroke-linejoin:round; stroke-width:2; stroke-opacity:0.1; fill:none" points="170.857,845.297 2352.76,845.297 "/>
<polyline clip-path="url(#clip572)" style="stroke:#000000; stroke-linecap:round; stroke-linejoin:round; stroke-width:2; stroke-opacity:0.1; fill:none" points="170.857,531.356 2352.76,531.356 "/>
<polyline clip-path="url(#clip572)" style="stroke:#000000; stroke-linecap:round; stroke-linejoin:round; stroke-width:2; stroke-opacity:0.1; fill:none" points="170.857,217.414 2352.76,217.414 "/>
<polyline clip-path="url(#clip570)" style="stroke:#000000; stroke-linecap:round; stroke-linejoin:round; stroke-width:4; stroke-opacity:1; fill:none" points="170.857,1486.45 2352.76,1486.45 "/>
<polyline clip-path="url(#clip570)" style="stroke:#000000; stroke-linecap:round; stroke-linejoin:round; stroke-width:4; stroke-opacity:1; fill:none" points="276.279,1486.45 276.279,1467.55 "/>
<polyline clip-path="url(#clip570)" style="stroke:#000000; stroke-linecap:round; stroke-linejoin:round; stroke-width:4; stroke-opacity:1; fill:none" points="757.696,1486.45 757.696,1467.55 "/>
<polyline clip-path="url(#clip570)" style="stroke:#000000; stroke-linecap:round; stroke-linejoin:round; stroke-width:4; stroke-opacity:1; fill:none" points="1239.11,1486.45 1239.11,1467.55 "/>
<polyline clip-path="url(#clip570)" style="stroke:#000000; stroke-linecap:round; stroke-linejoin:round; stroke-width:4; stroke-opacity:1; fill:none" points="1720.53,1486.45 1720.53,1467.55 "/>
<polyline clip-path="url(#clip570)" style="stroke:#000000; stroke-linecap:round; stroke-linejoin:round; stroke-width:4; stroke-opacity:1; fill:none" points="2201.95,1486.45 2201.95,1467.55 "/>
<path clip-path="url(#clip570)" d="M276.279 1517.37 Q272.668 1517.37 270.839 1520.93 Q269.034 1524.47 269.034 1531.6 Q269.034 1538.71 270.839 1542.27 Q272.668 1545.82 276.279 1545.82 Q279.913 1545.82 281.719 1542.27 Q283.548 1538.71 283.548 1531.6 Q283.548 1524.47 281.719 1520.93 Q279.913 1517.37 276.279 1517.37 M276.279 1513.66 Q282.089 1513.66 285.145 1518.27 Q288.224 1522.85 288.224 1531.6 Q288.224 1540.33 285.145 1544.94 Q282.089 1549.52 276.279 1549.52 Q270.469 1549.52 267.39 1544.94 Q264.335 1540.33 264.335 1531.6 Q264.335 1522.85 267.39 1518.27 Q270.469 1513.66 276.279 1513.66 Z" fill="#000000" fill-rule="nonzero" fill-opacity="1" /><path clip-path="url(#clip570)" d="M732.396 1514.29 L750.752 1514.29 L750.752 1518.22 L736.678 1518.22 L736.678 1526.7 Q737.696 1526.35 738.715 1526.19 Q739.733 1526 740.752 1526 Q746.539 1526 749.919 1529.17 Q753.298 1532.34 753.298 1537.76 Q753.298 1543.34 749.826 1546.44 Q746.354 1549.52 740.034 1549.52 Q737.858 1549.52 735.59 1549.15 Q733.345 1548.78 730.937 1548.04 L730.937 1543.34 Q733.021 1544.47 735.243 1545.03 Q737.465 1545.58 739.942 1545.58 Q743.946 1545.58 746.284 1543.48 Q748.622 1541.37 748.622 1537.76 Q748.622 1534.15 746.284 1532.04 Q743.946 1529.94 739.942 1529.94 Q738.067 1529.94 736.192 1530.35 Q734.34 1530.77 732.396 1531.65 L732.396 1514.29 Z" fill="#000000" fill-rule="nonzero" fill-opacity="1" /><path clip-path="url(#clip570)" d="M772.511 1517.37 Q768.9 1517.37 767.071 1520.93 Q765.266 1524.47 765.266 1531.6 Q765.266 1538.71 767.071 1542.27 Q768.9 1545.82 772.511 1545.82 Q776.145 1545.82 777.951 1542.27 Q779.78 1538.71 779.78 1531.6 Q779.78 1524.47 777.951 1520.93 Q776.145 1517.37 772.511 1517.37 M772.511 1513.66 Q778.321 1513.66 781.377 1518.27 Q784.455 1522.85 784.455 1531.6 Q784.455 1540.33 781.377 1544.94 Q778.321 1549.52 772.511 1549.52 Q766.701 1549.52 763.622 1544.94 Q760.567 1540.33 760.567 1531.6 Q760.567 1522.85 763.622 1518.27 Q766.701 1513.66 772.511 1513.66 Z" fill="#000000" fill-rule="nonzero" fill-opacity="1" /><path clip-path="url(#clip570)" d="M1198.72 1544.91 L1206.36 1544.91 L1206.36 1518.55 L1198.05 1520.21 L1198.05 1515.95 L1206.31 1514.29 L1210.99 1514.29 L1210.99 1544.91 L1218.63 1544.91 L1218.63 1548.85 L1198.72 1548.85 L1198.72 1544.91 Z" fill="#000000" fill-rule="nonzero" fill-opacity="1" /><path clip-path="url(#clip570)" d="M1238.07 1517.37 Q1234.46 1517.37 1232.63 1520.93 Q1230.83 1524.47 1230.83 1531.6 Q1230.83 1538.71 1232.63 1542.27 Q1234.46 1545.82 1238.07 1545.82 Q1241.71 1545.82 1243.51 1542.27 Q1245.34 1538.71 1245.34 1531.6 Q1245.34 1524.47 1243.51 1520.93 Q1241.71 1517.37 1238.07 1517.37 M1238.07 1513.66 Q1243.88 1513.66 1246.94 1518.27 Q1250.02 1522.85 1250.02 1531.6 Q1250.02 1540.33 1246.94 1544.94 Q1243.88 1549.52 1238.07 1549.52 Q1232.26 1549.52 1229.18 1544.94 Q1226.13 1540.33 1226.13 1531.6 Q1226.13 1522.85 1229.18 1518.27 Q1232.26 1513.66 1238.07 1513.66 Z" fill="#000000" fill-rule="nonzero" fill-opacity="1" /><path clip-path="url(#clip570)" d="M1268.23 1517.37 Q1264.62 1517.37 1262.79 1520.93 Q1260.99 1524.47 1260.99 1531.6 Q1260.99 1538.71 1262.79 1542.27 Q1264.62 1545.82 1268.23 1545.82 Q1271.87 1545.82 1273.67 1542.27 Q1275.5 1538.71 1275.5 1531.6 Q1275.5 1524.47 1273.67 1520.93 Q1271.87 1517.37 1268.23 1517.37 M1268.23 1513.66 Q1274.04 1513.66 1277.1 1518.27 Q1280.18 1522.85 1280.18 1531.6 Q1280.18 1540.33 1277.1 1544.94 Q1274.04 1549.52 1268.23 1549.52 Q1262.42 1549.52 1259.34 1544.94 Q1256.29 1540.33 1256.29 1531.6 Q1256.29 1522.85 1259.34 1518.27 Q1262.42 1513.66 1268.23 1513.66 Z" fill="#000000" fill-rule="nonzero" fill-opacity="1" /><path clip-path="url(#clip570)" d="M1680.14 1544.91 L1687.78 1544.91 L1687.78 1518.55 L1679.47 1520.21 L1679.47 1515.95 L1687.73 1514.29 L1692.41 1514.29 L1692.41 1544.91 L1700.04 1544.91 L1700.04 1548.85 L1680.14 1548.85 L1680.14 1544.91 Z" fill="#000000" fill-rule="nonzero" fill-opacity="1" /><path clip-path="url(#clip570)" d="M1709.54 1514.29 L1727.89 1514.29 L1727.89 1518.22 L1713.82 1518.22 L1713.82 1526.7 Q1714.84 1526.35 1715.85 1526.19 Q1716.87 1526 1717.89 1526 Q1723.68 1526 1727.06 1529.17 Q1730.44 1532.34 1730.44 1537.76 Q1730.44 1543.34 1726.97 1546.44 Q1723.49 1549.52 1717.17 1549.52 Q1715 1549.52 1712.73 1549.15 Q1710.48 1548.78 1708.08 1548.04 L1708.08 1543.34 Q1710.16 1544.47 1712.38 1545.03 Q1714.6 1545.58 1717.08 1545.58 Q1721.09 1545.58 1723.42 1543.48 Q1725.76 1541.37 1725.76 1537.76 Q1725.76 1534.15 1723.42 1532.04 Q1721.09 1529.94 1717.08 1529.94 Q1715.21 1529.94 1713.33 1530.35 Q1711.48 1530.77 1709.54 1531.65 L1709.54 1514.29 Z" fill="#000000" fill-rule="nonzero" fill-opacity="1" /><path clip-path="url(#clip570)" d="M1749.65 1517.37 Q1746.04 1517.37 1744.21 1520.93 Q1742.41 1524.47 1742.41 1531.6 Q1742.41 1538.71 1744.21 1542.27 Q1746.04 1545.82 1749.65 1545.82 Q1753.29 1545.82 1755.09 1542.27 Q1756.92 1538.71 1756.92 1531.6 Q1756.92 1524.47 1755.09 1520.93 Q1753.29 1517.37 1749.65 1517.37 M1749.65 1513.66 Q1755.46 1513.66 1758.52 1518.27 Q1761.6 1522.85 1761.6 1531.6 Q1761.6 1540.33 1758.52 1544.94 Q1755.46 1549.52 1749.65 1549.52 Q1743.84 1549.52 1740.76 1544.94 Q1737.71 1540.33 1737.71 1531.6 Q1737.71 1522.85 1740.76 1518.27 Q1743.84 1513.66 1749.65 1513.66 Z" fill="#000000" fill-rule="nonzero" fill-opacity="1" /><path clip-path="url(#clip570)" d="M2165.64 1544.91 L2181.96 1544.91 L2181.96 1548.85 L2160.02 1548.85 L2160.02 1544.91 Q2162.68 1542.16 2167.26 1537.53 Q2171.87 1532.88 2173.05 1531.53 Q2175.29 1529.01 2176.17 1527.27 Q2177.08 1525.51 2177.08 1523.82 Q2177.08 1521.07 2175.13 1519.33 Q2173.21 1517.6 2170.11 1517.6 Q2167.91 1517.6 2165.45 1518.36 Q2163.02 1519.13 2160.25 1520.68 L2160.25 1515.95 Q2163.07 1514.82 2165.52 1514.24 Q2167.98 1513.66 2170.01 1513.66 Q2175.39 1513.66 2178.58 1516.35 Q2181.77 1519.03 2181.77 1523.52 Q2181.77 1525.65 2180.96 1527.57 Q2180.18 1529.47 2178.07 1532.07 Q2177.49 1532.74 2174.39 1535.95 Q2171.29 1539.15 2165.64 1544.91 Z" fill="#000000" fill-rule="nonzero" fill-opacity="1" /><path clip-path="url(#clip570)" d="M2201.77 1517.37 Q2198.16 1517.37 2196.33 1520.93 Q2194.53 1524.47 2194.53 1531.6 Q2194.53 1538.71 2196.33 1542.27 Q2198.16 1545.82 2201.77 1545.82 Q2205.41 1545.82 2207.21 1542.27 Q2209.04 1538.71 2209.04 1531.6 Q2209.04 1524.47 2207.21 1520.93 Q2205.41 1517.37 2201.77 1517.37 M2201.77 1513.66 Q2207.58 1513.66 2210.64 1518.27 Q2213.72 1522.85 2213.72 1531.6 Q2213.72 1540.33 2210.64 1544.94 Q2207.58 1549.52 2201.77 1549.52 Q2195.96 1549.52 2192.89 1544.94 Q2189.83 1540.33 2189.83 1531.6 Q2189.83 1522.85 2192.89 1518.27 Q2195.96 1513.66 2201.77 1513.66 Z" fill="#000000" fill-rule="nonzero" fill-opacity="1" /><path clip-path="url(#clip570)" d="M2231.94 1517.37 Q2228.32 1517.37 2226.5 1520.93 Q2224.69 1524.47 2224.69 1531.6 Q2224.69 1538.71 2226.5 1542.27 Q2228.32 1545.82 2231.94 1545.82 Q2235.57 1545.82 2237.38 1542.27 Q2239.2 1538.71 2239.2 1531.6 Q2239.2 1524.47 2237.38 1520.93 Q2235.57 1517.37 2231.94 1517.37 M2231.94 1513.66 Q2237.75 1513.66 2240.8 1518.27 Q2243.88 1522.85 2243.88 1531.6 Q2243.88 1540.33 2240.8 1544.94 Q2237.75 1549.52 2231.94 1549.52 Q2226.13 1549.52 2223.05 1544.94 Q2219.99 1540.33 2219.99 1531.6 Q2219.99 1522.85 2223.05 1518.27 Q2226.13 1513.66 2231.94 1513.66 Z" fill="#000000" fill-rule="nonzero" fill-opacity="1" /><polyline clip-path="url(#clip570)" style="stroke:#000000; stroke-linecap:round; stroke-linejoin:round; stroke-width:4; stroke-opacity:1; fill:none" points="170.857,1486.45 170.857,47.2441 "/>
<polyline clip-path="url(#clip570)" style="stroke:#000000; stroke-linecap:round; stroke-linejoin:round; stroke-width:4; stroke-opacity:1; fill:none" points="170.857,1473.18 189.755,1473.18 "/>
<polyline clip-path="url(#clip570)" style="stroke:#000000; stroke-linecap:round; stroke-linejoin:round; stroke-width:4; stroke-opacity:1; fill:none" points="170.857,1159.24 189.755,1159.24 "/>
<polyline clip-path="url(#clip570)" style="stroke:#000000; stroke-linecap:round; stroke-linejoin:round; stroke-width:4; stroke-opacity:1; fill:none" points="170.857,845.297 189.755,845.297 "/>
<polyline clip-path="url(#clip570)" style="stroke:#000000; stroke-linecap:round; stroke-linejoin:round; stroke-width:4; stroke-opacity:1; fill:none" points="170.857,531.356 189.755,531.356 "/>
<polyline clip-path="url(#clip570)" style="stroke:#000000; stroke-linecap:round; stroke-linejoin:round; stroke-width:4; stroke-opacity:1; fill:none" points="170.857,217.414 189.755,217.414 "/>
<path clip-path="url(#clip570)" d="M122.913 1458.98 Q119.302 1458.98 117.473 1462.54 Q115.668 1466.09 115.668 1473.21 Q115.668 1480.32 117.473 1483.89 Q119.302 1487.43 122.913 1487.43 Q126.547 1487.43 128.353 1483.89 Q130.182 1480.32 130.182 1473.21 Q130.182 1466.09 128.353 1462.54 Q126.547 1458.98 122.913 1458.98 M122.913 1455.28 Q128.723 1455.28 131.779 1459.88 Q134.857 1464.46 134.857 1473.21 Q134.857 1481.94 131.779 1486.55 Q128.723 1491.13 122.913 1491.13 Q117.103 1491.13 114.024 1486.55 Q110.969 1481.94 110.969 1473.21 Q110.969 1464.46 114.024 1459.88 Q117.103 1455.28 122.913 1455.28 Z" fill="#000000" fill-rule="nonzero" fill-opacity="1" /><path clip-path="url(#clip570)" d="M82.7975 1141.96 L101.154 1141.96 L101.154 1145.89 L87.0799 1145.89 L87.0799 1154.37 Q88.0984 1154.02 89.1169 1153.86 Q90.1354 1153.67 91.1539 1153.67 Q96.941 1153.67 100.321 1156.84 Q103.7 1160.01 103.7 1165.43 Q103.7 1171.01 100.228 1174.11 Q96.7558 1177.19 90.4364 1177.19 Q88.2604 1177.19 85.9919 1176.82 Q83.7466 1176.45 81.3392 1175.71 L81.3392 1171.01 Q83.4225 1172.14 85.6447 1172.7 Q87.8669 1173.25 90.3438 1173.25 Q94.3484 1173.25 96.6863 1171.15 Q99.0243 1169.04 99.0243 1165.43 Q99.0243 1161.82 96.6863 1159.71 Q94.3484 1157.61 90.3438 1157.61 Q88.4688 1157.61 86.5938 1158.02 Q84.7419 1158.44 82.7975 1159.32 L82.7975 1141.96 Z" fill="#000000" fill-rule="nonzero" fill-opacity="1" /><path clip-path="url(#clip570)" d="M122.913 1145.04 Q119.302 1145.04 117.473 1148.6 Q115.668 1152.14 115.668 1159.27 Q115.668 1166.38 117.473 1169.94 Q119.302 1173.49 122.913 1173.49 Q126.547 1173.49 128.353 1169.94 Q130.182 1166.38 130.182 1159.27 Q130.182 1152.14 128.353 1148.6 Q126.547 1145.04 122.913 1145.04 M122.913 1141.33 Q128.723 1141.33 131.779 1145.94 Q134.857 1150.52 134.857 1159.27 Q134.857 1168 131.779 1172.61 Q128.723 1177.19 122.913 1177.19 Q117.103 1177.19 114.024 1172.61 Q110.969 1168 110.969 1159.27 Q110.969 1150.52 114.024 1145.94 Q117.103 1141.33 122.913 1141.33 Z" fill="#000000" fill-rule="nonzero" fill-opacity="1" /><path clip-path="url(#clip570)" d="M53.3995 858.642 L61.0384 858.642 L61.0384 832.277 L52.7282 833.943 L52.7282 829.684 L60.9921 828.017 L65.668 828.017 L65.668 858.642 L73.3068 858.642 L73.3068 862.577 L53.3995 862.577 L53.3995 858.642 Z" fill="#000000" fill-rule="nonzero" fill-opacity="1" /><path clip-path="url(#clip570)" d="M92.7512 831.096 Q89.1401 831.096 87.3114 834.661 Q85.5058 838.202 85.5058 845.332 Q85.5058 852.439 87.3114 856.003 Q89.1401 859.545 92.7512 859.545 Q96.3854 859.545 98.1909 856.003 Q100.02 852.439 100.02 845.332 Q100.02 838.202 98.1909 834.661 Q96.3854 831.096 92.7512 831.096 M92.7512 827.392 Q98.5613 827.392 101.617 831.999 Q104.696 836.582 104.696 845.332 Q104.696 854.059 101.617 858.665 Q98.5613 863.249 92.7512 863.249 Q86.941 863.249 83.8623 858.665 Q80.8068 854.059 80.8068 845.332 Q80.8068 836.582 83.8623 831.999 Q86.941 827.392 92.7512 827.392 Z" fill="#000000" fill-rule="nonzero" fill-opacity="1" /><path clip-path="url(#clip570)" d="M122.913 831.096 Q119.302 831.096 117.473 834.661 Q115.668 838.202 115.668 845.332 Q115.668 852.439 117.473 856.003 Q119.302 859.545 122.913 859.545 Q126.547 859.545 128.353 856.003 Q130.182 852.439 130.182 845.332 Q130.182 838.202 128.353 834.661 Q126.547 831.096 122.913 831.096 M122.913 827.392 Q128.723 827.392 131.779 831.999 Q134.857 836.582 134.857 845.332 Q134.857 854.059 131.779 858.665 Q128.723 863.249 122.913 863.249 Q117.103 863.249 114.024 858.665 Q110.969 854.059 110.969 845.332 Q110.969 836.582 114.024 831.999 Q117.103 827.392 122.913 827.392 Z" fill="#000000" fill-rule="nonzero" fill-opacity="1" /><path clip-path="url(#clip570)" d="M53.3995 544.701 L61.0384 544.701 L61.0384 518.335 L52.7282 520.002 L52.7282 515.743 L60.9921 514.076 L65.668 514.076 L65.668 544.701 L73.3068 544.701 L73.3068 548.636 L53.3995 548.636 L53.3995 544.701 Z" fill="#000000" fill-rule="nonzero" fill-opacity="1" /><path clip-path="url(#clip570)" d="M82.7975 514.076 L101.154 514.076 L101.154 518.011 L87.0799 518.011 L87.0799 526.483 Q88.0984 526.136 89.1169 525.974 Q90.1354 525.789 91.1539 525.789 Q96.941 525.789 100.321 528.96 Q103.7 532.131 103.7 537.548 Q103.7 543.127 100.228 546.229 Q96.7558 549.307 90.4364 549.307 Q88.2604 549.307 85.9919 548.937 Q83.7466 548.566 81.3392 547.826 L81.3392 543.127 Q83.4225 544.261 85.6447 544.817 Q87.8669 545.372 90.3438 545.372 Q94.3484 545.372 96.6863 543.266 Q99.0243 541.159 99.0243 537.548 Q99.0243 533.937 96.6863 531.83 Q94.3484 529.724 90.3438 529.724 Q88.4688 529.724 86.5938 530.141 Q84.7419 530.557 82.7975 531.437 L82.7975 514.076 Z" fill="#000000" fill-rule="nonzero" fill-opacity="1" /><path clip-path="url(#clip570)" d="M122.913 517.155 Q119.302 517.155 117.473 520.719 Q115.668 524.261 115.668 531.391 Q115.668 538.497 117.473 542.062 Q119.302 545.604 122.913 545.604 Q126.547 545.604 128.353 542.062 Q130.182 538.497 130.182 531.391 Q130.182 524.261 128.353 520.719 Q126.547 517.155 122.913 517.155 M122.913 513.451 Q128.723 513.451 131.779 518.057 Q134.857 522.641 134.857 531.391 Q134.857 540.117 131.779 544.724 Q128.723 549.307 122.913 549.307 Q117.103 549.307 114.024 544.724 Q110.969 540.117 110.969 531.391 Q110.969 522.641 114.024 518.057 Q117.103 513.451 122.913 513.451 Z" fill="#000000" fill-rule="nonzero" fill-opacity="1" /><path clip-path="url(#clip570)" d="M56.6171 230.759 L72.9365 230.759 L72.9365 234.694 L50.9921 234.694 L50.9921 230.759 Q53.6541 228.005 58.2375 223.375 Q62.8439 218.722 64.0245 217.38 Q66.2698 214.857 67.1494 213.121 Q68.0522 211.361 68.0522 209.671 Q68.0522 206.917 66.1078 205.181 Q64.1865 203.445 61.0847 203.445 Q58.8856 203.445 56.4319 204.209 Q54.0014 204.972 51.2236 206.523 L51.2236 201.801 Q54.0477 200.667 56.5014 200.088 Q58.955 199.51 60.9921 199.51 Q66.3624 199.51 69.5568 202.195 Q72.7513 204.88 72.7513 209.371 Q72.7513 211.5 71.9411 213.421 Q71.1541 215.32 69.0476 217.912 Q68.4689 218.583 65.367 221.801 Q62.2652 224.995 56.6171 230.759 Z" fill="#000000" fill-rule="nonzero" fill-opacity="1" /><path clip-path="url(#clip570)" d="M92.7512 203.213 Q89.1401 203.213 87.3114 206.778 Q85.5058 210.32 85.5058 217.449 Q85.5058 224.556 87.3114 228.12 Q89.1401 231.662 92.7512 231.662 Q96.3854 231.662 98.1909 228.12 Q100.02 224.556 100.02 217.449 Q100.02 210.32 98.1909 206.778 Q96.3854 203.213 92.7512 203.213 M92.7512 199.51 Q98.5613 199.51 101.617 204.116 Q104.696 208.699 104.696 217.449 Q104.696 226.176 101.617 230.782 Q98.5613 235.366 92.7512 235.366 Q86.941 235.366 83.8623 230.782 Q80.8068 226.176 80.8068 217.449 Q80.8068 208.699 83.8623 204.116 Q86.941 199.51 92.7512 199.51 Z" fill="#000000" fill-rule="nonzero" fill-opacity="1" /><path clip-path="url(#clip570)" d="M122.913 203.213 Q119.302 203.213 117.473 206.778 Q115.668 210.32 115.668 217.449 Q115.668 224.556 117.473 228.12 Q119.302 231.662 122.913 231.662 Q126.547 231.662 128.353 228.12 Q130.182 224.556 130.182 217.449 Q130.182 210.32 128.353 206.778 Q126.547 203.213 122.913 203.213 M122.913 199.51 Q128.723 199.51 131.779 204.116 Q134.857 208.699 134.857 217.449 Q134.857 226.176 131.779 230.782 Q128.723 235.366 122.913 235.366 Q117.103 235.366 114.024 230.782 Q110.969 226.176 110.969 217.449 Q110.969 208.699 114.024 204.116 Q117.103 199.51 122.913 199.51 Z" fill="#000000" fill-rule="nonzero" fill-opacity="1" /><polyline clip-path="url(#clip572)" style="stroke:#009af9; stroke-linecap:round; stroke-linejoin:round; stroke-width:4; stroke-opacity:1; fill:none" points="322.957,1445.72 359.027,1439.46 374.788,1427.25 405.213,1409.42 417.547,1399.72 450.895,1380.03 472.578,1361.86 475.939,1337.52 491.171,1320.82 510.526,1313.18 512.045,1292.15 527.743,1274.8 558.202,1262.82 585.718,1256.95 606.364,1244.53 632.15,1231.75 634.598,1211.6 657.492,1203.48 677.63,1187.85 693.062,1171.16 722.717,1155.2 743.084,1149.29 755.012,1129.61 770.614,1112.78 794.215,1103.04 804.656,1088.23 811.729,1078.61 827.331,1064.17 860.165,1061.56 899.799,1058.87 920.235,1054.28 927.512,1041.33 938.461,1020.94 974.977,1011.06 1016.36,1000.83 1024.78,990.477 1029.07,977.796 1039.73,960.519 1054.69,935.976 1085.37,926.379 1088.53,914.48 1125.67,898.154 1122.03,882.423 1131.22,874.612 1146.95,862.217 1154.61,836.947 1168.5,818.425 1177.84,796.167 1192.92,791.011 1203.13,789.295 1236.54,773.493 1257.36,751.85 1281.7,735.248 1299.65,711.285 1323.49,710.531 1356.3,698.495 1374.71,691.342 1406.6,673.73 1430.79,655.704 1463.24,639.126 1478.26,625.534 1498.84,609.842 1537.76,595.353 1551.75,581.517 1560.4,567.046 1571.73,555.635 1604.83,551.91 1621.31,527.035 1659.6,517.323 1677.48,506.912 1693.11,501.763 1709.95,492.138 1716.42,492.442 1754.23,484.773 1769.27,466.22 1801.58,458.447 1816.49,439.199 1835.89,421.995 1851.36,415.224 1880.53,398.512 1889.94,393.07 1909,372.984 1918.62,354.302 1962.46,328.219 1983.06,323.892 1995.13,301.293 2014.39,288.226 2029.25,271.674 2057.47,269.266 2070.46,248.797 2100.72,249.45 2126.76,233.593 2133.01,215.264 2151.7,208.895 2178.41,201.022 2196.33,182.312 2221.79,174.571 2243.74,162.705 2275,138.403 2291,132.023 "/>
<polyline clip-path="url(#clip572)" style="stroke:#e26f46; stroke-linecap:round; stroke-linejoin:round; stroke-width:4; stroke-opacity:1; fill:none" points="258.005,1422.27 232.609,1358.59 "/>
<polyline clip-path="url(#clip572)" style="stroke:#e26f46; stroke-linecap:round; stroke-linejoin:round; stroke-width:4; stroke-opacity:1; fill:none" points="232.609,1358.59 251.07,1346.26 "/>
<polyline clip-path="url(#clip572)" style="stroke:#e26f46; stroke-linecap:round; stroke-linejoin:round; stroke-width:4; stroke-opacity:1; fill:none" points="251.07,1346.26 279.138,1327.15 "/>
<polyline clip-path="url(#clip572)" style="stroke:#e26f46; stroke-linecap:round; stroke-linejoin:round; stroke-width:4; stroke-opacity:1; fill:none" points="279.138,1327.15 294.38,1317.27 "/>
<polyline clip-path="url(#clip572)" style="stroke:#e26f46; stroke-linecap:round; stroke-linejoin:round; stroke-width:4; stroke-opacity:1; fill:none" points="294.38,1317.27 327.256,1297.43 "/>
<polyline clip-path="url(#clip572)" style="stroke:#e26f46; stroke-linecap:round; stroke-linejoin:round; stroke-width:4; stroke-opacity:1; fill:none" points="327.256,1297.43 348.722,1281.18 "/>
<polyline clip-path="url(#clip572)" style="stroke:#e26f46; stroke-linecap:round; stroke-linejoin:round; stroke-width:4; stroke-opacity:1; fill:none" points="348.722,1281.18 351.796,1258.65 "/>
<polyline clip-path="url(#clip572)" style="stroke:#e26f46; stroke-linecap:round; stroke-linejoin:round; stroke-width:4; stroke-opacity:1; fill:none" points="351.796,1258.65 366.083,1241.75 "/>
<polyline clip-path="url(#clip572)" style="stroke:#e26f46; stroke-linecap:round; stroke-linejoin:round; stroke-width:4; stroke-opacity:1; fill:none" points="366.083,1241.75 382.757,1234.05 "/>
<polyline clip-path="url(#clip572)" style="stroke:#e26f46; stroke-linecap:round; stroke-linejoin:round; stroke-width:4; stroke-opacity:1; fill:none" points="382.757,1234.05 388.538,1212.84 "/>
<polyline clip-path="url(#clip572)" style="stroke:#e26f46; stroke-linecap:round; stroke-linejoin:round; stroke-width:4; stroke-opacity:1; fill:none" points="388.538,1212.84 400.505,1195.77 "/>
<polyline clip-path="url(#clip572)" style="stroke:#e26f46; stroke-linecap:round; stroke-linejoin:round; stroke-width:4; stroke-opacity:0.99; fill:none" points="400.505,1195.77 428.492,1183.95 "/>
<polyline clip-path="url(#clip572)" style="stroke:#e26f46; stroke-linecap:round; stroke-linejoin:round; stroke-width:4; stroke-opacity:0.98; fill:none" points="428.492,1183.95 455.713,1182.1 "/>
<polyline clip-path="url(#clip572)" style="stroke:#e26f46; stroke-linecap:round; stroke-linejoin:round; stroke-width:4; stroke-opacity:0.97; fill:none" points="455.713,1182.1 476,1167.53 "/>
<polyline clip-path="url(#clip572)" style="stroke:#e26f46; stroke-linecap:round; stroke-linejoin:round; stroke-width:4; stroke-opacity:0.96; fill:none" points="476,1167.53 499.422,1157.25 "/>
<polyline clip-path="url(#clip572)" style="stroke:#e26f46; stroke-linecap:round; stroke-linejoin:round; stroke-width:4; stroke-opacity:0.95; fill:none" points="499.422,1157.25 507.589,1136.67 "/>
<polyline clip-path="url(#clip572)" style="stroke:#e26f46; stroke-linecap:round; stroke-linejoin:round; stroke-width:4; stroke-opacity:0.94; fill:none" points="507.589,1136.67 527.896,1127.18 "/>
<polyline clip-path="url(#clip572)" style="stroke:#e26f46; stroke-linecap:round; stroke-linejoin:round; stroke-width:4; stroke-opacity:0.93; fill:none" points="527.896,1127.18 543.907,1112.98 "/>
<polyline clip-path="url(#clip572)" style="stroke:#e26f46; stroke-linecap:round; stroke-linejoin:round; stroke-width:4; stroke-opacity:0.92; fill:none" points="543.907,1112.98 561.554,1094.84 "/>
<polyline clip-path="url(#clip572)" style="stroke:#e26f46; stroke-linecap:round; stroke-linejoin:round; stroke-width:4; stroke-opacity:0.91; fill:none" points="561.554,1094.84 589.413,1080.38 "/>
<polyline clip-path="url(#clip572)" style="stroke:#e26f46; stroke-linecap:round; stroke-linejoin:round; stroke-width:4; stroke-opacity:0.9; fill:none" points="589.413,1080.38 610.72,1076.22 "/>
<polyline clip-path="url(#clip572)" style="stroke:#e26f46; stroke-linecap:round; stroke-linejoin:round; stroke-width:4; stroke-opacity:0.89; fill:none" points="610.72,1076.22 622.198,1057.12 "/>
<polyline clip-path="url(#clip572)" style="stroke:#e26f46; stroke-linecap:round; stroke-linejoin:round; stroke-width:4; stroke-opacity:0.88; fill:none" points="622.198,1057.12 634.185,1041.09 "/>
<polyline clip-path="url(#clip572)" style="stroke:#e26f46; stroke-linecap:round; stroke-linejoin:round; stroke-width:4; stroke-opacity:0.87; fill:none" points="634.185,1041.09 660.549,1030.02 "/>
<polyline clip-path="url(#clip572)" style="stroke:#e26f46; stroke-linecap:round; stroke-linejoin:round; stroke-width:4; stroke-opacity:0.86; fill:none" points="660.549,1030.02 669.805,1017.87 "/>
<polyline clip-path="url(#clip572)" style="stroke:#e26f46; stroke-linecap:round; stroke-linejoin:round; stroke-width:4; stroke-opacity:0.85; fill:none" points="669.805,1017.87 674.41,1004.79 "/>
<polyline clip-path="url(#clip572)" style="stroke:#e26f46; stroke-linecap:round; stroke-linejoin:round; stroke-width:4; stroke-opacity:0.84; fill:none" points="674.41,1004.79 688.701,992.743 "/>
<polyline clip-path="url(#clip572)" style="stroke:#e26f46; stroke-linecap:round; stroke-linejoin:round; stroke-width:4; stroke-opacity:0.83; fill:none" points="688.701,992.743 727.081,988.709 "/>
<polyline clip-path="url(#clip572)" style="stroke:#e26f46; stroke-linecap:round; stroke-linejoin:round; stroke-width:4; stroke-opacity:0.82; fill:none" points="727.081,988.709 762.245,986.807 "/>
<polyline clip-path="url(#clip572)" style="stroke:#e26f46; stroke-linecap:round; stroke-linejoin:round; stroke-width:4; stroke-opacity:0.81; fill:none" points="762.245,986.807 781.945,982.432 "/>
<polyline clip-path="url(#clip572)" style="stroke:#e26f46; stroke-linecap:round; stroke-linejoin:round; stroke-width:4; stroke-opacity:0.8; fill:none" points="781.945,982.432 788.55,971.908 "/>
<polyline clip-path="url(#clip572)" style="stroke:#e26f46; stroke-linecap:round; stroke-linejoin:round; stroke-width:4; stroke-opacity:0.79; fill:none" points="788.55,971.908 802.112,949.833 "/>
<polyline clip-path="url(#clip572)" style="stroke:#e26f46; stroke-linecap:round; stroke-linejoin:round; stroke-width:4; stroke-opacity:0.78; fill:none" points="802.112,949.833 835.703,942.501 "/>
<polyline clip-path="url(#clip572)" style="stroke:#e26f46; stroke-linecap:round; stroke-linejoin:round; stroke-width:4; stroke-opacity:0.77; fill:none" points="835.703,942.501 875.465,932.865 "/>
<polyline clip-path="url(#clip572)" style="stroke:#e26f46; stroke-linecap:round; stroke-linejoin:round; stroke-width:4; stroke-opacity:0.76; fill:none" points="875.465,932.865 882.829,923.004 "/>
<polyline clip-path="url(#clip572)" style="stroke:#e26f46; stroke-linecap:round; stroke-linejoin:round; stroke-width:4; stroke-opacity:0.75; fill:none" points="882.829,923.004 889.051,910.078 "/>
<polyline clip-path="url(#clip572)" style="stroke:#e26f46; stroke-linecap:round; stroke-linejoin:round; stroke-width:4; stroke-opacity:0.74; fill:none" points="889.051,910.078 896.299,891.865 "/>
<polyline clip-path="url(#clip572)" style="stroke:#e26f46; stroke-linecap:round; stroke-linejoin:round; stroke-width:4; stroke-opacity:0.73; fill:none" points="896.299,891.865 914.116,869.068 "/>
<polyline clip-path="url(#clip572)" style="stroke:#e26f46; stroke-linecap:round; stroke-linejoin:round; stroke-width:4; stroke-opacity:0.72; fill:none" points="914.116,869.068 938.856,859.479 "/>
<polyline clip-path="url(#clip572)" style="stroke:#e26f46; stroke-linecap:round; stroke-linejoin:round; stroke-width:4; stroke-opacity:0.71; fill:none" points="938.856,859.479 944.412,846.428 "/>
<polyline clip-path="url(#clip572)" style="stroke:#e26f46; stroke-linecap:round; stroke-linejoin:round; stroke-width:4; stroke-opacity:0.7; fill:none" points="944.412,846.428 982.982,832.348 "/>
<polyline clip-path="url(#clip572)" style="stroke:#e26f46; stroke-linecap:round; stroke-linejoin:round; stroke-width:4; stroke-opacity:0.69; fill:none" points="982.982,832.348 978.357,816.514 "/>
<polyline clip-path="url(#clip572)" style="stroke:#e26f46; stroke-linecap:round; stroke-linejoin:round; stroke-width:4; stroke-opacity:0.68; fill:none" points="978.357,816.514 986.571,809.026 "/>
<polyline clip-path="url(#clip572)" style="stroke:#e26f46; stroke-linecap:round; stroke-linejoin:round; stroke-width:4; stroke-opacity:0.67; fill:none" points="986.571,809.026 999.926,796.208 "/>
<polyline clip-path="url(#clip572)" style="stroke:#e26f46; stroke-linecap:round; stroke-linejoin:round; stroke-width:4; stroke-opacity:0.66; fill:none" points="999.926,796.208 1011.49,774.491 "/>
<polyline clip-path="url(#clip572)" style="stroke:#e26f46; stroke-linecap:round; stroke-linejoin:round; stroke-width:4; stroke-opacity:0.65; fill:none" points="1011.49,774.491 1022.27,755.068 "/>
<polyline clip-path="url(#clip572)" style="stroke:#e26f46; stroke-linecap:round; stroke-linejoin:round; stroke-width:4; stroke-opacity:0.64; fill:none" points="1022.27,755.068 1033.57,731.206 "/>
<polyline clip-path="url(#clip572)" style="stroke:#e26f46; stroke-linecap:round; stroke-linejoin:round; stroke-width:4; stroke-opacity:0.63; fill:none" points="1033.57,731.206 1046.24,725.886 "/>
<polyline clip-path="url(#clip572)" style="stroke:#e26f46; stroke-linecap:round; stroke-linejoin:round; stroke-width:4; stroke-opacity:0.62; fill:none" points="1046.24,725.886 1059.81,726.094 "/>
<polyline clip-path="url(#clip572)" style="stroke:#e26f46; stroke-linecap:round; stroke-linejoin:round; stroke-width:4; stroke-opacity:0.61; fill:none" points="1059.81,726.094 1087.18,709.393 "/>
<polyline clip-path="url(#clip572)" style="stroke:#e26f46; stroke-linecap:round; stroke-linejoin:round; stroke-width:4; stroke-opacity:0.6; fill:none" points="1087.18,709.393 1112.38,687.275 "/>
<polyline clip-path="url(#clip572)" style="stroke:#e26f46; stroke-linecap:round; stroke-linejoin:round; stroke-width:4; stroke-opacity:0.59; fill:none" points="1112.38,687.275 1134.1,670.949 "/>
<polyline clip-path="url(#clip572)" style="stroke:#e26f46; stroke-linecap:round; stroke-linejoin:round; stroke-width:4; stroke-opacity:0.58; fill:none" points="1134.1,670.949 1149.98,649.357 "/>
<polyline clip-path="url(#clip572)" style="stroke:#e26f46; stroke-linecap:round; stroke-linejoin:round; stroke-width:4; stroke-opacity:0.57; fill:none" points="1149.98,649.357 1175.66,647.064 "/>
<polyline clip-path="url(#clip572)" style="stroke:#e26f46; stroke-linecap:round; stroke-linejoin:round; stroke-width:4; stroke-opacity:0.56; fill:none" points="1175.66,647.064 1206.92,637.136 "/>
<polyline clip-path="url(#clip572)" style="stroke:#e26f46; stroke-linecap:round; stroke-linejoin:round; stroke-width:4; stroke-opacity:0.55; fill:none" points="1206.92,637.136 1221.89,629.671 "/>
<polyline clip-path="url(#clip572)" style="stroke:#e26f46; stroke-linecap:round; stroke-linejoin:round; stroke-width:4; stroke-opacity:0.54; fill:none" points="1221.89,629.671 1256.52,612.839 "/>
<polyline clip-path="url(#clip572)" style="stroke:#e26f46; stroke-linecap:round; stroke-linejoin:round; stroke-width:4; stroke-opacity:0.53; fill:none" points="1256.52,612.839 1280.36,594.128 "/>
<polyline clip-path="url(#clip572)" style="stroke:#e26f46; stroke-linecap:round; stroke-linejoin:round; stroke-width:4; stroke-opacity:0.52; fill:none" points="1280.36,594.128 1311.82,579.4 "/>
<polyline clip-path="url(#clip572)" style="stroke:#e26f46; stroke-linecap:round; stroke-linejoin:round; stroke-width:4; stroke-opacity:0.51; fill:none" points="1311.82,579.4 1328.03,565.897 "/>
<polyline clip-path="url(#clip572)" style="stroke:#e26f46; stroke-linecap:round; stroke-linejoin:round; stroke-width:4; stroke-opacity:0.5; fill:none" points="1328.03,565.897 1347.8,548.254 "/>
<polyline clip-path="url(#clip572)" style="stroke:#e26f46; stroke-linecap:round; stroke-linejoin:round; stroke-width:4; stroke-opacity:0.49; fill:none" points="1347.8,548.254 1386.29,533.884 "/>
<polyline clip-path="url(#clip572)" style="stroke:#e26f46; stroke-linecap:round; stroke-linejoin:round; stroke-width:4; stroke-opacity:0.48; fill:none" points="1386.29,533.884 1400.27,522.609 "/>
<polyline clip-path="url(#clip572)" style="stroke:#e26f46; stroke-linecap:round; stroke-linejoin:round; stroke-width:4; stroke-opacity:0.47; fill:none" points="1400.27,522.609 1403.04,508.57 "/>
<polyline clip-path="url(#clip572)" style="stroke:#e26f46; stroke-linecap:round; stroke-linejoin:round; stroke-width:4; stroke-opacity:0.46; fill:none" points="1403.04,508.57 1415.36,496.534 "/>
<polyline clip-path="url(#clip572)" style="stroke:#e26f46; stroke-linecap:round; stroke-linejoin:round; stroke-width:4; stroke-opacity:0.45; fill:none" points="1415.36,496.534 1447.3,494.995 "/>
<polyline clip-path="url(#clip572)" style="stroke:#e26f46; stroke-linecap:round; stroke-linejoin:round; stroke-width:4; stroke-opacity:0.44; fill:none" points="1447.3,494.995 1463.68,469.201 "/>
<polyline clip-path="url(#clip572)" style="stroke:#e26f46; stroke-linecap:round; stroke-linejoin:round; stroke-width:4; stroke-opacity:0.43; fill:none" points="1463.68,469.201 1500.92,460.368 "/>
<polyline clip-path="url(#clip572)" style="stroke:#e26f46; stroke-linecap:round; stroke-linejoin:round; stroke-width:4; stroke-opacity:0.42; fill:none" points="1500.92,460.368 1521.93,450.079 "/>
<polyline clip-path="url(#clip572)" style="stroke:#e26f46; stroke-linecap:round; stroke-linejoin:round; stroke-width:4; stroke-opacity:0.41; fill:none" points="1521.93,450.079 1536.82,445.265 "/>
<polyline clip-path="url(#clip572)" style="stroke:#e26f46; stroke-linecap:round; stroke-linejoin:round; stroke-width:4; stroke-opacity:0.4; fill:none" points="1536.82,445.265 1550.74,437.403 "/>
<polyline clip-path="url(#clip572)" style="stroke:#e26f46; stroke-linecap:round; stroke-linejoin:round; stroke-width:4; stroke-opacity:0.39; fill:none" points="1550.74,437.403 1558.61,434.486 "/>
<polyline clip-path="url(#clip572)" style="stroke:#e26f46; stroke-linecap:round; stroke-linejoin:round; stroke-width:4; stroke-opacity:0.38; fill:none" points="1558.61,434.486 1594.95,429.696 "/>
<polyline clip-path="url(#clip572)" style="stroke:#e26f46; stroke-linecap:round; stroke-linejoin:round; stroke-width:4; stroke-opacity:0.37; fill:none" points="1594.95,429.696 1605.09,411.371 "/>
<polyline clip-path="url(#clip572)" style="stroke:#e26f46; stroke-linecap:round; stroke-linejoin:round; stroke-width:4; stroke-opacity:0.36; fill:none" points="1605.09,411.371 1639.82,405.962 "/>
<polyline clip-path="url(#clip572)" style="stroke:#e26f46; stroke-linecap:round; stroke-linejoin:round; stroke-width:4; stroke-opacity:0.35; fill:none" points="1639.82,405.962 1653.78,385.745 "/>
<polyline clip-path="url(#clip572)" style="stroke:#e26f46; stroke-linecap:round; stroke-linejoin:round; stroke-width:4; stroke-opacity:0.34; fill:none" points="1653.78,385.745 1670.45,366.693 "/>
<polyline clip-path="url(#clip572)" style="stroke:#e26f46; stroke-linecap:round; stroke-linejoin:round; stroke-width:4; stroke-opacity:0.33; fill:none" points="1670.45,366.693 1687.98,363.23 "/>
<polyline clip-path="url(#clip572)" style="stroke:#e26f46; stroke-linecap:round; stroke-linejoin:round; stroke-width:4; stroke-opacity:0.32; fill:none" points="1687.98,363.23 1715.28,346.596 "/>
<polyline clip-path="url(#clip572)" style="stroke:#e26f46; stroke-linecap:round; stroke-linejoin:round; stroke-width:4; stroke-opacity:0.31; fill:none" points="1715.28,346.596 1727.54,339.78 "/>
<polyline clip-path="url(#clip572)" style="stroke:#e26f46; stroke-linecap:round; stroke-linejoin:round; stroke-width:4; stroke-opacity:0.3; fill:none" points="1727.54,339.78 1746.84,322.745 "/>
<polyline clip-path="url(#clip572)" style="stroke:#e26f46; stroke-linecap:round; stroke-linejoin:round; stroke-width:4; stroke-opacity:0.29; fill:none" points="1746.84,322.745 1753.74,301.872 "/>
<polyline clip-path="url(#clip572)" style="stroke:#e26f46; stroke-linecap:round; stroke-linejoin:round; stroke-width:4; stroke-opacity:0.28; fill:none" points="1753.74,301.872 1798.06,275.831 "/>
<polyline clip-path="url(#clip572)" style="stroke:#e26f46; stroke-linecap:round; stroke-linejoin:round; stroke-width:4; stroke-opacity:0.27; fill:none" points="1798.06,275.831 1817.79,272.072 "/>
<polyline clip-path="url(#clip572)" style="stroke:#e26f46; stroke-linecap:round; stroke-linejoin:round; stroke-width:4; stroke-opacity:0.26; fill:none" points="1817.79,272.072 1829.97,249.663 "/>
<polyline clip-path="url(#clip572)" style="stroke:#e26f46; stroke-linecap:round; stroke-linejoin:round; stroke-width:4; stroke-opacity:0.25; fill:none" points="1829.97,249.663 1846.27,236.412 "/>
<polyline clip-path="url(#clip572)" style="stroke:#e26f46; stroke-linecap:round; stroke-linejoin:round; stroke-width:4; stroke-opacity:0.24; fill:none" points="1846.27,236.412 1862.54,222.052 "/>
<polyline clip-path="url(#clip572)" style="stroke:#e26f46; stroke-linecap:round; stroke-linejoin:round; stroke-width:4; stroke-opacity:0.23; fill:none" points="1862.54,222.052 1893.15,220.116 "/>
<polyline clip-path="url(#clip572)" style="stroke:#e26f46; stroke-linecap:round; stroke-linejoin:round; stroke-width:4; stroke-opacity:0.22; fill:none" points="1893.15,220.116 1901.36,198.927 "/>
<polyline clip-path="url(#clip572)" style="stroke:#e26f46; stroke-linecap:round; stroke-linejoin:round; stroke-width:4; stroke-opacity:0.21; fill:none" points="1901.36,198.927 1932.19,198.607 "/>
<polyline clip-path="url(#clip572)" style="stroke:#e26f46; stroke-linecap:round; stroke-linejoin:round; stroke-width:4; stroke-opacity:0.2; fill:none" points="1932.19,198.607 1957.39,185.874 "/>
<polyline clip-path="url(#clip572)" style="stroke:#e26f46; stroke-linecap:round; stroke-linejoin:round; stroke-width:4; stroke-opacity:0.19; fill:none" points="1957.39,185.874 1962.23,165.495 "/>
<polyline clip-path="url(#clip572)" style="stroke:#e26f46; stroke-linecap:round; stroke-linejoin:round; stroke-width:4; stroke-opacity:0.18; fill:none" points="1962.23,165.495 1980.27,162.26 "/>
<polyline clip-path="url(#clip572)" style="stroke:#e26f46; stroke-linecap:round; stroke-linejoin:round; stroke-width:4; stroke-opacity:0.17; fill:none" points="1980.27,162.26 2006.62,152.009 "/>
<polyline clip-path="url(#clip572)" style="stroke:#e26f46; stroke-linecap:round; stroke-linejoin:round; stroke-width:4; stroke-opacity:0.16; fill:none" points="2006.62,152.009 2025.04,134.104 "/>
<polyline clip-path="url(#clip572)" style="stroke:#e26f46; stroke-linecap:round; stroke-linejoin:round; stroke-width:4; stroke-opacity:0.15; fill:none" points="2025.04,134.104 2051.89,127.708 "/>
<polyline clip-path="url(#clip572)" style="stroke:#e26f46; stroke-linecap:round; stroke-linejoin:round; stroke-width:4; stroke-opacity:0.14; fill:none" points="2051.89,127.708 2072.29,117.057 "/>
<polyline clip-path="url(#clip572)" style="stroke:#e26f46; stroke-linecap:round; stroke-linejoin:round; stroke-width:4; stroke-opacity:0.13; fill:none" points="2072.29,117.057 2099.14,91.9864 "/>
<polyline clip-path="url(#clip572)" style="stroke:#e26f46; stroke-linecap:round; stroke-linejoin:round; stroke-width:4; stroke-opacity:0.12; fill:none" points="2099.14,91.9864 2117.5,87.9763 "/>
<path clip-path="url(#clip570)" d="M243.587 250.738 L717.702 250.738 L717.702 95.2176 L243.587 95.2176  Z" fill="#ffffff" fill-rule="evenodd" fill-opacity="1"/>
<polyline clip-path="url(#clip570)" style="stroke:#000000; stroke-linecap:round; stroke-linejoin:round; stroke-width:4; stroke-opacity:1; fill:none" points="243.587,250.738 717.702,250.738 717.702,95.2176 243.587,95.2176 243.587,250.738 "/>
<polyline clip-path="url(#clip570)" style="stroke:#009af9; stroke-linecap:round; stroke-linejoin:round; stroke-width:4; stroke-opacity:1; fill:none" points="267.831,147.058 413.291,147.058 "/>
<path clip-path="url(#clip570)" d="M452.719 142.393 Q452.001 141.977 451.145 141.791 Q450.312 141.583 449.293 141.583 Q445.682 141.583 443.738 143.944 Q441.816 146.282 441.816 150.68 L441.816 164.338 L437.534 164.338 L437.534 138.412 L441.816 138.412 L441.816 142.44 Q443.159 140.078 445.312 138.944 Q447.464 137.787 450.543 137.787 Q450.983 137.787 451.515 137.856 Q452.048 137.903 452.696 138.018 L452.719 142.393 Z" fill="#000000" fill-rule="nonzero" fill-opacity="1" /><path clip-path="url(#clip570)" d="M466.191 141.398 Q462.765 141.398 460.775 144.083 Q458.784 146.745 458.784 151.398 Q458.784 156.051 460.751 158.736 Q462.742 161.398 466.191 161.398 Q469.594 161.398 471.585 158.713 Q473.575 156.027 473.575 151.398 Q473.575 146.791 471.585 144.106 Q469.594 141.398 466.191 141.398 M466.191 137.787 Q471.747 137.787 474.918 141.398 Q478.089 145.009 478.089 151.398 Q478.089 157.764 474.918 161.398 Q471.747 165.009 466.191 165.009 Q460.612 165.009 457.441 161.398 Q454.293 157.764 454.293 151.398 Q454.293 145.009 457.441 141.398 Q460.612 137.787 466.191 137.787 Z" fill="#000000" fill-rule="nonzero" fill-opacity="1" /><path clip-path="url(#clip570)" d="M503.76 151.398 Q503.76 146.699 501.816 144.037 Q499.895 141.352 496.515 141.352 Q493.135 141.352 491.191 144.037 Q489.27 146.699 489.27 151.398 Q489.27 156.097 491.191 158.782 Q493.135 161.444 496.515 161.444 Q499.895 161.444 501.816 158.782 Q503.76 156.097 503.76 151.398 M489.27 142.347 Q490.612 140.032 492.649 138.921 Q494.71 137.787 497.557 137.787 Q502.279 137.787 505.219 141.537 Q508.182 145.287 508.182 151.398 Q508.182 157.509 505.219 161.259 Q502.279 165.009 497.557 165.009 Q494.71 165.009 492.649 163.898 Q490.612 162.763 489.27 160.449 L489.27 164.338 L484.987 164.338 L484.987 128.319 L489.27 128.319 L489.27 142.347 Z" fill="#000000" fill-rule="nonzero" fill-opacity="1" /><path clip-path="url(#clip570)" d="M525.288 141.398 Q521.862 141.398 519.871 144.083 Q517.881 146.745 517.881 151.398 Q517.881 156.051 519.848 158.736 Q521.839 161.398 525.288 161.398 Q528.691 161.398 530.682 158.713 Q532.672 156.027 532.672 151.398 Q532.672 146.791 530.682 144.106 Q528.691 141.398 525.288 141.398 M525.288 137.787 Q530.844 137.787 534.015 141.398 Q537.186 145.009 537.186 151.398 Q537.186 157.764 534.015 161.398 Q530.844 165.009 525.288 165.009 Q519.709 165.009 516.538 161.398 Q513.39 157.764 513.39 151.398 Q513.39 145.009 516.538 141.398 Q519.709 137.787 525.288 137.787 Z" fill="#000000" fill-rule="nonzero" fill-opacity="1" /><path clip-path="url(#clip570)" d="M548.459 131.051 L548.459 138.412 L557.232 138.412 L557.232 141.722 L548.459 141.722 L548.459 155.796 Q548.459 158.967 549.316 159.87 Q550.195 160.773 552.857 160.773 L557.232 160.773 L557.232 164.338 L552.857 164.338 Q547.927 164.338 546.052 162.509 Q544.177 160.657 544.177 155.796 L544.177 141.722 L541.052 141.722 L541.052 138.412 L544.177 138.412 L544.177 131.051 L548.459 131.051 Z" fill="#000000" fill-rule="nonzero" fill-opacity="1" /><path clip-path="url(#clip570)" d="M582.024 160.449 L582.024 174.199 L577.741 174.199 L577.741 138.412 L582.024 138.412 L582.024 142.347 Q583.366 140.032 585.403 138.921 Q587.464 137.787 590.311 137.787 Q595.033 137.787 597.973 141.537 Q600.936 145.287 600.936 151.398 Q600.936 157.509 597.973 161.259 Q595.033 165.009 590.311 165.009 Q587.464 165.009 585.403 163.898 Q583.366 162.763 582.024 160.449 M596.515 151.398 Q596.515 146.699 594.57 144.037 Q592.649 141.352 589.269 141.352 Q585.89 141.352 583.945 144.037 Q582.024 146.699 582.024 151.398 Q582.024 156.097 583.945 158.782 Q585.89 161.444 589.269 161.444 Q592.649 161.444 594.57 158.782 Q596.515 156.097 596.515 151.398 Z" fill="#000000" fill-rule="nonzero" fill-opacity="1" /><path clip-path="url(#clip570)" d="M619.778 151.305 Q614.616 151.305 612.626 152.486 Q610.635 153.666 610.635 156.514 Q610.635 158.782 612.116 160.125 Q613.621 161.444 616.19 161.444 Q619.732 161.444 621.862 158.944 Q624.014 156.421 624.014 152.254 L624.014 151.305 L619.778 151.305 M628.274 149.546 L628.274 164.338 L624.014 164.338 L624.014 160.402 Q622.556 162.763 620.38 163.898 Q618.204 165.009 615.056 165.009 Q611.075 165.009 608.714 162.787 Q606.376 160.541 606.376 156.791 Q606.376 152.416 609.292 150.194 Q612.232 147.972 618.042 147.972 L624.014 147.972 L624.014 147.555 Q624.014 144.615 622.07 143.018 Q620.149 141.398 616.653 141.398 Q614.431 141.398 612.325 141.93 Q610.218 142.463 608.274 143.527 L608.274 139.592 Q610.612 138.69 612.811 138.25 Q615.01 137.787 617.093 137.787 Q622.718 137.787 625.496 140.703 Q628.274 143.62 628.274 149.546 Z" fill="#000000" fill-rule="nonzero" fill-opacity="1" /><path clip-path="url(#clip570)" d="M641.26 131.051 L641.26 138.412 L650.033 138.412 L650.033 141.722 L641.26 141.722 L641.26 155.796 Q641.26 158.967 642.116 159.87 Q642.996 160.773 645.658 160.773 L650.033 160.773 L650.033 164.338 L645.658 164.338 Q640.727 164.338 638.852 162.509 Q636.977 160.657 636.977 155.796 L636.977 141.722 L633.852 141.722 L633.852 138.412 L636.977 138.412 L636.977 131.051 L641.26 131.051 Z" fill="#000000" fill-rule="nonzero" fill-opacity="1" /><path clip-path="url(#clip570)" d="M677.185 148.689 L677.185 164.338 L672.926 164.338 L672.926 148.828 Q672.926 145.148 671.491 143.319 Q670.056 141.49 667.185 141.49 Q663.736 141.49 661.746 143.69 Q659.755 145.889 659.755 149.685 L659.755 164.338 L655.473 164.338 L655.473 128.319 L659.755 128.319 L659.755 142.44 Q661.283 140.102 663.343 138.944 Q665.426 137.787 668.135 137.787 Q672.602 137.787 674.894 140.565 Q677.185 143.319 677.185 148.689 Z" fill="#000000" fill-rule="nonzero" fill-opacity="1" /><polyline clip-path="url(#clip570)" style="stroke:#e26f46; stroke-linecap:round; stroke-linejoin:round; stroke-width:4; stroke-opacity:1; fill:none" points="267.831,198.898 413.291,198.898 "/>
<path clip-path="url(#clip570)" d="M441.816 212.289 L441.816 226.039 L437.534 226.039 L437.534 190.252 L441.816 190.252 L441.816 194.187 Q443.159 191.872 445.196 190.761 Q447.256 189.627 450.103 189.627 Q454.825 189.627 457.765 193.377 Q460.728 197.127 460.728 203.238 Q460.728 209.349 457.765 213.099 Q454.825 216.849 450.103 216.849 Q447.256 216.849 445.196 215.738 Q443.159 214.603 441.816 212.289 M456.307 203.238 Q456.307 198.539 454.363 195.877 Q452.441 193.192 449.062 193.192 Q445.682 193.192 443.738 195.877 Q441.816 198.539 441.816 203.238 Q441.816 207.937 443.738 210.622 Q445.682 213.284 449.062 213.284 Q452.441 213.284 454.363 210.622 Q456.307 207.937 456.307 203.238 Z" fill="#000000" fill-rule="nonzero" fill-opacity="1" /><path clip-path="url(#clip570)" d="M482.811 194.233 Q482.094 193.817 481.237 193.631 Q480.404 193.423 479.386 193.423 Q475.774 193.423 473.83 195.784 Q471.909 198.122 471.909 202.52 L471.909 216.178 L467.626 216.178 L467.626 190.252 L471.909 190.252 L471.909 194.28 Q473.251 191.918 475.404 190.784 Q477.557 189.627 480.636 189.627 Q481.075 189.627 481.608 189.696 Q482.14 189.743 482.788 189.858 L482.811 194.233 Z" fill="#000000" fill-rule="nonzero" fill-opacity="1" /><path clip-path="url(#clip570)" d="M508.413 202.15 L508.413 204.233 L488.83 204.233 Q489.108 208.631 491.469 210.946 Q493.853 213.238 498.089 213.238 Q500.543 213.238 502.834 212.636 Q505.149 212.034 507.418 210.83 L507.418 214.858 Q505.126 215.83 502.719 216.34 Q500.311 216.849 497.835 216.849 Q491.631 216.849 487.997 213.238 Q484.386 209.627 484.386 203.469 Q484.386 197.104 487.811 193.377 Q491.26 189.627 497.094 189.627 Q502.325 189.627 505.358 193.006 Q508.413 196.363 508.413 202.15 M504.154 200.9 Q504.108 197.405 502.186 195.321 Q500.288 193.238 497.14 193.238 Q493.575 193.238 491.422 195.252 Q489.293 197.266 488.969 200.923 L504.154 200.9 Z" fill="#000000" fill-rule="nonzero" fill-opacity="1" /><path clip-path="url(#clip570)" d="M532.464 194.187 L532.464 180.159 L536.723 180.159 L536.723 216.178 L532.464 216.178 L532.464 212.289 Q531.121 214.603 529.061 215.738 Q527.024 216.849 524.154 216.849 Q519.455 216.849 516.492 213.099 Q513.552 209.349 513.552 203.238 Q513.552 197.127 516.492 193.377 Q519.455 189.627 524.154 189.627 Q527.024 189.627 529.061 190.761 Q531.121 191.872 532.464 194.187 M517.95 203.238 Q517.95 207.937 519.871 210.622 Q521.816 213.284 525.195 213.284 Q528.575 213.284 530.52 210.622 Q532.464 207.937 532.464 203.238 Q532.464 198.539 530.52 195.877 Q528.575 193.192 525.195 193.192 Q521.816 193.192 519.871 195.877 Q517.95 198.539 517.95 203.238 Z" fill="#000000" fill-rule="nonzero" fill-opacity="1" /><path clip-path="url(#clip570)" d="M545.496 190.252 L549.756 190.252 L549.756 216.178 L545.496 216.178 L545.496 190.252 M545.496 180.159 L549.756 180.159 L549.756 185.553 L545.496 185.553 L545.496 180.159 Z" fill="#000000" fill-rule="nonzero" fill-opacity="1" /><path clip-path="url(#clip570)" d="M577.325 191.247 L577.325 195.229 Q575.519 194.233 573.691 193.747 Q571.885 193.238 570.033 193.238 Q565.89 193.238 563.598 195.877 Q561.306 198.492 561.306 203.238 Q561.306 207.983 563.598 210.622 Q565.89 213.238 570.033 213.238 Q571.885 213.238 573.691 212.752 Q575.519 212.242 577.325 211.247 L577.325 215.182 Q575.542 216.016 573.621 216.432 Q571.723 216.849 569.57 216.849 Q563.714 216.849 560.265 213.168 Q556.816 209.488 556.816 203.238 Q556.816 196.895 560.288 193.261 Q563.783 189.627 569.848 189.627 Q571.816 189.627 573.691 190.043 Q575.566 190.437 577.325 191.247 Z" fill="#000000" fill-rule="nonzero" fill-opacity="1" /><path clip-path="url(#clip570)" d="M588.945 182.891 L588.945 190.252 L597.718 190.252 L597.718 193.562 L588.945 193.562 L588.945 207.636 Q588.945 210.807 589.802 211.71 Q590.681 212.613 593.343 212.613 L597.718 212.613 L597.718 216.178 L593.343 216.178 Q588.413 216.178 586.538 214.349 Q584.663 212.497 584.663 207.636 L584.663 193.562 L581.538 193.562 L581.538 190.252 L584.663 190.252 L584.663 182.891 L588.945 182.891 Z" fill="#000000" fill-rule="nonzero" fill-opacity="1" /><path clip-path="url(#clip570)" d="M603.32 190.252 L607.579 190.252 L607.579 216.178 L603.32 216.178 L603.32 190.252 M603.32 180.159 L607.579 180.159 L607.579 185.553 L603.32 185.553 L603.32 180.159 Z" fill="#000000" fill-rule="nonzero" fill-opacity="1" /><path clip-path="url(#clip570)" d="M626.538 193.238 Q623.112 193.238 621.121 195.923 Q619.13 198.585 619.13 203.238 Q619.13 207.891 621.098 210.576 Q623.088 213.238 626.538 213.238 Q629.94 213.238 631.931 210.553 Q633.922 207.867 633.922 203.238 Q633.922 198.631 631.931 195.946 Q629.94 193.238 626.538 193.238 M626.538 189.627 Q632.093 189.627 635.264 193.238 Q638.436 196.849 638.436 203.238 Q638.436 209.604 635.264 213.238 Q632.093 216.849 626.538 216.849 Q620.959 216.849 617.788 213.238 Q614.639 209.604 614.639 203.238 Q614.639 196.849 617.788 193.238 Q620.959 189.627 626.538 189.627 Z" fill="#000000" fill-rule="nonzero" fill-opacity="1" /><path clip-path="url(#clip570)" d="M667.047 200.529 L667.047 216.178 L662.787 216.178 L662.787 200.668 Q662.787 196.988 661.352 195.159 Q659.917 193.33 657.047 193.33 Q653.598 193.33 651.607 195.53 Q649.616 197.729 649.616 201.525 L649.616 216.178 L645.334 216.178 L645.334 190.252 L649.616 190.252 L649.616 194.28 Q651.144 191.942 653.204 190.784 Q655.287 189.627 657.996 189.627 Q662.463 189.627 664.755 192.405 Q667.047 195.159 667.047 200.529 Z" fill="#000000" fill-rule="nonzero" fill-opacity="1" /><path clip-path="url(#clip570)" d="M692.07 191.016 L692.07 195.043 Q690.264 194.117 688.32 193.655 Q686.375 193.192 684.292 193.192 Q681.121 193.192 679.523 194.164 Q677.949 195.136 677.949 197.08 Q677.949 198.562 679.084 199.418 Q680.218 200.252 683.644 201.016 L685.102 201.34 Q689.639 202.312 691.537 204.094 Q693.458 205.854 693.458 209.025 Q693.458 212.636 690.588 214.742 Q687.741 216.849 682.741 216.849 Q680.658 216.849 678.389 216.432 Q676.144 216.039 673.644 215.228 L673.644 210.83 Q676.005 212.057 678.296 212.682 Q680.588 213.284 682.834 213.284 Q685.843 213.284 687.463 212.266 Q689.083 211.224 689.083 209.349 Q689.083 207.613 687.903 206.687 Q686.746 205.761 682.787 204.904 L681.306 204.557 Q677.347 203.724 675.588 202.011 Q673.829 200.275 673.829 197.266 Q673.829 193.608 676.422 191.618 Q679.014 189.627 683.783 189.627 Q686.144 189.627 688.227 189.974 Q690.31 190.321 692.07 191.016 Z" fill="#000000" fill-rule="nonzero" fill-opacity="1" /></svg>
