<?xml version="1.0" encoding="utf-8"?>
<svg xmlns="http://www.w3.org/2000/svg" xmlns:xlink="http://www.w3.org/1999/xlink" width="600" height="400" viewBox="0 0 2400 1600">
<defs>
  <clipPath id="clip850">
    <rect x="0" y="0" width="2400" height="1600"/>
  </clipPath>
</defs>
<path clip-path="url(#clip850)" d="M0 1600 L2400 1600 L2400 8.88178e-14 L0 8.88178e-14  Z" fill="#ffffff" fill-rule="evenodd" fill-opacity="1"/>
<defs>
  <clipPath id="clip851">
    <rect x="480" y="0" width="1681" height="1600"/>
  </clipPath>
</defs>
<path clip-path="url(#clip850)" d="M169.121 1486.45 L2352.76 1486.45 L2352.76 47.2441 L169.121 47.2441  Z" fill="#ffffff" fill-rule="evenodd" fill-opacity="1"/>
<defs>
  <clipPath id="clip852">
    <rect x="169" y="47" width="2185" height="1440"/>
  </clipPath>
</defs>
<polyline clip-path="url(#clip852)" style="stroke:#000000; stroke-linecap:round; stroke-linejoin:round; stroke-width:2; stroke-opacity:0.1; fill:none" points="325.183,1486.45 325.183,47.2441 "/>
<polyline clip-path="url(#clip852)" style="stroke:#000000; stroke-linecap:round; stroke-linejoin:round; stroke-width:2; stroke-opacity:0.1; fill:none" points="800.09,1486.45 800.09,47.2441 "/>
<polyline clip-path="url(#clip852)" style="stroke:#000000; stroke-linecap:round; stroke-linejoin:round; stroke-width:2; stroke-opacity:0.1; fill:none" points="1275,1486.45 1275,47.2441 "/>
<polyline clip-path="url(#clip852)" style="stroke:#000000; stroke-linecap:round; stroke-linejoin:round; stroke-width:2; stroke-opacity:0.1; fill:none" points="1749.91,1486.45 1749.91,47.2441 "/>
<polyline clip-path="url(#clip852)" style="stroke:#000000; stroke-linecap:round; stroke-linejoin:round; stroke-width:2; stroke-opacity:0.1; fill:none" points="2224.81,1486.45 2224.81,47.2441 "/>
<polyline clip-path="url(#clip852)" style="stroke:#000000; stroke-linecap:round; stroke-linejoin:round; stroke-width:2; stroke-opacity:0.1; fill:none" points="169.121,1362.61 2352.76,1362.61 "/>
<polyline clip-path="url(#clip852)" style="stroke:#000000; stroke-linecap:round; stroke-linejoin:round; stroke-width:2; stroke-opacity:0.1; fill:none" points="169.121,1028.26 2352.76,1028.26 "/>
<polyline clip-path="url(#clip852)" style="stroke:#000000; stroke-linecap:round; stroke-linejoin:round; stroke-width:2; stroke-opacity:0.1; fill:none" points="169.121,693.898 2352.76,693.898 "/>
<polyline clip-path="url(#clip852)" style="stroke:#000000; stroke-linecap:round; stroke-linejoin:round; stroke-width:2; stroke-opacity:0.1; fill:none" points="169.121,359.539 2352.76,359.539 "/>
<polyline clip-path="url(#clip850)" style="stroke:#000000; stroke-linecap:round; stroke-linejoin:round; stroke-width:4; stroke-opacity:1; fill:none" points="169.121,1486.45 2352.76,1486.45 "/>
<polyline clip-path="url(#clip850)" style="stroke:#000000; stroke-linecap:round; stroke-linejoin:round; stroke-width:4; stroke-opacity:1; fill:none" points="325.183,1486.45 325.183,1467.55 "/>
<polyline clip-path="url(#clip850)" style="stroke:#000000; stroke-linecap:round; stroke-linejoin:round; stroke-width:4; stroke-opacity:1; fill:none" points="800.09,1486.45 800.09,1467.55 "/>
<polyline clip-path="url(#clip850)" style="stroke:#000000; stroke-linecap:round; stroke-linejoin:round; stroke-width:4; stroke-opacity:1; fill:none" points="1275,1486.45 1275,1467.55 "/>
<polyline clip-path="url(#clip850)" style="stroke:#000000; stroke-linecap:round; stroke-linejoin:round; stroke-width:4; stroke-opacity:1; fill:none" points="1749.91,1486.45 1749.91,1467.55 "/>
<polyline clip-path="url(#clip850)" style="stroke:#000000; stroke-linecap:round; stroke-linejoin:round; stroke-width:4; stroke-opacity:1; fill:none" points="2224.81,1486.45 2224.81,1467.55 "/>
<path clip-path="url(#clip850)" d="M325.183 1517.37 Q321.572 1517.37 319.743 1520.93 Q317.937 1524.47 317.937 1531.6 Q317.937 1538.71 319.743 1542.27 Q321.572 1545.82 325.183 1545.82 Q328.817 1545.82 330.623 1542.27 Q332.451 1538.71 332.451 1531.6 Q332.451 1524.47 330.623 1520.93 Q328.817 1517.37 325.183 1517.37 M325.183 1513.66 Q330.993 1513.66 334.048 1518.27 Q337.127 1522.85 337.127 1531.6 Q337.127 1540.33 334.048 1544.94 Q330.993 1549.52 325.183 1549.52 Q319.373 1549.52 316.294 1544.94 Q313.238 1540.33 313.238 1531.6 Q313.238 1522.85 316.294 1518.27 Q319.373 1513.66 325.183 1513.66 Z" fill="#000000" fill-rule="nonzero" fill-opacity="1" /><path clip-path="url(#clip850)" d="M774.789 1514.29 L793.146 1514.29 L793.146 1518.22 L779.072 1518.22 L779.072 1526.7 Q780.09 1526.35 781.109 1526.19 Q782.127 1526 783.146 1526 Q788.933 1526 792.312 1529.17 Q795.692 1532.34 795.692 1537.76 Q795.692 1543.34 792.22 1546.44 Q788.748 1549.52 782.428 1549.52 Q780.252 1549.52 777.984 1549.15 Q775.739 1548.78 773.331 1548.04 L773.331 1543.34 Q775.414 1544.47 777.637 1545.03 Q779.859 1545.58 782.336 1545.58 Q786.34 1545.58 788.678 1543.48 Q791.016 1541.37 791.016 1537.76 Q791.016 1534.15 788.678 1532.04 Q786.34 1529.94 782.336 1529.94 Q780.461 1529.94 778.586 1530.35 Q776.734 1530.77 774.789 1531.65 L774.789 1514.29 Z" fill="#000000" fill-rule="nonzero" fill-opacity="1" /><path clip-path="url(#clip850)" d="M814.905 1517.37 Q811.294 1517.37 809.465 1520.93 Q807.66 1524.47 807.66 1531.6 Q807.66 1538.71 809.465 1542.27 Q811.294 1545.82 814.905 1545.82 Q818.539 1545.82 820.345 1542.27 Q822.173 1538.71 822.173 1531.6 Q822.173 1524.47 820.345 1520.93 Q818.539 1517.37 814.905 1517.37 M814.905 1513.66 Q820.715 1513.66 823.771 1518.27 Q826.849 1522.85 826.849 1531.6 Q826.849 1540.33 823.771 1544.94 Q820.715 1549.52 814.905 1549.52 Q809.095 1549.52 806.016 1544.94 Q802.961 1540.33 802.961 1531.6 Q802.961 1522.85 806.016 1518.27 Q809.095 1513.66 814.905 1513.66 Z" fill="#000000" fill-rule="nonzero" fill-opacity="1" /><path clip-path="url(#clip850)" d="M1234.6 1544.91 L1242.24 1544.91 L1242.24 1518.55 L1233.93 1520.21 L1233.93 1515.95 L1242.2 1514.29 L1246.87 1514.29 L1246.87 1544.91 L1254.51 1544.91 L1254.51 1548.85 L1234.6 1548.85 L1234.6 1544.91 Z" fill="#000000" fill-rule="nonzero" fill-opacity="1" /><path clip-path="url(#clip850)" d="M1273.96 1517.37 Q1270.34 1517.37 1268.52 1520.93 Q1266.71 1524.47 1266.71 1531.6 Q1266.71 1538.71 1268.52 1542.27 Q1270.34 1545.82 1273.96 1545.82 Q1277.59 1545.82 1279.4 1542.27 Q1281.22 1538.71 1281.22 1531.6 Q1281.22 1524.47 1279.4 1520.93 Q1277.59 1517.37 1273.96 1517.37 M1273.96 1513.66 Q1279.77 1513.66 1282.82 1518.27 Q1285.9 1522.85 1285.9 1531.6 Q1285.9 1540.33 1282.82 1544.94 Q1279.77 1549.52 1273.96 1549.52 Q1268.15 1549.52 1265.07 1544.94 Q1262.01 1540.33 1262.01 1531.6 Q1262.01 1522.85 1265.07 1518.27 Q1268.15 1513.66 1273.96 1513.66 Z" fill="#000000" fill-rule="nonzero" fill-opacity="1" /><path clip-path="url(#clip850)" d="M1304.12 1517.37 Q1300.51 1517.37 1298.68 1520.93 Q1296.87 1524.47 1296.87 1531.6 Q1296.87 1538.71 1298.68 1542.27 Q1300.51 1545.82 1304.12 1545.82 Q1307.75 1545.82 1309.56 1542.27 Q1311.39 1538.71 1311.39 1531.6 Q1311.39 1524.47 1309.56 1520.93 Q1307.75 1517.37 1304.12 1517.37 M1304.12 1513.66 Q1309.93 1513.66 1312.98 1518.27 Q1316.06 1522.85 1316.06 1531.6 Q1316.06 1540.33 1312.98 1544.94 Q1309.93 1549.52 1304.12 1549.52 Q1298.31 1549.52 1295.23 1544.94 Q1292.17 1540.33 1292.17 1531.6 Q1292.17 1522.85 1295.23 1518.27 Q1298.31 1513.66 1304.12 1513.66 Z" fill="#000000" fill-rule="nonzero" fill-opacity="1" /><path clip-path="url(#clip850)" d="M1709.51 1544.91 L1717.15 1544.91 L1717.15 1518.55 L1708.84 1520.21 L1708.84 1515.95 L1717.1 1514.29 L1721.78 1514.29 L1721.78 1544.91 L1729.42 1544.91 L1729.42 1548.85 L1709.51 1548.85 L1709.51 1544.91 Z" fill="#000000" fill-rule="nonzero" fill-opacity="1" /><path clip-path="url(#clip850)" d="M1738.91 1514.29 L1757.27 1514.29 L1757.27 1518.22 L1743.19 1518.22 L1743.19 1526.7 Q1744.21 1526.35 1745.23 1526.19 Q1746.25 1526 1747.27 1526 Q1753.05 1526 1756.43 1529.17 Q1759.81 1532.34 1759.81 1537.76 Q1759.81 1543.34 1756.34 1546.44 Q1752.87 1549.52 1746.55 1549.52 Q1744.37 1549.52 1742.1 1549.15 Q1739.86 1548.78 1737.45 1548.04 L1737.45 1543.34 Q1739.53 1544.47 1741.76 1545.03 Q1743.98 1545.58 1746.46 1545.58 Q1750.46 1545.58 1752.8 1543.48 Q1755.14 1541.37 1755.14 1537.76 Q1755.14 1534.15 1752.8 1532.04 Q1750.46 1529.94 1746.46 1529.94 Q1744.58 1529.94 1742.71 1530.35 Q1740.85 1530.77 1738.91 1531.65 L1738.91 1514.29 Z" fill="#000000" fill-rule="nonzero" fill-opacity="1" /><path clip-path="url(#clip850)" d="M1779.03 1517.37 Q1775.41 1517.37 1773.59 1520.93 Q1771.78 1524.47 1771.78 1531.6 Q1771.78 1538.71 1773.59 1542.27 Q1775.41 1545.82 1779.03 1545.82 Q1782.66 1545.82 1784.47 1542.27 Q1786.29 1538.71 1786.29 1531.6 Q1786.29 1524.47 1784.47 1520.93 Q1782.66 1517.37 1779.03 1517.37 M1779.03 1513.66 Q1784.84 1513.66 1787.89 1518.27 Q1790.97 1522.85 1790.97 1531.6 Q1790.97 1540.33 1787.89 1544.94 Q1784.84 1549.52 1779.03 1549.52 Q1773.22 1549.52 1770.14 1544.94 Q1767.08 1540.33 1767.08 1531.6 Q1767.08 1522.85 1770.14 1518.27 Q1773.22 1513.66 1779.03 1513.66 Z" fill="#000000" fill-rule="nonzero" fill-opacity="1" /><path clip-path="url(#clip850)" d="M2188.5 1544.91 L2204.82 1544.91 L2204.82 1548.85 L2182.88 1548.85 L2182.88 1544.91 Q2185.54 1542.16 2190.13 1537.53 Q2194.73 1532.88 2195.91 1531.53 Q2198.16 1529.01 2199.04 1527.27 Q2199.94 1525.51 2199.94 1523.82 Q2199.94 1521.07 2198 1519.33 Q2196.07 1517.6 2192.97 1517.6 Q2190.77 1517.6 2188.32 1518.36 Q2185.89 1519.13 2183.11 1520.68 L2183.11 1515.95 Q2185.94 1514.82 2188.39 1514.24 Q2190.84 1513.66 2192.88 1513.66 Q2198.25 1513.66 2201.44 1516.35 Q2204.64 1519.03 2204.64 1523.52 Q2204.64 1525.65 2203.83 1527.57 Q2203.04 1529.47 2200.94 1532.07 Q2200.36 1532.74 2197.25 1535.95 Q2194.15 1539.15 2188.5 1544.91 Z" fill="#000000" fill-rule="nonzero" fill-opacity="1" /><path clip-path="url(#clip850)" d="M2224.64 1517.37 Q2221.03 1517.37 2219.2 1520.93 Q2217.39 1524.47 2217.39 1531.6 Q2217.39 1538.71 2219.2 1542.27 Q2221.03 1545.82 2224.64 1545.82 Q2228.27 1545.82 2230.08 1542.27 Q2231.91 1538.71 2231.91 1531.6 Q2231.91 1524.47 2230.08 1520.93 Q2228.27 1517.37 2224.64 1517.37 M2224.64 1513.66 Q2230.45 1513.66 2233.5 1518.27 Q2236.58 1522.85 2236.58 1531.6 Q2236.58 1540.33 2233.5 1544.94 Q2230.45 1549.52 2224.64 1549.52 Q2218.83 1549.52 2215.75 1544.94 Q2212.69 1540.33 2212.69 1531.6 Q2212.69 1522.85 2215.75 1518.27 Q2218.83 1513.66 2224.64 1513.66 Z" fill="#000000" fill-rule="nonzero" fill-opacity="1" /><path clip-path="url(#clip850)" d="M2254.8 1517.37 Q2251.19 1517.37 2249.36 1520.93 Q2247.56 1524.47 2247.56 1531.6 Q2247.56 1538.71 2249.36 1542.27 Q2251.19 1545.82 2254.8 1545.82 Q2258.44 1545.82 2260.24 1542.27 Q2262.07 1538.71 2262.07 1531.6 Q2262.07 1524.47 2260.24 1520.93 Q2258.44 1517.37 2254.8 1517.37 M2254.8 1513.66 Q2260.61 1513.66 2263.67 1518.27 Q2266.75 1522.85 2266.75 1531.6 Q2266.75 1540.33 2263.67 1544.94 Q2260.61 1549.52 2254.8 1549.52 Q2248.99 1549.52 2245.91 1544.94 Q2242.86 1540.33 2242.86 1531.6 Q2242.86 1522.85 2245.91 1518.27 Q2248.99 1513.66 2254.8 1513.66 Z" fill="#000000" fill-rule="nonzero" fill-opacity="1" /><polyline clip-path="url(#clip850)" style="stroke:#000000; stroke-linecap:round; stroke-linejoin:round; stroke-width:4; stroke-opacity:1; fill:none" points="169.121,1486.45 169.121,47.2441 "/>
<polyline clip-path="url(#clip850)" style="stroke:#000000; stroke-linecap:round; stroke-linejoin:round; stroke-width:4; stroke-opacity:1; fill:none" points="169.121,1362.61 188.019,1362.61 "/>
<polyline clip-path="url(#clip850)" style="stroke:#000000; stroke-linecap:round; stroke-linejoin:round; stroke-width:4; stroke-opacity:1; fill:none" points="169.121,1028.26 188.019,1028.26 "/>
<polyline clip-path="url(#clip850)" style="stroke:#000000; stroke-linecap:round; stroke-linejoin:round; stroke-width:4; stroke-opacity:1; fill:none" points="169.121,693.898 188.019,693.898 "/>
<polyline clip-path="url(#clip850)" style="stroke:#000000; stroke-linecap:round; stroke-linejoin:round; stroke-width:4; stroke-opacity:1; fill:none" points="169.121,359.539 188.019,359.539 "/>
<path clip-path="url(#clip850)" d="M121.177 1348.41 Q117.566 1348.41 115.737 1351.98 Q113.932 1355.52 113.932 1362.65 Q113.932 1369.76 115.737 1373.32 Q117.566 1376.86 121.177 1376.86 Q124.811 1376.86 126.617 1373.32 Q128.445 1369.76 128.445 1362.65 Q128.445 1355.52 126.617 1351.98 Q124.811 1348.41 121.177 1348.41 M121.177 1344.71 Q126.987 1344.71 130.043 1349.32 Q133.121 1353.9 133.121 1362.65 Q133.121 1371.38 130.043 1375.98 Q126.987 1380.57 121.177 1380.57 Q115.367 1380.57 112.288 1375.98 Q109.233 1371.38 109.233 1362.65 Q109.233 1353.9 112.288 1349.32 Q115.367 1344.71 121.177 1344.71 Z" fill="#000000" fill-rule="nonzero" fill-opacity="1" /><path clip-path="url(#clip850)" d="M81.0614 1010.98 L99.4178 1010.98 L99.4178 1014.91 L85.3438 1014.91 L85.3438 1023.38 Q86.3623 1023.04 87.3808 1022.87 Q88.3993 1022.69 89.4178 1022.69 Q95.2049 1022.69 98.5845 1025.86 Q101.964 1029.03 101.964 1034.45 Q101.964 1040.03 98.4919 1043.13 Q95.0197 1046.21 88.7003 1046.21 Q86.5243 1046.21 84.2558 1045.84 Q82.0105 1045.47 79.6031 1044.73 L79.6031 1040.03 Q81.6864 1041.16 83.9086 1041.72 Q86.1308 1042.27 88.6077 1042.27 Q92.6123 1042.27 94.9502 1040.17 Q97.2882 1038.06 97.2882 1034.45 Q97.2882 1030.84 94.9502 1028.73 Q92.6123 1026.62 88.6077 1026.62 Q86.7327 1026.62 84.8577 1027.04 Q83.0058 1027.46 81.0614 1028.34 L81.0614 1010.98 Z" fill="#000000" fill-rule="nonzero" fill-opacity="1" /><path clip-path="url(#clip850)" d="M121.177 1014.05 Q117.566 1014.05 115.737 1017.62 Q113.932 1021.16 113.932 1028.29 Q113.932 1035.4 115.737 1038.96 Q117.566 1042.5 121.177 1042.5 Q124.811 1042.5 126.617 1038.96 Q128.445 1035.4 128.445 1028.29 Q128.445 1021.16 126.617 1017.62 Q124.811 1014.05 121.177 1014.05 M121.177 1010.35 Q126.987 1010.35 130.043 1014.96 Q133.121 1019.54 133.121 1028.29 Q133.121 1037.02 130.043 1041.62 Q126.987 1046.21 121.177 1046.21 Q115.367 1046.21 112.288 1041.62 Q109.233 1037.02 109.233 1028.29 Q109.233 1019.54 112.288 1014.96 Q115.367 1010.35 121.177 1010.35 Z" fill="#000000" fill-rule="nonzero" fill-opacity="1" /><path clip-path="url(#clip850)" d="M51.6634 707.243 L59.3023 707.243 L59.3023 680.877 L50.9921 682.544 L50.9921 678.284 L59.256 676.618 L63.9319 676.618 L63.9319 707.243 L71.5707 707.243 L71.5707 711.178 L51.6634 711.178 L51.6634 707.243 Z" fill="#000000" fill-rule="nonzero" fill-opacity="1" /><path clip-path="url(#clip850)" d="M91.0151 679.696 Q87.404 679.696 85.5753 683.261 Q83.7697 686.803 83.7697 693.932 Q83.7697 701.039 85.5753 704.604 Q87.404 708.145 91.0151 708.145 Q94.6493 708.145 96.4548 704.604 Q98.2835 701.039 98.2835 693.932 Q98.2835 686.803 96.4548 683.261 Q94.6493 679.696 91.0151 679.696 M91.0151 675.993 Q96.8252 675.993 99.8808 680.599 Q102.959 685.183 102.959 693.932 Q102.959 702.659 99.8808 707.266 Q96.8252 711.849 91.0151 711.849 Q85.2049 711.849 82.1262 707.266 Q79.0707 702.659 79.0707 693.932 Q79.0707 685.183 82.1262 680.599 Q85.2049 675.993 91.0151 675.993 Z" fill="#000000" fill-rule="nonzero" fill-opacity="1" /><path clip-path="url(#clip850)" d="M121.177 679.696 Q117.566 679.696 115.737 683.261 Q113.932 686.803 113.932 693.932 Q113.932 701.039 115.737 704.604 Q117.566 708.145 121.177 708.145 Q124.811 708.145 126.617 704.604 Q128.445 701.039 128.445 693.932 Q128.445 686.803 126.617 683.261 Q124.811 679.696 121.177 679.696 M121.177 675.993 Q126.987 675.993 130.043 680.599 Q133.121 685.183 133.121 693.932 Q133.121 702.659 130.043 707.266 Q126.987 711.849 121.177 711.849 Q115.367 711.849 112.288 707.266 Q109.233 702.659 109.233 693.932 Q109.233 685.183 112.288 680.599 Q115.367 675.993 121.177 675.993 Z" fill="#000000" fill-rule="nonzero" fill-opacity="1" /><path clip-path="url(#clip850)" d="M51.6634 372.884 L59.3023 372.884 L59.3023 346.519 L50.9921 348.185 L50.9921 343.926 L59.256 342.259 L63.9319 342.259 L63.9319 372.884 L71.5707 372.884 L71.5707 376.819 L51.6634 376.819 L51.6634 372.884 Z" fill="#000000" fill-rule="nonzero" fill-opacity="1" /><path clip-path="url(#clip850)" d="M81.0614 342.259 L99.4178 342.259 L99.4178 346.195 L85.3438 346.195 L85.3438 354.667 Q86.3623 354.319 87.3808 354.157 Q88.3993 353.972 89.4178 353.972 Q95.2049 353.972 98.5845 357.144 Q101.964 360.315 101.964 365.731 Q101.964 371.31 98.4919 374.412 Q95.0197 377.491 88.7003 377.491 Q86.5243 377.491 84.2558 377.12 Q82.0105 376.75 79.6031 376.009 L79.6031 371.31 Q81.6864 372.444 83.9086 373 Q86.1308 373.555 88.6077 373.555 Q92.6123 373.555 94.9502 371.449 Q97.2882 369.343 97.2882 365.731 Q97.2882 362.12 94.9502 360.014 Q92.6123 357.907 88.6077 357.907 Q86.7327 357.907 84.8577 358.324 Q83.0058 358.741 81.0614 359.62 L81.0614 342.259 Z" fill="#000000" fill-rule="nonzero" fill-opacity="1" /><path clip-path="url(#clip850)" d="M121.177 345.338 Q117.566 345.338 115.737 348.903 Q113.932 352.445 113.932 359.574 Q113.932 366.681 115.737 370.245 Q117.566 373.787 121.177 373.787 Q124.811 373.787 126.617 370.245 Q128.445 366.681 128.445 359.574 Q128.445 352.445 126.617 348.903 Q124.811 345.338 121.177 345.338 M121.177 341.634 Q126.987 341.634 130.043 346.241 Q133.121 350.824 133.121 359.574 Q133.121 368.301 130.043 372.907 Q126.987 377.491 121.177 377.491 Q115.367 377.491 112.288 372.907 Q109.233 368.301 109.233 359.574 Q109.233 350.824 112.288 346.241 Q115.367 341.634 121.177 341.634 Z" fill="#000000" fill-rule="nonzero" fill-opacity="1" /><polyline clip-path="url(#clip852)" style="stroke:#009af9; stroke-linecap:round; stroke-linejoin:round; stroke-width:4; stroke-opacity:1; fill:none" points="350.93,1342.75 366.787,1347.64 389.263,1336.42 397.4,1320.9 421.314,1308.09 452.505,1305.48 474.135,1298.11 488.504,1291.15 498.32,1290.55 514.748,1274.86 526.056,1255.02 551.698,1249.52 579.535,1237.6 604.454,1224.81 635.27,1202.94 644.024,1185.23 677.77,1187.51 698.09,1175.59 714.941,1163.86 728.201,1153.15 749.375,1140.59 772.94,1126.86 781.393,1110.82 798.724,1104.41 828.345,1081.64 839.389,1077.39 855.29,1061.99 884.123,1053.91 897.604,1046.12 907.788,1029.73 927.501,1006.51 949.47,996.35 969.389,969.807 967.619,957.829 995.298,948.685 1028.95,939.69 1052.78,919.455 1064.32,899.495 1078.08,891.322 1097.78,878.975 1118.41,866.796 1129.43,863.707 1139.43,848.109 1152.11,835.886 1168.67,819.331 1181.06,803.255 1185.52,791.787 1205.25,772.095 1221.48,755.857 1247.96,737.963 1260.03,727.26 1274.58,726.37 1273.34,704.22 1289.47,698.442 1318.34,702.456 1359.83,675.259 1390.56,666.652 1409.49,658.825 1418.43,654.083 1429.73,637.893 1447.97,619.429 1459.17,604.339 1481.42,599.08 1502.53,584.481 1525.33,579.877 1547.16,568.548 1568.8,554.476 1591.46,535.457 1602.3,509.483 1608.24,492.736 1633.77,477.427 1655.91,465.473 1680.91,457.813 1711.96,444.103 1722.43,433.774 1745.42,414.056 1756.32,389.648 1798.27,374.646 1825.95,368.444 1850.41,357.716 1879.22,349.245 1899.71,326.978 1918.09,318.904 1933.92,309.212 1952.99,289.196 1974.4,276.814 1990.57,259.275 2003.8,235.724 2029.46,212.272 2060.57,200.809 2084.39,184.523 2112.55,173.929 2144.22,171.469 2158.21,161.312 2182.3,156.57 2181.99,137.264 2208.94,118.883 2235.58,112.358 2265.63,96.1649 2290.95,87.9763 "/>
<polyline clip-path="url(#clip852)" style="stroke:#e26f46; stroke-linecap:round; stroke-linejoin:round; stroke-width:4; stroke-opacity:1; fill:none" points="295.155,1383.18 230.922,1445.72 "/>
<polyline clip-path="url(#clip852)" style="stroke:#e26f46; stroke-linecap:round; stroke-linejoin:round; stroke-width:4; stroke-opacity:1; fill:none" points="230.922,1445.72 257.792,1430.8 "/>
<polyline clip-path="url(#clip852)" style="stroke:#e26f46; stroke-linecap:round; stroke-linejoin:round; stroke-width:4; stroke-opacity:1; fill:none" points="257.792,1430.8 261.1,1416.15 "/>
<polyline clip-path="url(#clip852)" style="stroke:#e26f46; stroke-linecap:round; stroke-linejoin:round; stroke-width:4; stroke-opacity:1; fill:none" points="261.1,1416.15 285.626,1403.19 "/>
<polyline clip-path="url(#clip852)" style="stroke:#e26f46; stroke-linecap:round; stroke-linejoin:round; stroke-width:4; stroke-opacity:1; fill:none" points="285.626,1403.19 318.807,1401.66 "/>
<polyline clip-path="url(#clip852)" style="stroke:#e26f46; stroke-linecap:round; stroke-linejoin:round; stroke-width:4; stroke-opacity:1; fill:none" points="318.807,1401.66 338.873,1393.37 "/>
<polyline clip-path="url(#clip852)" style="stroke:#e26f46; stroke-linecap:round; stroke-linejoin:round; stroke-width:4; stroke-opacity:1; fill:none" points="338.873,1393.37 353.723,1387.96 "/>
<polyline clip-path="url(#clip852)" style="stroke:#e26f46; stroke-linecap:round; stroke-linejoin:round; stroke-width:4; stroke-opacity:1; fill:none" points="353.723,1387.96 362.005,1385.37 "/>
<polyline clip-path="url(#clip852)" style="stroke:#e26f46; stroke-linecap:round; stroke-linejoin:round; stroke-width:4; stroke-opacity:1; fill:none" points="362.005,1385.37 377.893,1370.14 "/>
<polyline clip-path="url(#clip852)" style="stroke:#e26f46; stroke-linecap:round; stroke-linejoin:round; stroke-width:4; stroke-opacity:1; fill:none" points="377.893,1370.14 389.002,1352.98 "/>
<polyline clip-path="url(#clip852)" style="stroke:#e26f46; stroke-linecap:round; stroke-linejoin:round; stroke-width:4; stroke-opacity:1; fill:none" points="389.002,1352.98 412.037,1344.69 "/>
<polyline clip-path="url(#clip852)" style="stroke:#e26f46; stroke-linecap:round; stroke-linejoin:round; stroke-width:4; stroke-opacity:0.99; fill:none" points="412.037,1344.69 441.925,1334.54 "/>
<polyline clip-path="url(#clip852)" style="stroke:#e26f46; stroke-linecap:round; stroke-linejoin:round; stroke-width:4; stroke-opacity:0.98; fill:none" points="441.925,1334.54 462.669,1326.07 "/>
<polyline clip-path="url(#clip852)" style="stroke:#e26f46; stroke-linecap:round; stroke-linejoin:round; stroke-width:4; stroke-opacity:0.97; fill:none" points="462.669,1326.07 494.622,1303.07 "/>
<polyline clip-path="url(#clip852)" style="stroke:#e26f46; stroke-linecap:round; stroke-linejoin:round; stroke-width:4; stroke-opacity:0.96; fill:none" points="494.622,1303.07 504.412,1285.42 "/>
<polyline clip-path="url(#clip852)" style="stroke:#e26f46; stroke-linecap:round; stroke-linejoin:round; stroke-width:4; stroke-opacity:0.95; fill:none" points="504.412,1285.42 536.062,1284.58 "/>
<polyline clip-path="url(#clip852)" style="stroke:#e26f46; stroke-linecap:round; stroke-linejoin:round; stroke-width:4; stroke-opacity:0.94; fill:none" points="536.062,1284.58 557.171,1272.56 "/>
<polyline clip-path="url(#clip852)" style="stroke:#e26f46; stroke-linecap:round; stroke-linejoin:round; stroke-width:4; stroke-opacity:0.93; fill:none" points="557.171,1272.56 570.133,1264.13 "/>
<polyline clip-path="url(#clip852)" style="stroke:#e26f46; stroke-linecap:round; stroke-linejoin:round; stroke-width:4; stroke-opacity:0.92; fill:none" points="570.133,1264.13 585.035,1251.54 "/>
<polyline clip-path="url(#clip852)" style="stroke:#e26f46; stroke-linecap:round; stroke-linejoin:round; stroke-width:4; stroke-opacity:0.91; fill:none" points="585.035,1251.54 608.457,1240.54 "/>
<polyline clip-path="url(#clip852)" style="stroke:#e26f46; stroke-linecap:round; stroke-linejoin:round; stroke-width:4; stroke-opacity:0.9; fill:none" points="608.457,1240.54 626.637,1228.07 "/>
<polyline clip-path="url(#clip852)" style="stroke:#e26f46; stroke-linecap:round; stroke-linejoin:round; stroke-width:4; stroke-opacity:0.89; fill:none" points="626.637,1228.07 638.635,1212.32 "/>
<polyline clip-path="url(#clip852)" style="stroke:#e26f46; stroke-linecap:round; stroke-linejoin:round; stroke-width:4; stroke-opacity:0.88; fill:none" points="638.635,1212.32 652.666,1206.46 "/>
<polyline clip-path="url(#clip852)" style="stroke:#e26f46; stroke-linecap:round; stroke-linejoin:round; stroke-width:4; stroke-opacity:0.87; fill:none" points="652.666,1206.46 681.328,1183.53 "/>
<polyline clip-path="url(#clip852)" style="stroke:#e26f46; stroke-linecap:round; stroke-linejoin:round; stroke-width:4; stroke-opacity:0.86; fill:none" points="681.328,1183.53 695.191,1178.46 "/>
<polyline clip-path="url(#clip852)" style="stroke:#e26f46; stroke-linecap:round; stroke-linejoin:round; stroke-width:4; stroke-opacity:0.85; fill:none" points="695.191,1178.46 708.054,1163.97 "/>
<polyline clip-path="url(#clip852)" style="stroke:#e26f46; stroke-linecap:round; stroke-linejoin:round; stroke-width:4; stroke-opacity:0.84; fill:none" points="708.054,1163.97 735.116,1157.85 "/>
<polyline clip-path="url(#clip852)" style="stroke:#e26f46; stroke-linecap:round; stroke-linejoin:round; stroke-width:4; stroke-opacity:0.83; fill:none" points="735.116,1157.85 748.251,1147.95 "/>
<polyline clip-path="url(#clip852)" style="stroke:#e26f46; stroke-linecap:round; stroke-linejoin:round; stroke-width:4; stroke-opacity:0.82; fill:none" points="748.251,1147.95 758.309,1133.97 "/>
<polyline clip-path="url(#clip852)" style="stroke:#e26f46; stroke-linecap:round; stroke-linejoin:round; stroke-width:4; stroke-opacity:0.81; fill:none" points="758.309,1133.97 777.39,1111.01 "/>
<polyline clip-path="url(#clip852)" style="stroke:#e26f46; stroke-linecap:round; stroke-linejoin:round; stroke-width:4; stroke-opacity:0.8; fill:none" points="777.39,1111.01 799.424,1100.19 "/>
<polyline clip-path="url(#clip852)" style="stroke:#e26f46; stroke-linecap:round; stroke-linejoin:round; stroke-width:4; stroke-opacity:0.79; fill:none" points="799.424,1100.19 820.253,1075.36 "/>
<polyline clip-path="url(#clip852)" style="stroke:#e26f46; stroke-linecap:round; stroke-linejoin:round; stroke-width:4; stroke-opacity:0.78; fill:none" points="820.253,1075.36 819.304,1061.43 "/>
<polyline clip-path="url(#clip852)" style="stroke:#e26f46; stroke-linecap:round; stroke-linejoin:round; stroke-width:4; stroke-opacity:0.77; fill:none" points="819.304,1061.43 842.97,1053.55 "/>
<polyline clip-path="url(#clip852)" style="stroke:#e26f46; stroke-linecap:round; stroke-linejoin:round; stroke-width:4; stroke-opacity:0.76; fill:none" points="842.97,1053.55 875.039,1046.26 "/>
<polyline clip-path="url(#clip852)" style="stroke:#e26f46; stroke-linecap:round; stroke-linejoin:round; stroke-width:4; stroke-opacity:0.75; fill:none" points="875.039,1046.26 898.567,1026.12 "/>
<polyline clip-path="url(#clip852)" style="stroke:#e26f46; stroke-linecap:round; stroke-linejoin:round; stroke-width:4; stroke-opacity:0.74; fill:none" points="898.567,1026.12 909.771,1005.4 "/>
<polyline clip-path="url(#clip852)" style="stroke:#e26f46; stroke-linecap:round; stroke-linejoin:round; stroke-width:4; stroke-opacity:0.73; fill:none" points="909.771,1005.4 928.473,999.479 "/>
<polyline clip-path="url(#clip852)" style="stroke:#e26f46; stroke-linecap:round; stroke-linejoin:round; stroke-width:4; stroke-opacity:0.72; fill:none" points="928.473,999.479 944.886,985.453 "/>
<polyline clip-path="url(#clip852)" style="stroke:#e26f46; stroke-linecap:round; stroke-linejoin:round; stroke-width:4; stroke-opacity:0.71; fill:none" points="944.886,985.453 965.374,974.881 "/>
<polyline clip-path="url(#clip852)" style="stroke:#e26f46; stroke-linecap:round; stroke-linejoin:round; stroke-width:4; stroke-opacity:0.7; fill:none" points="965.374,974.881 974.82,969.607 "/>
<polyline clip-path="url(#clip852)" style="stroke:#e26f46; stroke-linecap:round; stroke-linejoin:round; stroke-width:4; stroke-opacity:0.69; fill:none" points="974.82,969.607 986.907,956.18 "/>
<polyline clip-path="url(#clip852)" style="stroke:#e26f46; stroke-linecap:round; stroke-linejoin:round; stroke-width:4; stroke-opacity:0.68; fill:none" points="986.907,956.18 997.613,943.357 "/>
<polyline clip-path="url(#clip852)" style="stroke:#e26f46; stroke-linecap:round; stroke-linejoin:round; stroke-width:4; stroke-opacity:0.67; fill:none" points="997.613,943.357 1012.32,928.36 "/>
<polyline clip-path="url(#clip852)" style="stroke:#e26f46; stroke-linecap:round; stroke-linejoin:round; stroke-width:4; stroke-opacity:0.66; fill:none" points="1012.32,928.36 1021.6,910.501 "/>
<polyline clip-path="url(#clip852)" style="stroke:#e26f46; stroke-linecap:round; stroke-linejoin:round; stroke-width:4; stroke-opacity:0.65; fill:none" points="1021.6,910.501 1026.79,901.514 "/>
<polyline clip-path="url(#clip852)" style="stroke:#e26f46; stroke-linecap:round; stroke-linejoin:round; stroke-width:4; stroke-opacity:0.64; fill:none" points="1026.79,901.514 1048.83,882.186 "/>
<polyline clip-path="url(#clip852)" style="stroke:#e26f46; stroke-linecap:round; stroke-linejoin:round; stroke-width:4; stroke-opacity:0.63; fill:none" points="1048.83,882.186 1065.13,866.434 "/>
<polyline clip-path="url(#clip852)" style="stroke:#e26f46; stroke-linecap:round; stroke-linejoin:round; stroke-width:4; stroke-opacity:0.62; fill:none" points="1065.13,866.434 1089.54,845.991 "/>
<polyline clip-path="url(#clip852)" style="stroke:#e26f46; stroke-linecap:round; stroke-linejoin:round; stroke-width:4; stroke-opacity:0.61; fill:none" points="1089.54,845.991 1100.81,836.068 "/>
<polyline clip-path="url(#clip852)" style="stroke:#e26f46; stroke-linecap:round; stroke-linejoin:round; stroke-width:4; stroke-opacity:0.6; fill:none" points="1100.81,836.068 1112.59,834.49 "/>
<polyline clip-path="url(#clip852)" style="stroke:#e26f46; stroke-linecap:round; stroke-linejoin:round; stroke-width:4; stroke-opacity:0.59; fill:none" points="1112.59,834.49 1113.41,815.699 "/>
<polyline clip-path="url(#clip852)" style="stroke:#e26f46; stroke-linecap:round; stroke-linejoin:round; stroke-width:4; stroke-opacity:0.58; fill:none" points="1113.41,815.699 1129.68,808.554 "/>
<polyline clip-path="url(#clip852)" style="stroke:#e26f46; stroke-linecap:round; stroke-linejoin:round; stroke-width:4; stroke-opacity:0.57; fill:none" points="1129.68,808.554 1159.22,816.227 "/>
<polyline clip-path="url(#clip852)" style="stroke:#e26f46; stroke-linecap:round; stroke-linejoin:round; stroke-width:4; stroke-opacity:0.56; fill:none" points="1159.22,816.227 1196.57,787.49 "/>
<polyline clip-path="url(#clip852)" style="stroke:#e26f46; stroke-linecap:round; stroke-linejoin:round; stroke-width:4; stroke-opacity:0.55; fill:none" points="1196.57,787.49 1227.74,777.073 "/>
<polyline clip-path="url(#clip852)" style="stroke:#e26f46; stroke-linecap:round; stroke-linejoin:round; stroke-width:4; stroke-opacity:0.54; fill:none" points="1227.74,777.073 1247.42,771.72 "/>
<polyline clip-path="url(#clip852)" style="stroke:#e26f46; stroke-linecap:round; stroke-linejoin:round; stroke-width:4; stroke-opacity:0.53; fill:none" points="1247.42,771.72 1254.7,768.021 "/>
<polyline clip-path="url(#clip852)" style="stroke:#e26f46; stroke-linecap:round; stroke-linejoin:round; stroke-width:4; stroke-opacity:0.52; fill:none" points="1254.7,768.021 1266.21,754.318 "/>
<polyline clip-path="url(#clip852)" style="stroke:#e26f46; stroke-linecap:round; stroke-linejoin:round; stroke-width:4; stroke-opacity:0.51; fill:none" points="1266.21,754.318 1286.16,734.849 "/>
<polyline clip-path="url(#clip852)" style="stroke:#e26f46; stroke-linecap:round; stroke-linejoin:round; stroke-width:4; stroke-opacity:0.5; fill:none" points="1286.16,734.849 1294.04,719.947 "/>
<polyline clip-path="url(#clip852)" style="stroke:#e26f46; stroke-linecap:round; stroke-linejoin:round; stroke-width:4; stroke-opacity:0.49; fill:none" points="1294.04,719.947 1316.42,711.786 "/>
<polyline clip-path="url(#clip852)" style="stroke:#e26f46; stroke-linecap:round; stroke-linejoin:round; stroke-width:4; stroke-opacity:0.48; fill:none" points="1316.42,711.786 1337.96,699.947 "/>
<polyline clip-path="url(#clip852)" style="stroke:#e26f46; stroke-linecap:round; stroke-linejoin:round; stroke-width:4; stroke-opacity:0.47; fill:none" points="1337.96,699.947 1359.32,692.396 "/>
<polyline clip-path="url(#clip852)" style="stroke:#e26f46; stroke-linecap:round; stroke-linejoin:round; stroke-width:4; stroke-opacity:0.46; fill:none" points="1359.32,692.396 1382.48,684.213 "/>
<polyline clip-path="url(#clip852)" style="stroke:#e26f46; stroke-linecap:round; stroke-linejoin:round; stroke-width:4; stroke-opacity:0.45; fill:none" points="1382.48,684.213 1401.54,671.168 "/>
<polyline clip-path="url(#clip852)" style="stroke:#e26f46; stroke-linecap:round; stroke-linejoin:round; stroke-width:4; stroke-opacity:0.44; fill:none" points="1401.54,671.168 1424.12,654.19 "/>
<polyline clip-path="url(#clip852)" style="stroke:#e26f46; stroke-linecap:round; stroke-linejoin:round; stroke-width:4; stroke-opacity:0.43; fill:none" points="1424.12,654.19 1435.13,629.298 "/>
<polyline clip-path="url(#clip852)" style="stroke:#e26f46; stroke-linecap:round; stroke-linejoin:round; stroke-width:4; stroke-opacity:0.42; fill:none" points="1435.13,629.298 1443.31,611.343 "/>
<polyline clip-path="url(#clip852)" style="stroke:#e26f46; stroke-linecap:round; stroke-linejoin:round; stroke-width:4; stroke-opacity:0.41; fill:none" points="1443.31,611.343 1465.9,596.762 "/>
<polyline clip-path="url(#clip852)" style="stroke:#e26f46; stroke-linecap:round; stroke-linejoin:round; stroke-width:4; stroke-opacity:0.4; fill:none" points="1465.9,596.762 1487.06,583.287 "/>
<polyline clip-path="url(#clip852)" style="stroke:#e26f46; stroke-linecap:round; stroke-linejoin:round; stroke-width:4; stroke-opacity:0.39; fill:none" points="1487.06,583.287 1511.78,577.357 "/>
<polyline clip-path="url(#clip852)" style="stroke:#e26f46; stroke-linecap:round; stroke-linejoin:round; stroke-width:4; stroke-opacity:0.38; fill:none" points="1511.78,577.357 1546.31,564.341 "/>
<polyline clip-path="url(#clip852)" style="stroke:#e26f46; stroke-linecap:round; stroke-linejoin:round; stroke-width:4; stroke-opacity:0.37; fill:none" points="1546.31,564.341 1552.49,554.65 "/>
<polyline clip-path="url(#clip852)" style="stroke:#e26f46; stroke-linecap:round; stroke-linejoin:round; stroke-width:4; stroke-opacity:0.36; fill:none" points="1552.49,554.65 1575.27,534.815 "/>
<polyline clip-path="url(#clip852)" style="stroke:#e26f46; stroke-linecap:round; stroke-linejoin:round; stroke-width:4; stroke-opacity:0.35; fill:none" points="1575.27,534.815 1584.19,508.334 "/>
<polyline clip-path="url(#clip852)" style="stroke:#e26f46; stroke-linecap:round; stroke-linejoin:round; stroke-width:4; stroke-opacity:0.34; fill:none" points="1584.19,508.334 1626.65,493.565 "/>
<polyline clip-path="url(#clip852)" style="stroke:#e26f46; stroke-linecap:round; stroke-linejoin:round; stroke-width:4; stroke-opacity:0.33; fill:none" points="1626.65,493.565 1655.44,490.732 "/>
<polyline clip-path="url(#clip852)" style="stroke:#e26f46; stroke-linecap:round; stroke-linejoin:round; stroke-width:4; stroke-opacity:0.32; fill:none" points="1655.44,490.732 1676.81,477.122 "/>
<polyline clip-path="url(#clip852)" style="stroke:#e26f46; stroke-linecap:round; stroke-linejoin:round; stroke-width:4; stroke-opacity:0.31; fill:none" points="1676.81,477.122 1706.51,470.242 "/>
<polyline clip-path="url(#clip852)" style="stroke:#e26f46; stroke-linecap:round; stroke-linejoin:round; stroke-width:4; stroke-opacity:0.3; fill:none" points="1706.51,470.242 1726.65,448.048 "/>
<polyline clip-path="url(#clip852)" style="stroke:#e26f46; stroke-linecap:round; stroke-linejoin:round; stroke-width:4; stroke-opacity:0.29; fill:none" points="1726.65,448.048 1746.44,440.417 "/>
<polyline clip-path="url(#clip852)" style="stroke:#e26f46; stroke-linecap:round; stroke-linejoin:round; stroke-width:4; stroke-opacity:0.28; fill:none" points="1746.44,440.417 1756.7,434.91 "/>
<polyline clip-path="url(#clip852)" style="stroke:#e26f46; stroke-linecap:round; stroke-linejoin:round; stroke-width:4; stroke-opacity:0.27; fill:none" points="1756.7,434.91 1777.8,412.77 "/>
<polyline clip-path="url(#clip852)" style="stroke:#e26f46; stroke-linecap:round; stroke-linejoin:round; stroke-width:4; stroke-opacity:0.26; fill:none" points="1777.8,412.77 1799.7,397.79 "/>
<polyline clip-path="url(#clip852)" style="stroke:#e26f46; stroke-linecap:round; stroke-linejoin:round; stroke-width:4; stroke-opacity:0.25; fill:none" points="1799.7,397.79 1810.4,384.297 "/>
<polyline clip-path="url(#clip852)" style="stroke:#e26f46; stroke-linecap:round; stroke-linejoin:round; stroke-width:4; stroke-opacity:0.24; fill:none" points="1810.4,384.297 1825.99,360.187 "/>
<polyline clip-path="url(#clip852)" style="stroke:#e26f46; stroke-linecap:round; stroke-linejoin:round; stroke-width:4; stroke-opacity:0.23; fill:none" points="1825.99,360.187 1851.6,338.359 "/>
<polyline clip-path="url(#clip852)" style="stroke:#e26f46; stroke-linecap:round; stroke-linejoin:round; stroke-width:4; stroke-opacity:0.22; fill:none" points="1851.6,338.359 1883.12,326.269 "/>
<polyline clip-path="url(#clip852)" style="stroke:#e26f46; stroke-linecap:round; stroke-linejoin:round; stroke-width:4; stroke-opacity:0.21; fill:none" points="1883.12,326.269 1906.17,309.838 "/>
<polyline clip-path="url(#clip852)" style="stroke:#e26f46; stroke-linecap:round; stroke-linejoin:round; stroke-width:4; stroke-opacity:0.2; fill:none" points="1906.17,309.838 1934.16,301.778 "/>
<polyline clip-path="url(#clip852)" style="stroke:#e26f46; stroke-linecap:round; stroke-linejoin:round; stroke-width:4; stroke-opacity:0.19; fill:none" points="1934.16,301.778 1964.93,299.355 "/>
<polyline clip-path="url(#clip852)" style="stroke:#e26f46; stroke-linecap:round; stroke-linejoin:round; stroke-width:4; stroke-opacity:0.18; fill:none" points="1964.93,299.355 1977.17,287.446 "/>
<polyline clip-path="url(#clip852)" style="stroke:#e26f46; stroke-linecap:round; stroke-linejoin:round; stroke-width:4; stroke-opacity:0.17; fill:none" points="1977.17,287.446 2001.2,285.043 "/>
<polyline clip-path="url(#clip852)" style="stroke:#e26f46; stroke-linecap:round; stroke-linejoin:round; stroke-width:4; stroke-opacity:0.16; fill:none" points="2001.2,285.043 1999.76,263.547 "/>
<polyline clip-path="url(#clip852)" style="stroke:#e26f46; stroke-linecap:round; stroke-linejoin:round; stroke-width:4; stroke-opacity:0.15; fill:none" points="1999.76,263.547 2025.65,244.762 "/>
<polyline clip-path="url(#clip852)" style="stroke:#e26f46; stroke-linecap:round; stroke-linejoin:round; stroke-width:4; stroke-opacity:0.14; fill:none" points="2025.65,244.762 2055.41,240.306 "/>
<polyline clip-path="url(#clip852)" style="stroke:#e26f46; stroke-linecap:round; stroke-linejoin:round; stroke-width:4; stroke-opacity:0.13; fill:none" points="2055.41,240.306 2083.3,224.207 "/>
<polyline clip-path="url(#clip852)" style="stroke:#e26f46; stroke-linecap:round; stroke-linejoin:round; stroke-width:4; stroke-opacity:0.12; fill:none" points="2083.3,224.207 2109.89,217.493 "/>
<path clip-path="url(#clip850)" d="M241.909 250.738 L716.197 250.738 L716.197 95.2176 L241.909 95.2176  Z" fill="#ffffff" fill-rule="evenodd" fill-opacity="1"/>
<polyline clip-path="url(#clip850)" style="stroke:#000000; stroke-linecap:round; stroke-linejoin:round; stroke-width:4; stroke-opacity:1; fill:none" points="241.909,250.738 716.197,250.738 716.197,95.2176 241.909,95.2176 241.909,250.738 "/>
<polyline clip-path="url(#clip850)" style="stroke:#009af9; stroke-linecap:round; stroke-linejoin:round; stroke-width:4; stroke-opacity:1; fill:none" points="266.172,147.058 411.747,147.058 "/>
<path clip-path="url(#clip850)" d="M451.195 142.393 Q450.478 141.977 449.621 141.791 Q448.788 141.583 447.769 141.583 Q444.158 141.583 442.214 143.944 Q440.292 146.282 440.292 150.68 L440.292 164.338 L436.01 164.338 L436.01 138.412 L440.292 138.412 L440.292 142.44 Q441.635 140.078 443.788 138.944 Q445.94 137.787 449.019 137.787 Q449.459 137.787 449.991 137.856 Q450.524 137.903 451.172 138.018 L451.195 142.393 Z" fill="#000000" fill-rule="nonzero" fill-opacity="1" /><path clip-path="url(#clip850)" d="M464.667 141.398 Q461.241 141.398 459.251 144.083 Q457.26 146.745 457.26 151.398 Q457.26 156.051 459.227 158.736 Q461.218 161.398 464.667 161.398 Q468.07 161.398 470.061 158.713 Q472.051 156.027 472.051 151.398 Q472.051 146.791 470.061 144.106 Q468.07 141.398 464.667 141.398 M464.667 137.787 Q470.223 137.787 473.394 141.398 Q476.565 145.009 476.565 151.398 Q476.565 157.764 473.394 161.398 Q470.223 165.009 464.667 165.009 Q459.089 165.009 455.917 161.398 Q452.769 157.764 452.769 151.398 Q452.769 145.009 455.917 141.398 Q459.089 137.787 464.667 137.787 Z" fill="#000000" fill-rule="nonzero" fill-opacity="1" /><path clip-path="url(#clip850)" d="M502.236 151.398 Q502.236 146.699 500.292 144.037 Q498.371 141.352 494.991 141.352 Q491.612 141.352 489.667 144.037 Q487.746 146.699 487.746 151.398 Q487.746 156.097 489.667 158.782 Q491.612 161.444 494.991 161.444 Q498.371 161.444 500.292 158.782 Q502.236 156.097 502.236 151.398 M487.746 142.347 Q489.088 140.032 491.125 138.921 Q493.186 137.787 496.033 137.787 Q500.755 137.787 503.695 141.537 Q506.658 145.287 506.658 151.398 Q506.658 157.509 503.695 161.259 Q500.755 165.009 496.033 165.009 Q493.186 165.009 491.125 163.898 Q489.088 162.763 487.746 160.449 L487.746 164.338 L483.463 164.338 L483.463 128.319 L487.746 128.319 L487.746 142.347 Z" fill="#000000" fill-rule="nonzero" fill-opacity="1" /><path clip-path="url(#clip850)" d="M523.764 141.398 Q520.338 141.398 518.348 144.083 Q516.357 146.745 516.357 151.398 Q516.357 156.051 518.324 158.736 Q520.315 161.398 523.764 161.398 Q527.167 161.398 529.158 158.713 Q531.148 156.027 531.148 151.398 Q531.148 146.791 529.158 144.106 Q527.167 141.398 523.764 141.398 M523.764 137.787 Q529.32 137.787 532.491 141.398 Q535.662 145.009 535.662 151.398 Q535.662 157.764 532.491 161.398 Q529.32 165.009 523.764 165.009 Q518.185 165.009 515.014 161.398 Q511.866 157.764 511.866 151.398 Q511.866 145.009 515.014 141.398 Q518.185 137.787 523.764 137.787 Z" fill="#000000" fill-rule="nonzero" fill-opacity="1" /><path clip-path="url(#clip850)" d="M546.935 131.051 L546.935 138.412 L555.708 138.412 L555.708 141.722 L546.935 141.722 L546.935 155.796 Q546.935 158.967 547.792 159.87 Q548.671 160.773 551.333 160.773 L555.708 160.773 L555.708 164.338 L551.333 164.338 Q546.403 164.338 544.528 162.509 Q542.653 160.657 542.653 155.796 L542.653 141.722 L539.528 141.722 L539.528 138.412 L542.653 138.412 L542.653 131.051 L546.935 131.051 Z" fill="#000000" fill-rule="nonzero" fill-opacity="1" /><path clip-path="url(#clip850)" d="M580.5 160.449 L580.5 174.199 L576.218 174.199 L576.218 138.412 L580.5 138.412 L580.5 142.347 Q581.843 140.032 583.88 138.921 Q585.94 137.787 588.787 137.787 Q593.509 137.787 596.449 141.537 Q599.412 145.287 599.412 151.398 Q599.412 157.509 596.449 161.259 Q593.509 165.009 588.787 165.009 Q585.94 165.009 583.88 163.898 Q581.843 162.763 580.5 160.449 M594.991 151.398 Q594.991 146.699 593.046 144.037 Q591.125 141.352 587.745 141.352 Q584.366 141.352 582.421 144.037 Q580.5 146.699 580.5 151.398 Q580.5 156.097 582.421 158.782 Q584.366 161.444 587.745 161.444 Q591.125 161.444 593.046 158.782 Q594.991 156.097 594.991 151.398 Z" fill="#000000" fill-rule="nonzero" fill-opacity="1" /><path clip-path="url(#clip850)" d="M618.254 151.305 Q613.092 151.305 611.102 152.486 Q609.111 153.666 609.111 156.514 Q609.111 158.782 610.592 160.125 Q612.097 161.444 614.666 161.444 Q618.208 161.444 620.338 158.944 Q622.49 156.421 622.49 152.254 L622.49 151.305 L618.254 151.305 M626.75 149.546 L626.75 164.338 L622.49 164.338 L622.49 160.402 Q621.032 162.763 618.856 163.898 Q616.68 165.009 613.532 165.009 Q609.551 165.009 607.19 162.787 Q604.852 160.541 604.852 156.791 Q604.852 152.416 607.768 150.194 Q610.708 147.972 616.518 147.972 L622.49 147.972 L622.49 147.555 Q622.49 144.615 620.546 143.018 Q618.625 141.398 615.129 141.398 Q612.907 141.398 610.801 141.93 Q608.694 142.463 606.75 143.527 L606.75 139.592 Q609.088 138.69 611.287 138.25 Q613.486 137.787 615.569 137.787 Q621.194 137.787 623.972 140.703 Q626.75 143.62 626.75 149.546 Z" fill="#000000" fill-rule="nonzero" fill-opacity="1" /><path clip-path="url(#clip850)" d="M639.736 131.051 L639.736 138.412 L648.509 138.412 L648.509 141.722 L639.736 141.722 L639.736 155.796 Q639.736 158.967 640.592 159.87 Q641.472 160.773 644.134 160.773 L648.509 160.773 L648.509 164.338 L644.134 164.338 Q639.203 164.338 637.328 162.509 Q635.453 160.657 635.453 155.796 L635.453 141.722 L632.328 141.722 L632.328 138.412 L635.453 138.412 L635.453 131.051 L639.736 131.051 Z" fill="#000000" fill-rule="nonzero" fill-opacity="1" /><path clip-path="url(#clip850)" d="M675.661 148.689 L675.661 164.338 L671.402 164.338 L671.402 148.828 Q671.402 145.148 669.967 143.319 Q668.532 141.49 665.662 141.49 Q662.212 141.49 660.222 143.69 Q658.231 145.889 658.231 149.685 L658.231 164.338 L653.949 164.338 L653.949 128.319 L658.231 128.319 L658.231 142.44 Q659.759 140.102 661.819 138.944 Q663.902 137.787 666.611 137.787 Q671.078 137.787 673.37 140.565 Q675.661 143.319 675.661 148.689 Z" fill="#000000" fill-rule="nonzero" fill-opacity="1" /><polyline clip-path="url(#clip850)" style="stroke:#e26f46; stroke-linecap:round; stroke-linejoin:round; stroke-width:4; stroke-opacity:1; fill:none" points="266.172,198.898 411.747,198.898 "/>
<path clip-path="url(#clip850)" d="M440.292 212.289 L440.292 226.039 L436.01 226.039 L436.01 190.252 L440.292 190.252 L440.292 194.187 Q441.635 191.872 443.672 190.761 Q445.732 189.627 448.579 189.627 Q453.302 189.627 456.241 193.377 Q459.204 197.127 459.204 203.238 Q459.204 209.349 456.241 213.099 Q453.302 216.849 448.579 216.849 Q445.732 216.849 443.672 215.738 Q441.635 214.603 440.292 212.289 M454.783 203.238 Q454.783 198.539 452.839 195.877 Q450.917 193.192 447.538 193.192 Q444.158 193.192 442.214 195.877 Q440.292 198.539 440.292 203.238 Q440.292 207.937 442.214 210.622 Q444.158 213.284 447.538 213.284 Q450.917 213.284 452.839 210.622 Q454.783 207.937 454.783 203.238 Z" fill="#000000" fill-rule="nonzero" fill-opacity="1" /><path clip-path="url(#clip850)" d="M481.288 194.233 Q480.57 193.817 479.713 193.631 Q478.88 193.423 477.862 193.423 Q474.251 193.423 472.306 195.784 Q470.385 198.122 470.385 202.52 L470.385 216.178 L466.102 216.178 L466.102 190.252 L470.385 190.252 L470.385 194.28 Q471.727 191.918 473.88 190.784 Q476.033 189.627 479.112 189.627 Q479.551 189.627 480.084 189.696 Q480.616 189.743 481.264 189.858 L481.288 194.233 Z" fill="#000000" fill-rule="nonzero" fill-opacity="1" /><path clip-path="url(#clip850)" d="M506.889 202.15 L506.889 204.233 L487.306 204.233 Q487.584 208.631 489.945 210.946 Q492.329 213.238 496.565 213.238 Q499.019 213.238 501.311 212.636 Q503.625 212.034 505.894 210.83 L505.894 214.858 Q503.602 215.83 501.195 216.34 Q498.787 216.849 496.311 216.849 Q490.107 216.849 486.473 213.238 Q482.862 209.627 482.862 203.469 Q482.862 197.104 486.287 193.377 Q489.737 189.627 495.57 189.627 Q500.801 189.627 503.834 193.006 Q506.889 196.363 506.889 202.15 M502.63 200.9 Q502.584 197.405 500.662 195.321 Q498.764 193.238 495.616 193.238 Q492.051 193.238 489.899 195.252 Q487.769 197.266 487.445 200.923 L502.63 200.9 Z" fill="#000000" fill-rule="nonzero" fill-opacity="1" /><path clip-path="url(#clip850)" d="M530.94 194.187 L530.94 180.159 L535.199 180.159 L535.199 216.178 L530.94 216.178 L530.94 212.289 Q529.597 214.603 527.537 215.738 Q525.5 216.849 522.63 216.849 Q517.931 216.849 514.968 213.099 Q512.028 209.349 512.028 203.238 Q512.028 197.127 514.968 193.377 Q517.931 189.627 522.63 189.627 Q525.5 189.627 527.537 190.761 Q529.597 191.872 530.94 194.187 M516.426 203.238 Q516.426 207.937 518.348 210.622 Q520.292 213.284 523.672 213.284 Q527.051 213.284 528.996 210.622 Q530.94 207.937 530.94 203.238 Q530.94 198.539 528.996 195.877 Q527.051 193.192 523.672 193.192 Q520.292 193.192 518.348 195.877 Q516.426 198.539 516.426 203.238 Z" fill="#000000" fill-rule="nonzero" fill-opacity="1" /><path clip-path="url(#clip850)" d="M543.972 190.252 L548.232 190.252 L548.232 216.178 L543.972 216.178 L543.972 190.252 M543.972 180.159 L548.232 180.159 L548.232 185.553 L543.972 185.553 L543.972 180.159 Z" fill="#000000" fill-rule="nonzero" fill-opacity="1" /><path clip-path="url(#clip850)" d="M575.801 191.247 L575.801 195.229 Q573.995 194.233 572.167 193.747 Q570.361 193.238 568.509 193.238 Q564.366 193.238 562.074 195.877 Q559.782 198.492 559.782 203.238 Q559.782 207.983 562.074 210.622 Q564.366 213.238 568.509 213.238 Q570.361 213.238 572.167 212.752 Q573.995 212.242 575.801 211.247 L575.801 215.182 Q574.019 216.016 572.097 216.432 Q570.199 216.849 568.046 216.849 Q562.19 216.849 558.741 213.168 Q555.292 209.488 555.292 203.238 Q555.292 196.895 558.764 193.261 Q562.259 189.627 568.324 189.627 Q570.292 189.627 572.167 190.043 Q574.042 190.437 575.801 191.247 Z" fill="#000000" fill-rule="nonzero" fill-opacity="1" /><path clip-path="url(#clip850)" d="M587.421 182.891 L587.421 190.252 L596.194 190.252 L596.194 193.562 L587.421 193.562 L587.421 207.636 Q587.421 210.807 588.278 211.71 Q589.157 212.613 591.819 212.613 L596.194 212.613 L596.194 216.178 L591.819 216.178 Q586.889 216.178 585.014 214.349 Q583.139 212.497 583.139 207.636 L583.139 193.562 L580.014 193.562 L580.014 190.252 L583.139 190.252 L583.139 182.891 L587.421 182.891 Z" fill="#000000" fill-rule="nonzero" fill-opacity="1" /><path clip-path="url(#clip850)" d="M601.796 190.252 L606.055 190.252 L606.055 216.178 L601.796 216.178 L601.796 190.252 M601.796 180.159 L606.055 180.159 L606.055 185.553 L601.796 185.553 L601.796 180.159 Z" fill="#000000" fill-rule="nonzero" fill-opacity="1" /><path clip-path="url(#clip850)" d="M625.014 193.238 Q621.588 193.238 619.597 195.923 Q617.606 198.585 617.606 203.238 Q617.606 207.891 619.574 210.576 Q621.565 213.238 625.014 213.238 Q628.416 213.238 630.407 210.553 Q632.398 207.867 632.398 203.238 Q632.398 198.631 630.407 195.946 Q628.416 193.238 625.014 193.238 M625.014 189.627 Q630.569 189.627 633.74 193.238 Q636.912 196.849 636.912 203.238 Q636.912 209.604 633.74 213.238 Q630.569 216.849 625.014 216.849 Q619.435 216.849 616.264 213.238 Q613.116 209.604 613.116 203.238 Q613.116 196.849 616.264 193.238 Q619.435 189.627 625.014 189.627 Z" fill="#000000" fill-rule="nonzero" fill-opacity="1" /><path clip-path="url(#clip850)" d="M665.523 200.529 L665.523 216.178 L661.263 216.178 L661.263 200.668 Q661.263 196.988 659.828 195.159 Q658.393 193.33 655.523 193.33 Q652.074 193.33 650.083 195.53 Q648.092 197.729 648.092 201.525 L648.092 216.178 L643.81 216.178 L643.81 190.252 L648.092 190.252 L648.092 194.28 Q649.62 191.942 651.68 190.784 Q653.763 189.627 656.472 189.627 Q660.939 189.627 663.231 192.405 Q665.523 195.159 665.523 200.529 Z" fill="#000000" fill-rule="nonzero" fill-opacity="1" /><path clip-path="url(#clip850)" d="M690.546 191.016 L690.546 195.043 Q688.74 194.117 686.796 193.655 Q684.851 193.192 682.768 193.192 Q679.597 193.192 677.999 194.164 Q676.425 195.136 676.425 197.08 Q676.425 198.562 677.56 199.418 Q678.694 200.252 682.12 201.016 L683.578 201.34 Q688.115 202.312 690.013 204.094 Q691.935 205.854 691.935 209.025 Q691.935 212.636 689.064 214.742 Q686.217 216.849 681.217 216.849 Q679.134 216.849 676.865 216.432 Q674.62 216.039 672.12 215.228 L672.12 210.83 Q674.481 212.057 676.773 212.682 Q679.064 213.284 681.31 213.284 Q684.319 213.284 685.939 212.266 Q687.56 211.224 687.56 209.349 Q687.56 207.613 686.379 206.687 Q685.222 205.761 681.263 204.904 L679.782 204.557 Q675.824 203.724 674.064 202.011 Q672.305 200.275 672.305 197.266 Q672.305 193.608 674.898 191.618 Q677.49 189.627 682.259 189.627 Q684.62 189.627 686.703 189.974 Q688.786 190.321 690.546 191.016 Z" fill="#000000" fill-rule="nonzero" fill-opacity="1" /></svg>
